<ttFont>
    <TTGlyph name="A" xMin="-17" yMin="-3" xMax="763" yMax="825">
      <contour>
        <pt x="122" y="44" on="1"/>
        <pt x="203" y="34" on="1"/>
        <pt x="207" y="19" on="0"/>
        <pt x="203" y="-3" on="1"/>
        <pt x="140" y="0" on="0"/>
        <pt x="97" y="0" on="1"/>
        <pt x="73" y="0" on="0"/>
        <pt x="-11" y="-2" on="1"/>
        <pt x="-17" y="16" on="0"/>
        <pt x="-11" y="34" on="1"/>
        <pt x="55" y="46" on="1"/>
        <pt x="71" y="70" on="0"/>
        <pt x="95" y="135" on="1"/>
        <pt x="353" y="825" on="1"/>
        <pt x="388" y="825" on="1"/>
        <pt x="678" y="44" on="1"/>
        <pt x="759" y="34" on="1"/>
        <pt x="763" y="19" on="0"/>
        <pt x="759" y="-3" on="1"/>
        <pt x="696" y="0" on="0"/>
        <pt x="618" y="0" on="1"/>
        <pt x="560" y="0" on="0"/>
        <pt x="476" y="-2" on="1"/>
        <pt x="470" y="16" on="0"/>
        <pt x="476" y="34" on="1"/>
        <pt x="559" y="46" on="1"/>
        <pt x="471" y="293" on="1"/>
        <pt x="211" y="293" on="1"/>
      </contour>
      <contour>
        <pt x="344" y="674" on="1"/>
        <pt x="343" y="674" on="1"/>
        <pt x="331" y="627" on="0"/>
        <pt x="304" y="551" on="1"/>
        <pt x="229" y="343" on="1"/>
        <pt x="453" y="343" on="1"/>
        <pt x="380" y="551" on="1"/>
        <pt x="359" y="612" on="0"/>
      </contour>
    </TTGlyph>
    <TTGlyph name="AE" xMin="-84" yMin="-3" xMax="945" yMax="796">
      <contour>
        <pt x="464" y="293" on="1"/>
        <pt x="205" y="293" on="1"/>
        <pt x="65" y="44" on="1"/>
        <pt x="146" y="34" on="1"/>
        <pt x="150" y="19" on="0"/>
        <pt x="146" y="-3" on="1"/>
        <pt x="83" y="0" on="0"/>
        <pt x="35" y="0" on="1"/>
        <pt x="6" y="0" on="0"/>
        <pt x="-78" y="-2" on="1"/>
        <pt x="-84" y="16" on="0"/>
        <pt x="-78" y="34" on="1"/>
        <pt x="-2" y="46" on="1"/>
        <pt x="436" y="796" on="1"/>
        <pt x="914" y="796" on="1"/>
        <pt x="915" y="564" on="1"/>
        <pt x="893" y="560" on="0"/>
        <pt x="878" y="564" on="1"/>
        <pt x="831" y="745" on="1"/>
        <pt x="561" y="745" on="1"/>
        <pt x="561" y="445" on="1"/>
        <pt x="721" y="448" on="1"/>
        <pt x="744" y="546" on="1"/>
        <pt x="759" y="550" on="0"/>
        <pt x="781" y="546" on="1"/>
        <pt x="777" y="490" on="0"/>
        <pt x="777" y="417" on="1"/>
        <pt x="777" y="350" on="0"/>
        <pt x="780" y="287" on="1"/>
        <pt x="762" y="281" on="0"/>
        <pt x="744" y="287" on="1"/>
        <pt x="722" y="391" on="1"/>
        <pt x="561" y="395" on="1"/>
        <pt x="561" y="51" on="1"/>
        <pt x="861" y="51" on="1"/>
        <pt x="908" y="232" on="1"/>
        <pt x="923" y="236" on="0"/>
        <pt x="945" y="232" on="1"/>
        <pt x="944" y="0" on="1"/>
        <pt x="464" y="0" on="1"/>
      </contour>
      <contour>
        <pt x="464" y="751" on="1"/>
        <pt x="233" y="343" on="1"/>
        <pt x="464" y="343" on="1"/>
      </contour>
    </TTGlyph>
    <TTGlyph name="Aacute" xMin="-17" yMin="-3" xMax="763" yMax="1021">
      <component glyphName="A" x="0" y="0" flags="0x204"/>
      <component glyphName="acute.case" x="283" y="93" flags="0x4"/>
    </TTGlyph>
    <TTGlyph name="Acircumflex" xMin="-17" yMin="-3" xMax="763" yMax="1023">
      <component glyphName="A" x="0" y="0" flags="0x204"/>
      <component glyphName="circumflex.case" x="191" y="93" flags="0x4"/>
    </TTGlyph>
    <TTGlyph name="Adieresis" xMin="-17" yMin="-3" xMax="763" yMax="1002">
      <component glyphName="A" x="0" y="0" flags="0x204"/>
      <component glyphName="dieresis.case" x="177" y="93" flags="0x4"/>
    </TTGlyph>
    <TTGlyph name="Agrave" xMin="-17" yMin="-3" xMax="763" yMax="1021">
      <component glyphName="A" x="0" y="0" flags="0x204"/>
      <component glyphName="grave.case" x="220" y="93" flags="0x4"/>
    </TTGlyph>
    <TTGlyph name="Aring" xMin="-17" yMin="-3" xMax="763" yMax="1072">
      <component glyphName="A" x="0" y="0" flags="0x204"/>
      <component glyphName="ring" x="241" y="293" flags="0x4"/>
    </TTGlyph>
    <TTGlyph name="Atilde" xMin="-17" yMin="-3" xMax="763" yMax="992">
      <component glyphName="A" x="0" y="0" flags="0x204"/>
      <component glyphName="tilde.case" x="191" y="93" flags="0x4"/>
    </TTGlyph>
    <TTGlyph name="B" xMin="40" yMin="-13" xMax="653" yMax="807">
      <contour>
        <pt x="52" y="799" on="1"/>
        <pt x="103" y="799" on="0"/>
        <pt x="295" y="807" on="0"/>
        <pt x="326" y="807" on="1"/>
        <pt x="353" y="807" on="1"/>
        <pt x="484" y="807" on="0"/>
        <pt x="612" y="700" on="0"/>
        <pt x="612" y="613" on="1"/>
        <pt x="612" y="489" on="0"/>
        <pt x="450" y="441" on="1"/>
        <pt x="450" y="438" on="1"/>
        <pt x="544" y="424" on="0"/>
        <pt x="653" y="305" on="0"/>
        <pt x="653" y="222" on="1"/>
        <pt x="653" y="111" on="0"/>
        <pt x="502" y="-13" on="0"/>
        <pt x="356" y="-13" on="1"/>
        <pt x="316" y="-13" on="0"/>
        <pt x="137" y="0" on="0"/>
        <pt x="84" y="0" on="1"/>
        <pt x="78" y="0" on="0"/>
        <pt x="52" y="-1" on="0"/>
        <pt x="46" y="-1" on="1"/>
        <pt x="40" y="17" on="0"/>
        <pt x="46" y="35" on="1"/>
        <pt x="129" y="46" on="1"/>
        <pt x="133" y="84" on="0"/>
        <pt x="133" y="163" on="1"/>
        <pt x="133" y="752" on="1"/>
        <pt x="52" y="762" on="1"/>
        <pt x="48" y="777" on="0"/>
      </contour>
      <contour>
        <pt x="320" y="406" on="1"/>
        <pt x="240" y="406" on="1"/>
        <pt x="240" y="44" on="1"/>
        <pt x="291" y="35" on="0"/>
        <pt x="321" y="33" on="1"/>
        <pt x="442" y="33" on="0"/>
        <pt x="534" y="124" on="0"/>
        <pt x="534" y="221" on="1"/>
        <pt x="534" y="299" on="0"/>
        <pt x="421" y="406" on="0"/>
      </contour>
      <contour>
        <pt x="327" y="765" on="1"/>
        <pt x="277" y="765" on="0"/>
        <pt x="244" y="758" on="1"/>
        <pt x="240" y="720" on="0"/>
        <pt x="240" y="633" on="1"/>
        <pt x="240" y="456" on="1"/>
        <pt x="318" y="456" on="1"/>
        <pt x="411" y="456" on="0"/>
        <pt x="496" y="532" on="0"/>
        <pt x="496" y="607" on="1"/>
        <pt x="496" y="683" on="0"/>
        <pt x="403" y="765" on="0"/>
      </contour>
    </TTGlyph>
    <TTGlyph name="C" xMin="53" yMin="-20" xMax="722" yMax="816">
      <contour>
        <pt x="696" y="148" on="1"/>
        <pt x="713" y="137" on="0"/>
        <pt x="722" y="110" on="1"/>
        <pt x="583" y="-20" on="0"/>
        <pt x="440" y="-20" on="1"/>
        <pt x="342" y="-20" on="0"/>
        <pt x="196" y="51" on="0"/>
        <pt x="100" y="168" on="0"/>
        <pt x="53" y="317" on="0"/>
        <pt x="53" y="395" on="1"/>
        <pt x="53" y="474" on="0"/>
        <pt x="107" y="625" on="0"/>
        <pt x="211" y="744" on="0"/>
        <pt x="364" y="816" on="0"/>
        <pt x="462" y="816" on="1"/>
        <pt x="591" y="816" on="0"/>
        <pt x="702" y="756" on="1"/>
        <pt x="702" y="564" on="1"/>
        <pt x="684" y="561" on="0"/>
        <pt x="670" y="561" on="1"/>
        <pt x="655" y="561" on="0"/>
        <pt x="645" y="564" on="1"/>
        <pt x="613" y="731" on="1"/>
        <pt x="552" y="771" on="0"/>
        <pt x="450" y="771" on="1"/>
        <pt x="387" y="771" on="0"/>
        <pt x="286" y="714" on="0"/>
        <pt x="215" y="617" on="0"/>
        <pt x="177" y="486" on="0"/>
        <pt x="177" y="412" on="1"/>
        <pt x="177" y="333" on="0"/>
        <pt x="214" y="199" on="0"/>
        <pt x="282" y="101" on="0"/>
        <pt x="379" y="46" on="0"/>
        <pt x="439" y="46" on="1"/>
        <pt x="511" y="46" on="0"/>
        <pt x="645" y="102" on="0"/>
      </contour>
    </TTGlyph>
    <TTGlyph name="Ccedilla" xMin="53" yMin="-256" xMax="722" yMax="816">
      <contour>
        <pt x="332" y="-199" on="1"/>
        <pt x="370" y="-207" on="0"/>
        <pt x="394" y="-207" on="1"/>
        <pt x="423" y="-207" on="0"/>
        <pt x="456" y="-178" on="0"/>
        <pt x="456" y="-153" on="1"/>
        <pt x="456" y="-100" on="0"/>
        <pt x="383" y="-95" on="1"/>
        <pt x="398" y="-18" on="1"/>
        <pt x="312" y="-11" on="0"/>
        <pt x="177" y="66" on="0"/>
        <pt x="95" y="183" on="0"/>
        <pt x="53" y="321" on="0"/>
        <pt x="53" y="395" on="1"/>
        <pt x="53" y="473" on="0"/>
        <pt x="107" y="622" on="0"/>
        <pt x="206" y="743" on="0"/>
        <pt x="365" y="816" on="0"/>
        <pt x="462" y="816" on="1"/>
        <pt x="591" y="816" on="0"/>
        <pt x="702" y="756" on="1"/>
        <pt x="702" y="564" on="1"/>
        <pt x="668" y="558" on="0"/>
        <pt x="645" y="564" on="1"/>
        <pt x="613" y="731" on="1"/>
        <pt x="552" y="771" on="0"/>
        <pt x="450" y="771" on="1"/>
        <pt x="325" y="771" on="0"/>
        <pt x="177" y="564" on="0"/>
        <pt x="177" y="412" on="1"/>
        <pt x="177" y="251" on="0"/>
        <pt x="321" y="46" on="0"/>
        <pt x="439" y="46" on="1"/>
        <pt x="510" y="46" on="0"/>
        <pt x="646" y="102" on="0"/>
        <pt x="696" y="148" on="1"/>
        <pt x="713" y="137" on="0"/>
        <pt x="722" y="110" on="1"/>
        <pt x="588" y="-15" on="0"/>
        <pt x="451" y="-20" on="1"/>
        <pt x="446" y="-60" on="1"/>
        <pt x="496" y="-62" on="0"/>
        <pt x="551" y="-112" on="0"/>
        <pt x="551" y="-152" on="1"/>
        <pt x="551" y="-256" on="0"/>
        <pt x="409" y="-256" on="1"/>
        <pt x="385" y="-256" on="0"/>
        <pt x="332" y="-245" on="1"/>
        <pt x="324" y="-224" on="0"/>
      </contour>
    </TTGlyph>
    <TTGlyph name="D" xMin="40" yMin="-4" xMax="779" yMax="809">
      <contour>
        <pt x="46" y="-2" on="1"/>
        <pt x="40" y="16" on="0"/>
        <pt x="46" y="34" on="1"/>
        <pt x="129" y="46" on="1"/>
        <pt x="133" y="84" on="0"/>
        <pt x="133" y="163" on="1"/>
        <pt x="133" y="752" on="1"/>
        <pt x="52" y="762" on="1"/>
        <pt x="48" y="777" on="0"/>
        <pt x="52" y="799" on="1"/>
        <pt x="67" y="798" on="0"/>
        <pt x="99" y="798" on="1"/>
        <pt x="163" y="798" on="0"/>
        <pt x="366" y="809" on="0"/>
        <pt x="381" y="809" on="1"/>
        <pt x="577" y="809" on="0"/>
        <pt x="779" y="597" on="0"/>
        <pt x="779" y="418" on="1"/>
        <pt x="779" y="236" on="0"/>
        <pt x="589" y="-4" on="0"/>
        <pt x="418" y="-4" on="1"/>
        <pt x="361" y="-4" on="0"/>
        <pt x="173" y="-1" on="0"/>
        <pt x="132" y="-1" on="1"/>
        <pt x="74" y="-1" on="0"/>
      </contour>
      <contour>
        <pt x="380" y="44" on="1"/>
        <pt x="662" y="44" on="0"/>
        <pt x="662" y="412" on="1"/>
        <pt x="662" y="571" on="0"/>
        <pt x="515" y="755" on="0"/>
        <pt x="377" y="761" on="1"/>
        <pt x="365" y="762" on="0"/>
        <pt x="340" y="762" on="1"/>
        <pt x="287" y="762" on="0"/>
        <pt x="244" y="754" on="1"/>
        <pt x="240" y="716" on="0"/>
        <pt x="240" y="633" on="1"/>
        <pt x="240" y="47" on="1"/>
        <pt x="252" y="47" on="0"/>
        <pt x="343" y="44" on="0"/>
      </contour>
    </TTGlyph>
    <TTGlyph name="E" xMin="40" yMin="-3" xMax="624" yMax="799">
      <contour>
        <pt x="133" y="162" on="1"/>
        <pt x="133" y="752" on="1"/>
        <pt x="52" y="763" on="1"/>
        <pt x="46" y="781" on="0"/>
        <pt x="52" y="799" on="1"/>
        <pt x="189" y="796" on="1"/>
        <pt x="593" y="796" on="1"/>
        <pt x="594" y="564" on="1"/>
        <pt x="572" y="560" on="0"/>
        <pt x="557" y="564" on="1"/>
        <pt x="510" y="745" on="1"/>
        <pt x="240" y="745" on="1"/>
        <pt x="240" y="445" on="1"/>
        <pt x="400" y="448" on="1"/>
        <pt x="423" y="546" on="1"/>
        <pt x="438" y="550" on="0"/>
        <pt x="460" y="546" on="1"/>
        <pt x="456" y="490" on="0"/>
        <pt x="456" y="417" on="1"/>
        <pt x="456" y="350" on="0"/>
        <pt x="459" y="287" on="1"/>
        <pt x="441" y="281" on="0"/>
        <pt x="423" y="287" on="1"/>
        <pt x="401" y="391" on="1"/>
        <pt x="240" y="394" on="1"/>
        <pt x="240" y="51" on="1"/>
        <pt x="540" y="51" on="1"/>
        <pt x="587" y="232" on="1"/>
        <pt x="602" y="236" on="0"/>
        <pt x="624" y="232" on="1"/>
        <pt x="623" y="0" on="1"/>
        <pt x="189" y="0" on="1"/>
        <pt x="46" y="-3" on="1"/>
        <pt x="40" y="15" on="0"/>
        <pt x="46" y="33" on="1"/>
        <pt x="129" y="44" on="1"/>
        <pt x="133" y="95" on="0"/>
      </contour>
    </TTGlyph>
    <TTGlyph name="Eacute" xMin="40" yMin="-3" xMax="624" yMax="1021">
      <component glyphName="E" x="0" y="0" flags="0x204"/>
      <component glyphName="acute.case" x="267" y="93" flags="0x4"/>
    </TTGlyph>
    <TTGlyph name="Ecircumflex" xMin="40" yMin="-3" xMax="624" yMax="1023">
      <component glyphName="E" x="0" y="0" flags="0x204"/>
      <component glyphName="circumflex.case" x="191" y="93" flags="0x4"/>
    </TTGlyph>
    <TTGlyph name="Edieresis" xMin="40" yMin="-3" xMax="624" yMax="1002">
      <component glyphName="E" x="0" y="0" flags="0x204"/>
      <component glyphName="dieresis.case" x="178" y="93" flags="0x4"/>
    </TTGlyph>
    <TTGlyph name="Egrave" xMin="40" yMin="-3" xMax="624" yMax="1021">
      <component glyphName="E" x="0" y="0" flags="0x204"/>
      <component glyphName="grave.case" x="214" y="93" flags="0x4"/>
    </TTGlyph>
    <TTGlyph name="Eth" xMin="41" yMin="-4" xMax="779" yMax="809">
      <contour>
        <pt x="447" y="437" on="1"/>
        <pt x="453" y="425" on="0"/>
        <pt x="453" y="413" on="1"/>
        <pt x="453" y="400" on="0"/>
        <pt x="447" y="387" on="1"/>
        <pt x="240" y="387" on="1"/>
        <pt x="240" y="47" on="1"/>
        <pt x="244" y="47" on="0"/>
        <pt x="277" y="46" on="0"/>
        <pt x="319" y="45" on="0"/>
        <pt x="364" y="44" on="0"/>
        <pt x="380" y="44" on="1"/>
        <pt x="662" y="44" on="0"/>
        <pt x="662" y="412" on="1"/>
        <pt x="662" y="586" on="0"/>
        <pt x="496" y="762" on="0"/>
        <pt x="340" y="762" on="1"/>
        <pt x="290" y="762" on="0"/>
        <pt x="244" y="754" on="1"/>
        <pt x="242" y="735" on="0"/>
        <pt x="240" y="675" on="0"/>
        <pt x="240" y="633" on="1"/>
        <pt x="240" y="437" on="1"/>
      </contour>
      <contour>
        <pt x="46" y="-2" on="1"/>
        <pt x="43" y="7" on="0"/>
        <pt x="43" y="16" on="1"/>
        <pt x="43" y="25" on="0"/>
        <pt x="46" y="34" on="1"/>
        <pt x="129" y="46" on="1"/>
        <pt x="131" y="65" on="0"/>
        <pt x="133" y="123" on="0"/>
        <pt x="133" y="163" on="1"/>
        <pt x="133" y="387" on="1"/>
        <pt x="46" y="387" on="1"/>
        <pt x="41" y="398" on="0"/>
        <pt x="41" y="413" on="1"/>
        <pt x="41" y="427" on="0"/>
        <pt x="46" y="437" on="1"/>
        <pt x="133" y="437" on="1"/>
        <pt x="133" y="752" on="1"/>
        <pt x="52" y="762" on="1"/>
        <pt x="50" y="767" on="0"/>
        <pt x="50" y="778" on="1"/>
        <pt x="50" y="783" on="0"/>
        <pt x="50" y="793" on="0"/>
        <pt x="52" y="799" on="1"/>
        <pt x="60" y="798" on="0"/>
        <pt x="83" y="798" on="0"/>
        <pt x="99" y="798" on="1"/>
        <pt x="117" y="798" on="0"/>
        <pt x="172" y="800" on="0"/>
        <pt x="234" y="802" on="0"/>
        <pt x="296" y="805" on="0"/>
        <pt x="347" y="807" on="0"/>
        <pt x="380" y="809" on="0"/>
        <pt x="381" y="809" on="1"/>
        <pt x="480" y="809" on="0"/>
        <pt x="629" y="753" on="0"/>
        <pt x="729" y="651" on="0"/>
        <pt x="779" y="506" on="0"/>
        <pt x="779" y="418" on="1"/>
        <pt x="779" y="329" on="0"/>
        <pt x="731" y="175" on="0"/>
        <pt x="639" y="61" on="0"/>
        <pt x="504" y="-4" on="0"/>
        <pt x="418" y="-4" on="1"/>
        <pt x="394" y="-4" on="0"/>
        <pt x="310" y="-3" on="0"/>
        <pt x="223" y="-2" on="0"/>
        <pt x="148" y="-1" on="0"/>
        <pt x="132" y="-1" on="1"/>
        <pt x="103" y="-1" on="0"/>
        <pt x="60" y="-1" on="0"/>
      </contour>
    </TTGlyph>
    <TTGlyph name="Euro" xMin="14" yMin="-20" xMax="649" yMax="813">
      <contour>
        <pt x="29" y="467" on="1"/>
        <pt x="85" y="467" on="1"/>
        <pt x="95" y="542" on="0"/>
        <pt x="158" y="668" on="0"/>
        <pt x="252" y="761" on="0"/>
        <pt x="374" y="813" on="0"/>
        <pt x="444" y="813" on="1"/>
        <pt x="544" y="813" on="0"/>
        <pt x="649" y="766" on="1"/>
        <pt x="579" y="574" on="1"/>
        <pt x="572" y="573" on="0"/>
        <pt x="556" y="572" on="0"/>
        <pt x="547" y="572" on="1"/>
        <pt x="539" y="572" on="0"/>
        <pt x="527" y="573" on="0"/>
        <pt x="522" y="574" on="1"/>
        <pt x="560" y="741" on="1"/>
        <pt x="497" y="766" on="0"/>
        <pt x="431" y="766" on="1"/>
        <pt x="383" y="766" on="0"/>
        <pt x="305" y="724" on="0"/>
        <pt x="247" y="646" on="0"/>
        <pt x="211" y="535" on="0"/>
        <pt x="206" y="467" on="1"/>
        <pt x="450" y="467" on="1"/>
        <pt x="450" y="460" on="1"/>
        <pt x="450" y="439" on="0"/>
        <pt x="436" y="417" on="1"/>
        <pt x="204" y="417" on="1"/>
        <pt x="204" y="412" on="1"/>
        <pt x="204" y="393" on="0"/>
        <pt x="204" y="365" on="0"/>
        <pt x="205" y="357" on="1"/>
        <pt x="420" y="357" on="1"/>
        <pt x="420" y="354" on="0"/>
        <pt x="421" y="348" on="0"/>
        <pt x="421" y="345" on="1"/>
        <pt x="421" y="322" on="0"/>
        <pt x="406" y="307" on="1"/>
        <pt x="209" y="307" on="1"/>
        <pt x="224" y="178" on="0"/>
        <pt x="327" y="46" on="0"/>
        <pt x="406" y="46" on="1"/>
        <pt x="511" y="46" on="0"/>
        <pt x="582" y="107" on="1"/>
        <pt x="605" y="98" on="0"/>
        <pt x="608" y="69" on="1"/>
        <pt x="565" y="20" on="0"/>
        <pt x="468" y="-20" on="0"/>
        <pt x="399" y="-20" on="1"/>
        <pt x="328" y="-20" on="0"/>
        <pt x="219" y="27" on="0"/>
        <pt x="141" y="113" on="0"/>
        <pt x="94" y="233" on="0"/>
        <pt x="85" y="307" on="1"/>
        <pt x="15" y="307" on="1"/>
        <pt x="14" y="311" on="0"/>
        <pt x="14" y="318" on="1"/>
        <pt x="14" y="339" on="0"/>
        <pt x="29" y="357" on="1"/>
        <pt x="80" y="357" on="1"/>
        <pt x="80" y="417" on="1"/>
        <pt x="15" y="417" on="1"/>
        <pt x="14" y="420" on="0"/>
        <pt x="14" y="427" on="1"/>
        <pt x="14" y="447" on="0"/>
      </contour>
    </TTGlyph>
    <TTGlyph name="F" xMin="40" yMin="-3" xMax="594" yMax="799">
      <contour>
        <pt x="133" y="163" on="1"/>
        <pt x="133" y="752" on="1"/>
        <pt x="52" y="763" on="1"/>
        <pt x="46" y="781" on="0"/>
        <pt x="52" y="799" on="1"/>
        <pt x="189" y="796" on="1"/>
        <pt x="593" y="796" on="1"/>
        <pt x="594" y="564" on="1"/>
        <pt x="572" y="560" on="0"/>
        <pt x="557" y="564" on="1"/>
        <pt x="510" y="745" on="1"/>
        <pt x="240" y="745" on="1"/>
        <pt x="240" y="450" on="1"/>
        <pt x="400" y="453" on="1"/>
        <pt x="423" y="551" on="1"/>
        <pt x="438" y="555" on="0"/>
        <pt x="460" y="551" on="1"/>
        <pt x="456" y="495" on="0"/>
        <pt x="456" y="422" on="1"/>
        <pt x="456" y="355" on="0"/>
        <pt x="459" y="292" on="1"/>
        <pt x="441" y="286" on="0"/>
        <pt x="423" y="292" on="1"/>
        <pt x="401" y="396" on="1"/>
        <pt x="240" y="399" on="1"/>
        <pt x="240" y="44" on="1"/>
        <pt x="331" y="34" on="1"/>
        <pt x="335" y="19" on="0"/>
        <pt x="331" y="-3" on="1"/>
        <pt x="268" y="0" on="0"/>
        <pt x="189" y="0" on="1"/>
        <pt x="130" y="0" on="0"/>
        <pt x="46" y="-2" on="1"/>
        <pt x="40" y="16" on="0"/>
        <pt x="46" y="34" on="1"/>
        <pt x="129" y="46" on="1"/>
        <pt x="133" y="84" on="0"/>
      </contour>
    </TTGlyph>
    <TTGlyph name="G" xMin="52" yMin="-20" xMax="826" yMax="816">
      <contour>
        <pt x="689" y="-18" on="1"/>
        <pt x="663" y="64" on="1"/>
        <pt x="547" y="-20" on="0"/>
        <pt x="439" y="-20" on="1"/>
        <pt x="341" y="-20" on="0"/>
        <pt x="195" y="51" on="0"/>
        <pt x="99" y="168" on="0"/>
        <pt x="52" y="317" on="0"/>
        <pt x="52" y="395" on="1"/>
        <pt x="52" y="474" on="0"/>
        <pt x="107" y="625" on="0"/>
        <pt x="214" y="743" on="0"/>
        <pt x="368" y="816" on="0"/>
        <pt x="467" y="816" on="1"/>
        <pt x="605" y="816" on="0"/>
        <pt x="721" y="756" on="1"/>
        <pt x="721" y="564" on="1"/>
        <pt x="703" y="561" on="0"/>
        <pt x="689" y="561" on="1"/>
        <pt x="674" y="561" on="0"/>
        <pt x="664" y="564" on="1"/>
        <pt x="632" y="731" on="1"/>
        <pt x="568" y="771" on="0"/>
        <pt x="455" y="771" on="1"/>
        <pt x="392" y="771" on="0"/>
        <pt x="290" y="714" on="0"/>
        <pt x="216" y="617" on="0"/>
        <pt x="176" y="486" on="0"/>
        <pt x="176" y="412" on="1"/>
        <pt x="176" y="333" on="0"/>
        <pt x="213" y="199" on="0"/>
        <pt x="281" y="101" on="0"/>
        <pt x="378" y="46" on="0"/>
        <pt x="438" y="46" on="1"/>
        <pt x="535" y="46" on="0"/>
        <pt x="629" y="99" on="1"/>
        <pt x="629" y="312" on="1"/>
        <pt x="548" y="322" on="1"/>
        <pt x="546" y="327" on="0"/>
        <pt x="546" y="338" on="1"/>
        <pt x="546" y="343" on="0"/>
        <pt x="546" y="353" on="0"/>
        <pt x="548" y="359" on="1"/>
        <pt x="576" y="357" on="0"/>
        <pt x="643" y="355" on="0"/>
        <pt x="685" y="355" on="1"/>
        <pt x="758" y="355" on="0"/>
        <pt x="823" y="358" on="1"/>
        <pt x="826" y="349" on="0"/>
        <pt x="826" y="340" on="1"/>
        <pt x="826" y="331" on="0"/>
        <pt x="823" y="322" on="1"/>
        <pt x="740" y="310" on="1"/>
        <pt x="738" y="291" on="0"/>
        <pt x="736" y="233" on="0"/>
        <pt x="736" y="193" on="1"/>
        <pt x="736" y="92" on="1"/>
        <pt x="726" y="-18" on="1"/>
        <pt x="722" y="-20" on="0"/>
        <pt x="714" y="-20" on="0"/>
        <pt x="709" y="-20" on="1"/>
        <pt x="704" y="-20" on="0"/>
        <pt x="694" y="-20" on="0"/>
      </contour>
    </TTGlyph>
    <TTGlyph name="H" xMin="40" yMin="-3" xMax="834" yMax="799">
      <contour>
        <pt x="634" y="437" on="1"/>
        <pt x="634" y="752" on="1"/>
        <pt x="553" y="762" on="1"/>
        <pt x="549" y="777" on="0"/>
        <pt x="553" y="799" on="1"/>
        <pt x="608" y="795" on="0"/>
        <pt x="690" y="795" on="1"/>
        <pt x="764" y="795" on="0"/>
        <pt x="828" y="798" on="1"/>
        <pt x="834" y="780" on="0"/>
        <pt x="828" y="762" on="1"/>
        <pt x="745" y="750" on="1"/>
        <pt x="741" y="712" on="0"/>
        <pt x="741" y="633" on="1"/>
        <pt x="741" y="44" on="1"/>
        <pt x="822" y="34" on="1"/>
        <pt x="826" y="19" on="0"/>
        <pt x="822" y="-3" on="1"/>
        <pt x="759" y="0" on="0"/>
        <pt x="685" y="0" on="1"/>
        <pt x="631" y="0" on="0"/>
        <pt x="547" y="-2" on="1"/>
        <pt x="541" y="16" on="0"/>
        <pt x="547" y="34" on="1"/>
        <pt x="630" y="46" on="1"/>
        <pt x="634" y="84" on="0"/>
        <pt x="634" y="163" on="1"/>
        <pt x="634" y="387" on="1"/>
        <pt x="240" y="387" on="1"/>
        <pt x="240" y="44" on="1"/>
        <pt x="321" y="34" on="1"/>
        <pt x="325" y="19" on="0"/>
        <pt x="321" y="-3" on="1"/>
        <pt x="258" y="0" on="0"/>
        <pt x="184" y="0" on="1"/>
        <pt x="130" y="0" on="0"/>
        <pt x="46" y="-2" on="1"/>
        <pt x="40" y="16" on="0"/>
        <pt x="46" y="34" on="1"/>
        <pt x="129" y="46" on="1"/>
        <pt x="133" y="84" on="0"/>
        <pt x="133" y="163" on="1"/>
        <pt x="133" y="752" on="1"/>
        <pt x="52" y="762" on="1"/>
        <pt x="48" y="777" on="0"/>
        <pt x="52" y="799" on="1"/>
        <pt x="107" y="795" on="0"/>
        <pt x="189" y="795" on="1"/>
        <pt x="262" y="795" on="0"/>
        <pt x="327" y="798" on="1"/>
        <pt x="333" y="780" on="0"/>
        <pt x="327" y="762" on="1"/>
        <pt x="244" y="750" on="1"/>
        <pt x="240" y="712" on="0"/>
        <pt x="240" y="633" on="1"/>
        <pt x="240" y="437" on="1"/>
      </contour>
    </TTGlyph>
    <TTGlyph name="I" xMin="40" yMin="-3" xMax="333" yMax="799">
      <contour>
        <pt x="240" y="633" on="1"/>
        <pt x="240" y="44" on="1"/>
        <pt x="321" y="34" on="1"/>
        <pt x="325" y="19" on="0"/>
        <pt x="321" y="-3" on="1"/>
        <pt x="258" y="0" on="0"/>
        <pt x="184" y="0" on="1"/>
        <pt x="130" y="0" on="0"/>
        <pt x="46" y="-2" on="1"/>
        <pt x="40" y="16" on="0"/>
        <pt x="46" y="34" on="1"/>
        <pt x="129" y="46" on="1"/>
        <pt x="133" y="84" on="0"/>
        <pt x="133" y="163" on="1"/>
        <pt x="133" y="752" on="1"/>
        <pt x="52" y="762" on="1"/>
        <pt x="48" y="777" on="0"/>
        <pt x="52" y="799" on="1"/>
        <pt x="107" y="795" on="0"/>
        <pt x="189" y="795" on="1"/>
        <pt x="262" y="795" on="0"/>
        <pt x="327" y="798" on="1"/>
        <pt x="333" y="780" on="0"/>
        <pt x="327" y="762" on="1"/>
        <pt x="244" y="750" on="1"/>
        <pt x="240" y="712" on="0"/>
      </contour>
    </TTGlyph>
    <TTGlyph name="Iacute" xMin="40" yMin="-3" xMax="353" yMax="1022">
      <component glyphName="I" x="0" y="0" flags="0x204"/>
      <component glyphName="acute.case" x="108" y="94" flags="0x4"/>
    </TTGlyph>
    <TTGlyph name="Icircumflex" xMin="31" yMin="-3" xMax="356" yMax="1024">
      <component glyphName="I" x="0" y="0" flags="0x204"/>
      <component glyphName="circumflex.case" x="12" y="94" flags="0x4"/>
    </TTGlyph>
    <TTGlyph name="Idieresis" xMin="17" yMin="-3" xMax="356" yMax="1003">
      <component glyphName="I" x="0" y="0" flags="0x204"/>
      <component glyphName="dieresis.case" x="0" y="94" flags="0x4"/>
    </TTGlyph>
    <TTGlyph name="Igrave" xMin="19" yMin="-3" xMax="333" yMax="1022">
      <component glyphName="I" x="0" y="0" flags="0x204"/>
      <component glyphName="grave.case" x="35" y="94" flags="0x4"/>
    </TTGlyph>
    <TTGlyph name="J" xMin="-91" yMin="-199" xMax="328" yMax="799">
      <contour>
        <pt x="235" y="633" on="1"/>
        <pt x="235" y="108" on="1"/>
        <pt x="235" y="-31" on="0"/>
        <pt x="125" y="-199" on="0"/>
        <pt x="43" y="-199" on="1"/>
        <pt x="-27" y="-199" on="0"/>
        <pt x="-90" y="-146" on="0"/>
        <pt x="-91" y="-83" on="1"/>
        <pt x="-84" y="-56" on="0"/>
        <pt x="-37" y="-56" on="1"/>
        <pt x="-15" y="-56" on="0"/>
        <pt x="12" y="-62" on="1"/>
        <pt x="17" y="-120" on="0"/>
        <pt x="32" y="-158" on="0"/>
        <pt x="52" y="-158" on="1"/>
        <pt x="96" y="-158" on="0"/>
        <pt x="128" y="-43" on="0"/>
        <pt x="128" y="80" on="1"/>
        <pt x="128" y="752" on="1"/>
        <pt x="37" y="762" on="1"/>
        <pt x="33" y="777" on="0"/>
        <pt x="37" y="799" on="1"/>
        <pt x="92" y="796" on="0"/>
        <pt x="161" y="796" on="1"/>
        <pt x="250" y="796" on="0"/>
        <pt x="322" y="799" on="1"/>
        <pt x="328" y="781" on="0"/>
        <pt x="322" y="763" on="1"/>
        <pt x="239" y="750" on="1"/>
        <pt x="235" y="712" on="0"/>
      </contour>
    </TTGlyph>
    <TTGlyph name="K" xMin="40" yMin="-3" xMax="763" yMax="799">
      <contour>
        <pt x="366" y="453" on="1"/>
        <pt x="597" y="147" on="1"/>
        <pt x="640" y="86" on="0"/>
        <pt x="681" y="45" on="1"/>
        <pt x="759" y="37" on="1"/>
        <pt x="763" y="20" on="0"/>
        <pt x="760" y="0" on="1"/>
        <pt x="610" y="3" on="0"/>
        <pt x="574" y="3" on="1"/>
        <pt x="500" y="3" on="0"/>
        <pt x="455" y="-1" on="1"/>
        <pt x="449" y="16" on="0"/>
        <pt x="454" y="35" on="1"/>
        <pt x="536" y="49" on="1"/>
        <pt x="527" y="68" on="0"/>
        <pt x="465" y="155" on="1"/>
        <pt x="297" y="386" on="1"/>
        <pt x="240" y="386" on="1"/>
        <pt x="240" y="44" on="1"/>
        <pt x="321" y="34" on="1"/>
        <pt x="325" y="19" on="0"/>
        <pt x="321" y="-3" on="1"/>
        <pt x="258" y="0" on="0"/>
        <pt x="184" y="0" on="1"/>
        <pt x="130" y="0" on="0"/>
        <pt x="46" y="-2" on="1"/>
        <pt x="40" y="16" on="0"/>
        <pt x="46" y="34" on="1"/>
        <pt x="129" y="46" on="1"/>
        <pt x="133" y="84" on="0"/>
        <pt x="133" y="163" on="1"/>
        <pt x="133" y="752" on="1"/>
        <pt x="52" y="762" on="1"/>
        <pt x="48" y="777" on="0"/>
        <pt x="52" y="799" on="1"/>
        <pt x="107" y="795" on="0"/>
        <pt x="189" y="795" on="1"/>
        <pt x="262" y="795" on="0"/>
        <pt x="327" y="798" on="1"/>
        <pt x="333" y="780" on="0"/>
        <pt x="327" y="762" on="1"/>
        <pt x="244" y="750" on="1"/>
        <pt x="240" y="712" on="0"/>
        <pt x="240" y="633" on="1"/>
        <pt x="240" y="437" on="1"/>
        <pt x="293" y="437" on="1"/>
        <pt x="546" y="752" on="1"/>
        <pt x="465" y="762" on="1"/>
        <pt x="461" y="777" on="0"/>
        <pt x="465" y="799" on="1"/>
        <pt x="520" y="795" on="0"/>
        <pt x="580" y="795" on="1"/>
        <pt x="632" y="795" on="0"/>
        <pt x="696" y="798" on="1"/>
        <pt x="702" y="780" on="0"/>
        <pt x="696" y="762" on="1"/>
        <pt x="629" y="750" on="1"/>
        <pt x="583" y="714" on="0"/>
        <pt x="538" y="661" on="1"/>
      </contour>
    </TTGlyph>
    <TTGlyph name="L" xMin="40" yMin="-3" xMax="654" yMax="799">
      <contour>
        <pt x="189" y="0" on="1"/>
        <pt x="46" y="-3" on="1"/>
        <pt x="40" y="15" on="0"/>
        <pt x="46" y="33" on="1"/>
        <pt x="129" y="44" on="1"/>
        <pt x="133" y="95" on="0"/>
        <pt x="133" y="162" on="1"/>
        <pt x="133" y="752" on="1"/>
        <pt x="52" y="762" on="1"/>
        <pt x="48" y="777" on="0"/>
        <pt x="52" y="799" on="1"/>
        <pt x="107" y="795" on="0"/>
        <pt x="189" y="795" on="1"/>
        <pt x="262" y="795" on="0"/>
        <pt x="327" y="798" on="1"/>
        <pt x="333" y="780" on="0"/>
        <pt x="327" y="762" on="1"/>
        <pt x="244" y="750" on="1"/>
        <pt x="240" y="712" on="0"/>
        <pt x="240" y="633" on="1"/>
        <pt x="240" y="51" on="1"/>
        <pt x="570" y="51" on="1"/>
        <pt x="617" y="232" on="1"/>
        <pt x="632" y="236" on="0"/>
        <pt x="654" y="232" on="1"/>
        <pt x="653" y="0" on="1"/>
      </contour>
    </TTGlyph>
    <TTGlyph name="M" xMin="39" yMin="-30" xMax="1008" yMax="798">
      <contour>
        <pt x="808" y="163" on="1"/>
        <pt x="808" y="738" on="1"/>
        <pt x="506" y="-30" on="1"/>
        <pt x="480" y="-30" on="1"/>
        <pt x="189" y="713" on="1"/>
        <pt x="189" y="163" on="1"/>
        <pt x="189" y="84" on="0"/>
        <pt x="193" y="46" on="1"/>
        <pt x="286" y="34" on="1"/>
        <pt x="292" y="16" on="0"/>
        <pt x="286" y="-2" on="1"/>
        <pt x="200" y="0" on="0"/>
        <pt x="164" y="0" on="1"/>
        <pt x="104" y="0" on="0"/>
        <pt x="43" y="-3" on="1"/>
        <pt x="39" y="19" on="0"/>
        <pt x="43" y="34" on="1"/>
        <pt x="134" y="44" on="1"/>
        <pt x="134" y="633" on="1"/>
        <pt x="134" y="712" on="0"/>
        <pt x="130" y="750" on="1"/>
        <pt x="47" y="762" on="1"/>
        <pt x="41" y="779" on="0"/>
        <pt x="47" y="796" on="1"/>
        <pt x="267" y="796" on="1"/>
        <pt x="518" y="138" on="1"/>
        <pt x="775" y="796" on="1"/>
        <pt x="798" y="795" on="0"/>
        <pt x="845" y="795" on="1"/>
        <pt x="855" y="795" on="0"/>
        <pt x="1002" y="798" on="1"/>
        <pt x="1008" y="780" on="0"/>
        <pt x="1002" y="762" on="1"/>
        <pt x="919" y="750" on="1"/>
        <pt x="915" y="712" on="0"/>
        <pt x="915" y="633" on="1"/>
        <pt x="915" y="44" on="1"/>
        <pt x="996" y="34" on="1"/>
        <pt x="1000" y="19" on="0"/>
        <pt x="996" y="-3" on="1"/>
        <pt x="933" y="0" on="0"/>
        <pt x="859" y="0" on="1"/>
        <pt x="805" y="0" on="0"/>
        <pt x="721" y="-2" on="1"/>
        <pt x="715" y="23" on="0"/>
        <pt x="721" y="34" on="1"/>
        <pt x="804" y="46" on="1"/>
        <pt x="808" y="84" on="0"/>
      </contour>
    </TTGlyph>
    <TTGlyph name="N" xMin="40" yMin="-3" xMax="847" yMax="796">
      <contour>
        <pt x="697" y="268" on="1"/>
        <pt x="697" y="630" on="1"/>
        <pt x="697" y="709" on="0"/>
        <pt x="693" y="747" on="1"/>
        <pt x="600" y="759" on="1"/>
        <pt x="594" y="777" on="0"/>
        <pt x="600" y="795" on="1"/>
        <pt x="663" y="792" on="0"/>
        <pt x="722" y="792" on="1"/>
        <pt x="787" y="792" on="0"/>
        <pt x="843" y="796" on="1"/>
        <pt x="847" y="774" on="0"/>
        <pt x="843" y="759" on="1"/>
        <pt x="752" y="749" on="1"/>
        <pt x="752" y="0" on="1"/>
        <pt x="699" y="0" on="1"/>
        <pt x="258" y="597" on="1"/>
        <pt x="227" y="638" on="0"/>
        <pt x="185" y="704" on="1"/>
        <pt x="190" y="658" on="0"/>
        <pt x="190" y="593" on="1"/>
        <pt x="190" y="163" on="1"/>
        <pt x="190" y="84" on="0"/>
        <pt x="194" y="46" on="1"/>
        <pt x="287" y="34" on="1"/>
        <pt x="293" y="16" on="0"/>
        <pt x="287" y="-2" on="1"/>
        <pt x="201" y="0" on="0"/>
        <pt x="165" y="0" on="1"/>
        <pt x="106" y="0" on="0"/>
        <pt x="44" y="-3" on="1"/>
        <pt x="40" y="19" on="0"/>
        <pt x="44" y="34" on="1"/>
        <pt x="135" y="44" on="1"/>
        <pt x="135" y="633" on="1"/>
        <pt x="135" y="712" on="0"/>
        <pt x="131" y="750" on="1"/>
        <pt x="48" y="762" on="1"/>
        <pt x="42" y="779" on="0"/>
        <pt x="48" y="796" on="1"/>
        <pt x="244" y="796" on="1"/>
        <pt x="645" y="250" on="1"/>
        <pt x="653" y="239" on="0"/>
        <pt x="672" y="209" on="0"/>
        <pt x="695" y="167" on="0"/>
        <pt x="702" y="156" on="1"/>
        <pt x="697" y="216" on="0"/>
      </contour>
    </TTGlyph>
    <TTGlyph name="Ntilde" xMin="40" yMin="-3" xMax="847" yMax="992">
      <component glyphName="N" x="0" y="0" flags="0x204"/>
      <component glyphName="tilde.case" x="262" y="93" flags="0x4"/>
    </TTGlyph>
    <TTGlyph name="O" xMin="52" yMin="-20" xMax="853" yMax="816">
      <contour>
        <pt x="452" y="816" on="1"/>
        <pt x="550" y="816" on="0"/>
        <pt x="706" y="746" on="0"/>
        <pt x="802" y="629" on="0"/>
        <pt x="853" y="486" on="0"/>
        <pt x="853" y="408" on="1"/>
        <pt x="853" y="228" on="0"/>
        <pt x="627" y="-20" on="0"/>
        <pt x="452" y="-20" on="1"/>
        <pt x="355" y="-20" on="0"/>
        <pt x="199" y="50" on="0"/>
        <pt x="103" y="167" on="0"/>
        <pt x="52" y="309" on="0"/>
        <pt x="52" y="386" on="1"/>
        <pt x="52" y="501" on="0"/>
        <pt x="153" y="697" on="0"/>
        <pt x="338" y="816" on="0"/>
      </contour>
      <contour>
        <pt x="451" y="35" on="1"/>
        <pt x="545" y="35" on="0"/>
        <pt x="676" y="144" on="0"/>
        <pt x="733" y="310" on="0"/>
        <pt x="733" y="412" on="1"/>
        <pt x="733" y="509" on="0"/>
        <pt x="676" y="662" on="0"/>
        <pt x="546" y="761" on="0"/>
        <pt x="451" y="761" on="1"/>
        <pt x="314" y="761" on="0"/>
        <pt x="172" y="561" on="0"/>
        <pt x="172" y="411" on="1"/>
        <pt x="172" y="308" on="0"/>
        <pt x="228" y="143" on="0"/>
        <pt x="358" y="35" on="0"/>
      </contour>
    </TTGlyph>
    <TTGlyph name="OE" xMin="52" yMin="-20" xMax="1227" yMax="816">
      <contour>
        <pt x="452" y="816" on="1"/>
        <pt x="637" y="816" on="0"/>
        <pt x="746" y="683" on="1"/>
        <pt x="746" y="796" on="1"/>
        <pt x="1196" y="796" on="1"/>
        <pt x="1197" y="564" on="1"/>
        <pt x="1175" y="560" on="0"/>
        <pt x="1160" y="564" on="1"/>
        <pt x="1113" y="745" on="1"/>
        <pt x="843" y="745" on="1"/>
        <pt x="843" y="445" on="1"/>
        <pt x="1003" y="448" on="1"/>
        <pt x="1026" y="546" on="1"/>
        <pt x="1041" y="550" on="0"/>
        <pt x="1063" y="546" on="1"/>
        <pt x="1059" y="490" on="0"/>
        <pt x="1059" y="417" on="1"/>
        <pt x="1059" y="350" on="0"/>
        <pt x="1062" y="287" on="1"/>
        <pt x="1044" y="281" on="0"/>
        <pt x="1026" y="287" on="1"/>
        <pt x="1004" y="391" on="1"/>
        <pt x="843" y="394" on="1"/>
        <pt x="843" y="51" on="1"/>
        <pt x="1143" y="51" on="1"/>
        <pt x="1190" y="232" on="1"/>
        <pt x="1205" y="236" on="0"/>
        <pt x="1227" y="232" on="1"/>
        <pt x="1226" y="0" on="1"/>
        <pt x="746" y="0" on="1"/>
        <pt x="746" y="124" on="1"/>
        <pt x="631" y="-20" on="0"/>
        <pt x="452" y="-20" on="1"/>
        <pt x="355" y="-20" on="0"/>
        <pt x="199" y="50" on="0"/>
        <pt x="103" y="167" on="0"/>
        <pt x="52" y="309" on="0"/>
        <pt x="52" y="386" on="1"/>
        <pt x="52" y="501" on="0"/>
        <pt x="153" y="697" on="0"/>
        <pt x="338" y="816" on="0"/>
      </contour>
      <contour>
        <pt x="451" y="35" on="1"/>
        <pt x="525" y="35" on="0"/>
        <pt x="641" y="97" on="0"/>
        <pt x="711" y="204" on="0"/>
        <pt x="746" y="336" on="0"/>
        <pt x="746" y="412" on="1"/>
        <pt x="746" y="484" on="0"/>
        <pt x="711" y="607" on="0"/>
        <pt x="641" y="705" on="0"/>
        <pt x="526" y="761" on="0"/>
        <pt x="451" y="761" on="1"/>
        <pt x="314" y="761" on="0"/>
        <pt x="172" y="561" on="0"/>
        <pt x="172" y="411" on="1"/>
        <pt x="172" y="308" on="0"/>
        <pt x="228" y="143" on="0"/>
        <pt x="358" y="35" on="0"/>
      </contour>
    </TTGlyph>
    <TTGlyph name="Oacute" xMin="52" yMin="-20" xMax="853" yMax="1021">
      <component glyphName="O" x="0" y="0" flags="0x204"/>
      <component glyphName="acute.case" x="365" y="93" flags="0x4"/>
    </TTGlyph>
    <TTGlyph name="Ocircumflex" xMin="52" yMin="-20" xMax="853" yMax="1023">
      <component glyphName="O" x="0" y="0" flags="0x204"/>
      <component glyphName="circumflex.case" x="279" y="93" flags="0x4"/>
    </TTGlyph>
    <TTGlyph name="Odieresis" xMin="52" yMin="-20" xMax="853" yMax="1002">
      <component glyphName="O" x="0" y="0" flags="0x204"/>
      <component glyphName="dieresis.case" x="266" y="93" flags="0x4"/>
    </TTGlyph>
    <TTGlyph name="Ograve" xMin="52" yMin="-20" xMax="853" yMax="1021">
      <component glyphName="O" x="0" y="0" flags="0x204"/>
      <component glyphName="grave.case" x="312" y="93" flags="0x4"/>
    </TTGlyph>
    <TTGlyph name="Oslash" xMin="52" yMin="-87" xMax="853" yMax="886">
      <contour>
        <pt x="746" y="881" on="1"/>
        <pt x="763" y="886" on="0"/>
        <pt x="773" y="886" on="1"/>
        <pt x="783" y="886" on="0"/>
        <pt x="801" y="881" on="1"/>
        <pt x="704" y="734" on="1"/>
        <pt x="777" y="677" on="0"/>
        <pt x="853" y="504" on="0"/>
        <pt x="853" y="408" on="1"/>
        <pt x="853" y="319" on="0"/>
        <pt x="793" y="163" on="0"/>
        <pt x="687" y="47" on="0"/>
        <pt x="540" y="-20" on="0"/>
        <pt x="452" y="-20" on="1"/>
        <pt x="334" y="-20" on="0"/>
        <pt x="243" y="32" on="1"/>
        <pt x="167" y="-84" on="1"/>
        <pt x="152" y="-87" on="0"/>
        <pt x="139" y="-87" on="1"/>
        <pt x="124" y="-87" on="0"/>
        <pt x="112" y="-84" on="1"/>
        <pt x="205" y="57" on="1"/>
        <pt x="127" y="117" on="0"/>
        <pt x="52" y="295" on="0"/>
        <pt x="52" y="395" on="1"/>
        <pt x="52" y="480" on="0"/>
        <pt x="113" y="633" on="0"/>
        <pt x="221" y="748" on="0"/>
        <pt x="367" y="816" on="0"/>
        <pt x="452" y="816" on="1"/>
        <pt x="572" y="816" on="0"/>
        <pt x="667" y="760" on="1"/>
      </contour>
      <contour>
        <pt x="172" y="411" on="1"/>
        <pt x="172" y="232" on="0"/>
        <pt x="252" y="129" on="1"/>
        <pt x="627" y="699" on="1"/>
        <pt x="557" y="761" on="0"/>
        <pt x="451" y="761" on="1"/>
        <pt x="314" y="761" on="0"/>
        <pt x="172" y="561" on="0"/>
      </contour>
      <contour>
        <pt x="451" y="35" on="1"/>
        <pt x="545" y="35" on="0"/>
        <pt x="676" y="144" on="0"/>
        <pt x="733" y="310" on="0"/>
        <pt x="733" y="412" on="1"/>
        <pt x="733" y="569" on="0"/>
        <pt x="659" y="665" on="1"/>
        <pt x="284" y="95" on="1"/>
        <pt x="352" y="35" on="0"/>
      </contour>
    </TTGlyph>
    <TTGlyph name="Otilde" xMin="52" yMin="-20" xMax="853" yMax="992">
      <component glyphName="O" x="0" y="0" flags="0x204"/>
      <component glyphName="tilde.case" x="268" y="93" flags="0x4"/>
    </TTGlyph>
    <TTGlyph name="P" xMin="40" yMin="-3" xMax="632" yMax="807">
      <contour>
        <pt x="52" y="799" on="1"/>
        <pt x="93" y="799" on="0"/>
        <pt x="272" y="807" on="0"/>
        <pt x="345" y="807" on="1"/>
        <pt x="500" y="807" on="0"/>
        <pt x="632" y="686" on="0"/>
        <pt x="632" y="578" on="1"/>
        <pt x="632" y="482" on="0"/>
        <pt x="461" y="352" on="0"/>
        <pt x="343" y="352" on="1"/>
        <pt x="282" y="352" on="0"/>
        <pt x="240" y="358" on="1"/>
        <pt x="240" y="44" on="1"/>
        <pt x="331" y="34" on="1"/>
        <pt x="335" y="19" on="0"/>
        <pt x="331" y="-3" on="1"/>
        <pt x="268" y="0" on="0"/>
        <pt x="189" y="0" on="1"/>
        <pt x="130" y="0" on="0"/>
        <pt x="46" y="-2" on="1"/>
        <pt x="40" y="16" on="0"/>
        <pt x="46" y="34" on="1"/>
        <pt x="129" y="46" on="1"/>
        <pt x="133" y="84" on="0"/>
        <pt x="133" y="163" on="1"/>
        <pt x="133" y="752" on="1"/>
        <pt x="52" y="762" on="1"/>
        <pt x="48" y="777" on="0"/>
      </contour>
      <contour>
        <pt x="240" y="633" on="1"/>
        <pt x="240" y="399" on="1"/>
        <pt x="271" y="395" on="0"/>
        <pt x="330" y="395" on="1"/>
        <pt x="382" y="395" on="0"/>
        <pt x="457" y="430" on="0"/>
        <pt x="495" y="489" on="0"/>
        <pt x="511" y="549" on="0"/>
        <pt x="511" y="583" on="1"/>
        <pt x="511" y="670" on="0"/>
        <pt x="423" y="765" on="0"/>
        <pt x="320" y="765" on="1"/>
        <pt x="283" y="765" on="0"/>
        <pt x="246" y="758" on="1"/>
        <pt x="240" y="701" on="0"/>
      </contour>
    </TTGlyph>
    <TTGlyph name="Q" xMin="52" yMin="-235" xMax="863" yMax="816">
      <contour>
        <pt x="189" y="-117" on="1"/>
        <pt x="210" y="-88" on="0"/>
        <pt x="269" y="-50" on="0"/>
        <pt x="355" y="-10" on="1"/>
        <pt x="210" y="20" on="0"/>
        <pt x="52" y="246" on="0"/>
        <pt x="52" y="386" on="1"/>
        <pt x="52" y="501" on="0"/>
        <pt x="153" y="697" on="0"/>
        <pt x="338" y="816" on="0"/>
        <pt x="452" y="816" on="1"/>
        <pt x="550" y="816" on="0"/>
        <pt x="706" y="746" on="0"/>
        <pt x="802" y="629" on="0"/>
        <pt x="853" y="486" on="0"/>
        <pt x="853" y="408" on="1"/>
        <pt x="853" y="228" on="0"/>
        <pt x="627" y="-20" on="0"/>
        <pt x="452" y="-20" on="1"/>
        <pt x="443" y="-20" on="0"/>
        <pt x="423" y="-25" on="0"/>
        <pt x="412" y="-30" on="0"/>
        <pt x="389" y="-40" on="0"/>
        <pt x="386" y="-42" on="1"/>
        <pt x="411" y="-47" on="0"/>
        <pt x="447" y="-62" on="1"/>
        <pt x="623" y="-136" on="1"/>
        <pt x="681" y="-161" on="0"/>
        <pt x="736" y="-161" on="1"/>
        <pt x="786" y="-161" on="0"/>
        <pt x="832" y="-129" on="1"/>
        <pt x="846" y="-136" on="0"/>
        <pt x="863" y="-156" on="1"/>
        <pt x="801" y="-235" on="0"/>
        <pt x="690" y="-235" on="1"/>
        <pt x="640" y="-235" on="0"/>
        <pt x="584" y="-212" on="1"/>
        <pt x="407" y="-127" on="1"/>
        <pt x="358" y="-107" on="0"/>
        <pt x="325" y="-107" on="1"/>
        <pt x="273" y="-107" on="0"/>
        <pt x="220" y="-145" on="1"/>
        <pt x="201" y="-135" on="0"/>
      </contour>
      <contour>
        <pt x="451" y="35" on="1"/>
        <pt x="545" y="35" on="0"/>
        <pt x="676" y="144" on="0"/>
        <pt x="733" y="310" on="0"/>
        <pt x="733" y="412" on="1"/>
        <pt x="733" y="509" on="0"/>
        <pt x="676" y="662" on="0"/>
        <pt x="546" y="761" on="0"/>
        <pt x="451" y="761" on="1"/>
        <pt x="314" y="761" on="0"/>
        <pt x="172" y="561" on="0"/>
        <pt x="172" y="411" on="1"/>
        <pt x="172" y="308" on="0"/>
        <pt x="228" y="143" on="0"/>
        <pt x="358" y="35" on="0"/>
      </contour>
    </TTGlyph>
    <TTGlyph name="R" xMin="40" yMin="-3" xMax="739" yMax="807">
      <contour>
        <pt x="52" y="799" on="1"/>
        <pt x="93" y="799" on="0"/>
        <pt x="272" y="807" on="0"/>
        <pt x="345" y="807" on="1"/>
        <pt x="497" y="807" on="0"/>
        <pt x="627" y="686" on="0"/>
        <pt x="627" y="578" on="1"/>
        <pt x="627" y="513" on="0"/>
        <pt x="537" y="409" on="0"/>
        <pt x="464" y="383" on="1"/>
        <pt x="507" y="310" on="0"/>
        <pt x="582" y="182" on="0"/>
        <pt x="616" y="120" on="0"/>
        <pt x="644" y="71" on="0"/>
        <pt x="657" y="53" on="0"/>
        <pt x="663" y="47" on="1"/>
        <pt x="735" y="37" on="1"/>
        <pt x="739" y="22" on="0"/>
        <pt x="735" y="0" on="1"/>
        <pt x="565" y="0" on="1"/>
        <pt x="414" y="274" on="1"/>
        <pt x="384" y="331" on="0"/>
        <pt x="357" y="362" on="1"/>
        <pt x="343" y="362" on="1"/>
        <pt x="292" y="362" on="0"/>
        <pt x="240" y="368" on="1"/>
        <pt x="240" y="44" on="1"/>
        <pt x="331" y="34" on="1"/>
        <pt x="335" y="19" on="0"/>
        <pt x="331" y="-3" on="1"/>
        <pt x="268" y="0" on="0"/>
        <pt x="189" y="0" on="1"/>
        <pt x="130" y="0" on="0"/>
        <pt x="46" y="-2" on="1"/>
        <pt x="40" y="16" on="0"/>
        <pt x="46" y="34" on="1"/>
        <pt x="129" y="46" on="1"/>
        <pt x="133" y="84" on="0"/>
        <pt x="133" y="163" on="1"/>
        <pt x="133" y="752" on="1"/>
        <pt x="52" y="762" on="1"/>
        <pt x="48" y="777" on="0"/>
      </contour>
      <contour>
        <pt x="240" y="633" on="1"/>
        <pt x="240" y="409" on="1"/>
        <pt x="271" y="405" on="0"/>
        <pt x="330" y="405" on="1"/>
        <pt x="381" y="405" on="0"/>
        <pt x="454" y="438" on="0"/>
        <pt x="490" y="493" on="0"/>
        <pt x="506" y="551" on="0"/>
        <pt x="506" y="583" on="1"/>
        <pt x="506" y="669" on="0"/>
        <pt x="420" y="765" on="0"/>
        <pt x="320" y="765" on="1"/>
        <pt x="283" y="765" on="0"/>
        <pt x="246" y="758" on="1"/>
        <pt x="240" y="701" on="0"/>
      </contour>
    </TTGlyph>
    <TTGlyph name="S" xMin="74" yMin="-20" xMax="586" yMax="816">
      <contour>
        <pt x="163" y="69" on="1"/>
        <pt x="221" y="29" on="0"/>
        <pt x="326" y="29" on="1"/>
        <pt x="397" y="29" on="0"/>
        <pt x="468" y="111" on="0"/>
        <pt x="468" y="168" on="1"/>
        <pt x="468" y="198" on="0"/>
        <pt x="458" y="239" on="0"/>
        <pt x="425" y="291" on="0"/>
        <pt x="353" y="343" on="0"/>
        <pt x="295" y="372" on="1"/>
        <pt x="227" y="406" on="0"/>
        <pt x="143" y="466" on="0"/>
        <pt x="101" y="530" on="0"/>
        <pt x="87" y="588" on="0"/>
        <pt x="87" y="631" on="1"/>
        <pt x="87" y="719" on="0"/>
        <pt x="228" y="816" on="0"/>
        <pt x="324" y="816" on="1"/>
        <pt x="443" y="816" on="0"/>
        <pt x="554" y="756" on="1"/>
        <pt x="554" y="564" on="1"/>
        <pt x="520" y="558" on="0"/>
        <pt x="497" y="564" on="1"/>
        <pt x="465" y="737" on="1"/>
        <pt x="401" y="772" on="0"/>
        <pt x="322" y="772" on="1"/>
        <pt x="269" y="772" on="0"/>
        <pt x="196" y="709" on="0"/>
        <pt x="196" y="652" on="1"/>
        <pt x="196" y="620" on="0"/>
        <pt x="204" y="584" on="0"/>
        <pt x="236" y="535" on="0"/>
        <pt x="310" y="486" on="0"/>
        <pt x="372" y="456" on="1"/>
        <pt x="586" y="352" on="0"/>
        <pt x="586" y="208" on="1"/>
        <pt x="586" y="106" on="0"/>
        <pt x="430" y="-20" on="0"/>
        <pt x="304" y="-20" on="1"/>
        <pt x="179" y="-20" on="0"/>
        <pt x="74" y="39" on="1"/>
        <pt x="74" y="231" on="1"/>
        <pt x="108" y="237" on="0"/>
        <pt x="131" y="231" on="1"/>
      </contour>
    </TTGlyph>
    <TTGlyph name="T" xMin="26" yMin="-3" xMax="719" yMax="796">
      <contour>
        <pt x="27" y="796" on="1"/>
        <pt x="718" y="796" on="1"/>
        <pt x="719" y="564" on="1"/>
        <pt x="697" y="560" on="0"/>
        <pt x="682" y="564" on="1"/>
        <pt x="635" y="745" on="1"/>
        <pt x="427" y="745" on="1"/>
        <pt x="427" y="44" on="1"/>
        <pt x="528" y="34" on="1"/>
        <pt x="532" y="19" on="0"/>
        <pt x="528" y="-3" on="1"/>
        <pt x="465" y="0" on="0"/>
        <pt x="376" y="0" on="1"/>
        <pt x="307" y="0" on="0"/>
        <pt x="223" y="-2" on="1"/>
        <pt x="217" y="16" on="0"/>
        <pt x="223" y="34" on="1"/>
        <pt x="316" y="46" on="1"/>
        <pt x="320" y="84" on="0"/>
        <pt x="320" y="163" on="1"/>
        <pt x="320" y="745" on="1"/>
        <pt x="110" y="745" on="1"/>
        <pt x="63" y="564" on="1"/>
        <pt x="48" y="560" on="0"/>
        <pt x="26" y="564" on="1"/>
      </contour>
    </TTGlyph>
    <TTGlyph name="Thorn" xMin="40" yMin="-3" xMax="613" yMax="799">
      <contour>
        <pt x="133" y="520" on="1"/>
        <pt x="133" y="752" on="1"/>
        <pt x="52" y="762" on="1"/>
        <pt x="48" y="777" on="0"/>
        <pt x="52" y="799" on="1"/>
        <pt x="107" y="795" on="0"/>
        <pt x="189" y="795" on="1"/>
        <pt x="262" y="795" on="0"/>
        <pt x="327" y="798" on="1"/>
        <pt x="333" y="780" on="0"/>
        <pt x="327" y="762" on="1"/>
        <pt x="244" y="750" on="1"/>
        <pt x="240" y="716" on="0"/>
        <pt x="240" y="645" on="1"/>
        <pt x="290" y="647" on="0"/>
        <pt x="326" y="647" on="1"/>
        <pt x="481" y="647" on="0"/>
        <pt x="613" y="526" on="0"/>
        <pt x="613" y="418" on="1"/>
        <pt x="613" y="322" on="0"/>
        <pt x="442" y="192" on="0"/>
        <pt x="324" y="192" on="1"/>
        <pt x="279" y="192" on="0"/>
        <pt x="240" y="196" on="1"/>
        <pt x="240" y="44" on="1"/>
        <pt x="321" y="34" on="1"/>
        <pt x="325" y="19" on="0"/>
        <pt x="321" y="-3" on="1"/>
        <pt x="258" y="0" on="0"/>
        <pt x="184" y="0" on="1"/>
        <pt x="130" y="0" on="0"/>
        <pt x="46" y="-2" on="1"/>
        <pt x="40" y="16" on="0"/>
        <pt x="46" y="34" on="1"/>
        <pt x="129" y="46" on="1"/>
        <pt x="133" y="84" on="0"/>
        <pt x="133" y="163" on="1"/>
      </contour>
      <contour>
        <pt x="240" y="237" on="1"/>
        <pt x="265" y="235" on="0"/>
        <pt x="311" y="235" on="1"/>
        <pt x="363" y="235" on="0"/>
        <pt x="438" y="270" on="0"/>
        <pt x="476" y="329" on="0"/>
        <pt x="492" y="389" on="0"/>
        <pt x="492" y="423" on="1"/>
        <pt x="492" y="510" on="0"/>
        <pt x="404" y="605" on="0"/>
        <pt x="301" y="605" on="1"/>
        <pt x="282" y="605" on="0"/>
        <pt x="240" y="600" on="1"/>
      </contour>
    </TTGlyph>
    <TTGlyph name="U" xMin="28" yMin="-20" xMax="766" yMax="799">
      <contour>
        <pt x="644" y="254" on="1"/>
        <pt x="644" y="752" on="1"/>
        <pt x="563" y="762" on="1"/>
        <pt x="563" y="799" on="1"/>
        <pt x="618" y="795" on="0"/>
        <pt x="664" y="795" on="1"/>
        <pt x="702" y="795" on="0"/>
        <pt x="766" y="798" on="1"/>
        <pt x="766" y="762" on="1"/>
        <pt x="703" y="750" on="1"/>
        <pt x="699" y="712" on="0"/>
        <pt x="699" y="633" on="1"/>
        <pt x="699" y="260" on="1"/>
        <pt x="695" y="118" on="0"/>
        <pt x="569" y="-20" on="0"/>
        <pt x="411" y="-20" on="1"/>
        <pt x="113" y="-20" on="0"/>
        <pt x="113" y="251" on="1"/>
        <pt x="113" y="752" on="1"/>
        <pt x="32" y="762" on="1"/>
        <pt x="28" y="777" on="0"/>
        <pt x="32" y="799" on="1"/>
        <pt x="87" y="795" on="0"/>
        <pt x="169" y="795" on="1"/>
        <pt x="242" y="795" on="0"/>
        <pt x="307" y="798" on="1"/>
        <pt x="313" y="780" on="0"/>
        <pt x="307" y="762" on="1"/>
        <pt x="224" y="750" on="1"/>
        <pt x="220" y="712" on="0"/>
        <pt x="220" y="633" on="1"/>
        <pt x="220" y="251" on="1"/>
        <pt x="220" y="139" on="0"/>
        <pt x="324" y="44" on="0"/>
        <pt x="444" y="44" on="1"/>
        <pt x="557" y="44" on="0"/>
        <pt x="644" y="143" on="0"/>
      </contour>
    </TTGlyph>
    <TTGlyph name="Uacute" xMin="28" yMin="-20" xMax="766" yMax="1021">
      <component glyphName="U" x="0" y="0" flags="0x204"/>
      <component glyphName="acute.case" x="340" y="93" flags="0x4"/>
    </TTGlyph>
    <TTGlyph name="Ucircumflex" xMin="28" yMin="-20" xMax="766" yMax="1023">
      <component glyphName="U" x="0" y="0" flags="0x204"/>
      <component glyphName="circumflex.case" x="275" y="93" flags="0x4"/>
    </TTGlyph>
    <TTGlyph name="Udieresis" xMin="28" yMin="-20" xMax="766" yMax="1002">
      <component glyphName="U" x="0" y="0" flags="0x204"/>
      <component glyphName="dieresis.case" x="254" y="93" flags="0x4"/>
    </TTGlyph>
    <TTGlyph name="Ugrave" xMin="28" yMin="-20" xMax="766" yMax="1021">
      <component glyphName="U" x="0" y="0" flags="0x204"/>
      <component glyphName="grave.case" x="308" y="93" flags="0x4"/>
    </TTGlyph>
    <TTGlyph name="V" xMin="-26" yMin="-30" xMax="760" yMax="799">
      <contour>
        <pt x="399" y="122" on="1"/>
        <pt x="400" y="122" on="1"/>
        <pt x="412" y="169" on="0"/>
        <pt x="439" y="245" on="1"/>
        <pt x="621" y="752" on="1"/>
        <pt x="540" y="762" on="1"/>
        <pt x="536" y="777" on="0"/>
        <pt x="540" y="799" on="1"/>
        <pt x="595" y="795" on="0"/>
        <pt x="646" y="795" on="1"/>
        <pt x="690" y="795" on="0"/>
        <pt x="754" y="798" on="1"/>
        <pt x="760" y="780" on="0"/>
        <pt x="754" y="762" on="1"/>
        <pt x="688" y="750" on="1"/>
        <pt x="672" y="726" on="0"/>
        <pt x="648" y="661" on="1"/>
        <pt x="390" y="-30" on="1"/>
        <pt x="355" y="-30" on="1"/>
        <pt x="59" y="752" on="1"/>
        <pt x="-22" y="762" on="1"/>
        <pt x="-26" y="777" on="0"/>
        <pt x="-22" y="799" on="1"/>
        <pt x="33" y="795" on="0"/>
        <pt x="120" y="795" on="1"/>
        <pt x="198" y="795" on="0"/>
        <pt x="263" y="798" on="1"/>
        <pt x="269" y="780" on="0"/>
        <pt x="263" y="762" on="1"/>
        <pt x="180" y="750" on="1"/>
        <pt x="363" y="245" on="1"/>
        <pt x="384" y="184" on="0"/>
      </contour>
    </TTGlyph>
    <TTGlyph name="W" xMin="-22" yMin="-31" xMax="1110" yMax="799">
      <contour>
        <pt x="788" y="146" on="1"/>
        <pt x="790" y="146" on="1"/>
        <pt x="800" y="187" on="0"/>
        <pt x="838" y="312" on="1"/>
        <pt x="977" y="752" on="1"/>
        <pt x="896" y="762" on="1"/>
        <pt x="896" y="799" on="1"/>
        <pt x="951" y="795" on="0"/>
        <pt x="1002" y="795" on="1"/>
        <pt x="1046" y="795" on="0"/>
        <pt x="1110" y="798" on="1"/>
        <pt x="1110" y="762" on="1"/>
        <pt x="1044" y="750" on="1"/>
        <pt x="1028" y="726" on="0"/>
        <pt x="1004" y="661" on="1"/>
        <pt x="777" y="-30" on="1"/>
        <pt x="751" y="-30" on="1"/>
        <pt x="559" y="530" on="1"/>
        <pt x="349" y="-31" on="1"/>
        <pt x="322" y="-30" on="1"/>
        <pt x="63" y="752" on="1"/>
        <pt x="-18" y="762" on="1"/>
        <pt x="-22" y="777" on="0"/>
        <pt x="-18" y="799" on="1"/>
        <pt x="37" y="795" on="0"/>
        <pt x="125" y="795" on="1"/>
        <pt x="206" y="795" on="0"/>
        <pt x="270" y="798" on="1"/>
        <pt x="276" y="780" on="0"/>
        <pt x="270" y="762" on="1"/>
        <pt x="187" y="750" on="1"/>
        <pt x="319" y="307" on="1"/>
        <pt x="344" y="217" on="0"/>
        <pt x="362" y="138" on="1"/>
        <pt x="364" y="138" on="1"/>
        <pt x="384" y="204" on="0"/>
        <pt x="422" y="307" on="1"/>
        <pt x="532" y="611" on="1"/>
        <pt x="484" y="752" on="1"/>
        <pt x="403" y="762" on="1"/>
        <pt x="399" y="777" on="0"/>
        <pt x="403" y="799" on="1"/>
        <pt x="458" y="795" on="0"/>
        <pt x="542" y="795" on="1"/>
        <pt x="618" y="795" on="0"/>
        <pt x="683" y="798" on="1"/>
        <pt x="689" y="780" on="0"/>
        <pt x="683" y="762" on="1"/>
        <pt x="600" y="750" on="1"/>
        <pt x="742" y="315" on="1"/>
        <pt x="775" y="207" on="0"/>
      </contour>
    </TTGlyph>
    <TTGlyph name="X" xMin="-9" yMin="-3" xMax="811" yMax="799">
      <contour>
        <pt x="724" y="43" on="1"/>
        <pt x="807" y="35" on="1"/>
        <pt x="811" y="18" on="0"/>
        <pt x="808" y="-2" on="1"/>
        <pt x="658" y="1" on="0"/>
        <pt x="603" y="1" on="1"/>
        <pt x="519" y="1" on="0"/>
        <pt x="474" y="-3" on="1"/>
        <pt x="468" y="14" on="0"/>
        <pt x="473" y="33" on="1"/>
        <pt x="575" y="47" on="1"/>
        <pt x="558" y="84" on="0"/>
        <pt x="507" y="155" on="1"/>
        <pt x="374" y="347" on="1"/>
        <pt x="146" y="44" on="1"/>
        <pt x="227" y="34" on="1"/>
        <pt x="231" y="19" on="0"/>
        <pt x="227" y="-3" on="1"/>
        <pt x="164" y="0" on="0"/>
        <pt x="113" y="0" on="1"/>
        <pt x="81" y="0" on="0"/>
        <pt x="-3" y="-2" on="1"/>
        <pt x="-9" y="16" on="0"/>
        <pt x="-3" y="34" on="1"/>
        <pt x="70" y="46" on="1"/>
        <pt x="122" y="96" on="0"/>
        <pt x="151" y="135" on="1"/>
        <pt x="343" y="393" on="1"/>
        <pt x="96" y="752" on="1"/>
        <pt x="15" y="762" on="1"/>
        <pt x="11" y="777" on="0"/>
        <pt x="15" y="799" on="1"/>
        <pt x="70" y="795" on="0"/>
        <pt x="176" y="795" on="1"/>
        <pt x="274" y="795" on="0"/>
        <pt x="338" y="798" on="1"/>
        <pt x="344" y="780" on="0"/>
        <pt x="338" y="762" on="1"/>
        <pt x="239" y="743" on="1"/>
        <pt x="257" y="710" on="0"/>
        <pt x="278" y="682" on="1"/>
        <pt x="412" y="489" on="1"/>
        <pt x="609" y="752" on="1"/>
        <pt x="528" y="762" on="1"/>
        <pt x="524" y="777" on="0"/>
        <pt x="528" y="799" on="1"/>
        <pt x="583" y="795" on="0"/>
        <pt x="643" y="795" on="1"/>
        <pt x="694" y="795" on="0"/>
        <pt x="759" y="798" on="1"/>
        <pt x="765" y="780" on="0"/>
        <pt x="759" y="762" on="1"/>
        <pt x="696" y="750" on="1"/>
        <pt x="646" y="715" on="0"/>
        <pt x="605" y="661" on="1"/>
        <pt x="442" y="446" on="1"/>
      </contour>
    </TTGlyph>
    <TTGlyph name="Y" xMin="-17" yMin="-3" xMax="734" yMax="799">
      <contour>
        <pt x="246" y="625" on="1"/>
        <pt x="378" y="399" on="1"/>
        <pt x="587" y="752" on="1"/>
        <pt x="506" y="762" on="1"/>
        <pt x="502" y="777" on="0"/>
        <pt x="506" y="799" on="1"/>
        <pt x="561" y="795" on="0"/>
        <pt x="616" y="795" on="1"/>
        <pt x="664" y="795" on="0"/>
        <pt x="728" y="798" on="1"/>
        <pt x="734" y="780" on="0"/>
        <pt x="728" y="762" on="1"/>
        <pt x="666" y="750" on="1"/>
        <pt x="623" y="701" on="0"/>
        <pt x="600" y="661" on="1"/>
        <pt x="404" y="341" on="1"/>
        <pt x="404" y="44" on="1"/>
        <pt x="485" y="34" on="1"/>
        <pt x="489" y="19" on="0"/>
        <pt x="485" y="-3" on="1"/>
        <pt x="422" y="0" on="0"/>
        <pt x="348" y="0" on="1"/>
        <pt x="294" y="0" on="0"/>
        <pt x="210" y="-2" on="1"/>
        <pt x="204" y="16" on="0"/>
        <pt x="210" y="34" on="1"/>
        <pt x="293" y="46" on="1"/>
        <pt x="297" y="84" on="0"/>
        <pt x="297" y="163" on="1"/>
        <pt x="297" y="344" on="1"/>
        <pt x="58" y="752" on="1"/>
        <pt x="-13" y="762" on="1"/>
        <pt x="-17" y="777" on="0"/>
        <pt x="-13" y="799" on="1"/>
        <pt x="42" y="795" on="0"/>
        <pt x="137" y="795" on="1"/>
        <pt x="224" y="795" on="0"/>
        <pt x="289" y="798" on="1"/>
        <pt x="295" y="780" on="0"/>
        <pt x="289" y="762" on="1"/>
        <pt x="191" y="743" on="1"/>
        <pt x="222" y="666" on="0"/>
      </contour>
    </TTGlyph>
    <TTGlyph name="Yacute" xMin="-17" yMin="-3" xMax="734" yMax="1021">
      <component glyphName="Y" x="0" y="0" flags="0x204"/>
      <component glyphName="acute.case" x="299" y="93" flags="0x4"/>
    </TTGlyph>
    <TTGlyph name="Z" xMin="37" yMin="0" xMax="625" yMax="796">
      <contour>
        <pt x="166" y="51" on="1"/>
        <pt x="541" y="51" on="1"/>
        <pt x="588" y="232" on="1"/>
        <pt x="603" y="236" on="0"/>
        <pt x="625" y="232" on="1"/>
        <pt x="624" y="0" on="1"/>
        <pt x="44" y="0" on="1"/>
        <pt x="37" y="31" on="0"/>
        <pt x="44" y="51" on="1"/>
        <pt x="495" y="745" on="1"/>
        <pt x="150" y="745" on="1"/>
        <pt x="103" y="564" on="1"/>
        <pt x="88" y="560" on="0"/>
        <pt x="66" y="564" on="1"/>
        <pt x="67" y="796" on="1"/>
        <pt x="611" y="796" on="1"/>
        <pt x="618" y="774" on="0"/>
        <pt x="611" y="745" on="1"/>
      </contour>
    </TTGlyph>
    <TTGlyph name="a" xMin="40" yMin="-20" xMax="529" yMax="554">
      <contour>
        <pt x="135" y="133" on="1"/>
        <pt x="135" y="81" on="0"/>
        <pt x="173" y="38" on="0"/>
        <pt x="214" y="38" on="1"/>
        <pt x="244" y="38" on="0"/>
        <pt x="317" y="75" on="0"/>
        <pt x="348" y="110" on="1"/>
        <pt x="348" y="266" on="1"/>
        <pt x="245" y="260" on="0"/>
        <pt x="135" y="199" on="0"/>
      </contour>
      <contour>
        <pt x="348" y="302" on="1"/>
        <pt x="348" y="353" on="1"/>
        <pt x="348" y="438" on="0"/>
        <pt x="309" y="515" on="0"/>
        <pt x="264" y="515" on="1"/>
        <pt x="218" y="515" on="0"/>
        <pt x="162" y="456" on="0"/>
        <pt x="152" y="385" on="1"/>
        <pt x="120" y="378" on="0"/>
        <pt x="105" y="378" on="1"/>
        <pt x="66" y="378" on="0"/>
        <pt x="59" y="406" on="1"/>
        <pt x="59" y="474" on="0"/>
        <pt x="177" y="554" on="0"/>
        <pt x="265" y="554" on="1"/>
        <pt x="362" y="554" on="0"/>
        <pt x="443" y="475" on="0"/>
        <pt x="443" y="373" on="1"/>
        <pt x="443" y="91" on="1"/>
        <pt x="443" y="66" on="0"/>
        <pt x="446" y="48" on="1"/>
        <pt x="525" y="38" on="1"/>
        <pt x="529" y="23" on="0"/>
        <pt x="525" y="0" on="1"/>
        <pt x="454" y="-3" on="0"/>
        <pt x="374" y="-14" on="1"/>
        <pt x="366" y="-6" on="0"/>
        <pt x="364" y="6" on="1"/>
        <pt x="359" y="75" on="1"/>
        <pt x="276" y="-20" on="0"/>
        <pt x="174" y="-20" on="1"/>
        <pt x="111" y="-20" on="0"/>
        <pt x="40" y="52" on="0"/>
        <pt x="40" y="113" on="1"/>
        <pt x="40" y="205" on="0"/>
        <pt x="207" y="299" on="0"/>
      </contour>
    </TTGlyph>
    <TTGlyph name="aacute" xMin="40" yMin="-20" xMax="529" yMax="814">
      <component glyphName="a" x="0" y="0" flags="0x204"/>
      <component glyphName="acute" x="168" y="33" flags="0x4"/>
    </TTGlyph>
    <TTGlyph name="acircumflex" xMin="40" yMin="-20" xMax="529" yMax="801">
      <component glyphName="a" x="0" y="0" flags="0x204"/>
      <component glyphName="circumflex" x="90" y="33" flags="0x4"/>
    </TTGlyph>
    <TTGlyph name="acute" xMin="69" yMin="570" xMax="240" yMax="781">
      <contour>
        <pt x="240" y="724" on="1"/>
        <pt x="112" y="570" on="1"/>
        <pt x="83" y="578" on="0"/>
        <pt x="69" y="587" on="1"/>
        <pt x="153" y="761" on="1"/>
        <pt x="184" y="781" on="0"/>
      </contour>
    </TTGlyph>
    <TTGlyph name="acute.case" xMin="34" yMin="758" xMax="245" yMax="928">
      <contour>
        <pt x="245" y="856" on="1"/>
        <pt x="62" y="758" on="1"/>
        <pt x="43" y="774" on="0"/>
        <pt x="34" y="792" on="1"/>
        <pt x="180" y="924" on="1"/>
        <pt x="199" y="928" on="0"/>
        <pt x="231" y="895" on="0"/>
      </contour>
    </TTGlyph>
    <TTGlyph name="adieresis" xMin="40" yMin="-20" xMax="529" yMax="764">
      <component glyphName="a" x="0" y="0" flags="0x204"/>
      <component glyphName="dieresis" x="67" y="33" flags="0x4"/>
    </TTGlyph>
    <TTGlyph name="ae" xMin="40" yMin="-20" xMax="791" yMax="554">
      <contour>
        <pt x="348" y="302" on="1"/>
        <pt x="348" y="353" on="1"/>
        <pt x="348" y="438" on="0"/>
        <pt x="309" y="515" on="0"/>
        <pt x="264" y="515" on="1"/>
        <pt x="218" y="515" on="0"/>
        <pt x="162" y="456" on="0"/>
        <pt x="152" y="385" on="1"/>
        <pt x="120" y="378" on="0"/>
        <pt x="105" y="378" on="1"/>
        <pt x="66" y="378" on="0"/>
        <pt x="59" y="406" on="1"/>
        <pt x="59" y="474" on="0"/>
        <pt x="177" y="554" on="0"/>
        <pt x="265" y="554" on="1"/>
        <pt x="384" y="554" on="0"/>
        <pt x="419" y="492" on="1"/>
        <pt x="484" y="554" on="0"/>
        <pt x="582" y="554" on="1"/>
        <pt x="693" y="554" on="0"/>
        <pt x="791" y="408" on="0"/>
        <pt x="791" y="291" on="1"/>
        <pt x="783" y="284" on="0"/>
        <pt x="770" y="282" on="1"/>
        <pt x="444" y="282" on="1"/>
        <pt x="436" y="28" on="0"/>
        <pt x="602" y="28" on="1"/>
        <pt x="670" y="28" on="0"/>
        <pt x="754" y="89" on="1"/>
        <pt x="769" y="80" on="0"/>
        <pt x="777" y="58" on="1"/>
        <pt x="697" y="-20" on="0"/>
        <pt x="586" y="-20" on="1"/>
        <pt x="447" y="-20" on="0"/>
        <pt x="383" y="78" on="1"/>
        <pt x="309" y="-20" on="0"/>
        <pt x="174" y="-20" on="1"/>
        <pt x="111" y="-20" on="0"/>
        <pt x="40" y="52" on="0"/>
        <pt x="40" y="113" on="1"/>
        <pt x="40" y="205" on="0"/>
        <pt x="207" y="299" on="0"/>
      </contour>
      <contour>
        <pt x="135" y="133" on="1"/>
        <pt x="135" y="81" on="0"/>
        <pt x="173" y="38" on="0"/>
        <pt x="214" y="38" on="1"/>
        <pt x="265" y="38" on="0"/>
        <pt x="348" y="113" on="0"/>
        <pt x="348" y="153" on="1"/>
        <pt x="348" y="266" on="1"/>
        <pt x="245" y="260" on="0"/>
        <pt x="135" y="199" on="0"/>
      </contour>
      <contour>
        <pt x="573" y="508" on="1"/>
        <pt x="524" y="508" on="0"/>
        <pt x="455" y="405" on="0"/>
        <pt x="447" y="322" on="1"/>
        <pt x="571" y="322" on="1"/>
        <pt x="651" y="322" on="0"/>
        <pt x="687" y="331" on="1"/>
        <pt x="687" y="508" on="0"/>
      </contour>
    </TTGlyph>
    <TTGlyph name="agrave" xMin="40" yMin="-20" xMax="529" yMax="814">
      <component glyphName="a" x="0" y="0" flags="0x204"/>
      <component glyphName="grave" x="184" y="33" flags="0x4"/>
    </TTGlyph>
    <TTGlyph name="ampersand" xMin="44" yMin="-15" xMax="805" yMax="806">
      <contour>
        <pt x="693" y="332" on="1"/>
        <pt x="627" y="332" on="1"/>
        <pt x="607" y="237" on="0"/>
        <pt x="564" y="163" on="1"/>
        <pt x="572" y="154" on="1"/>
        <pt x="623" y="87" on="0"/>
        <pt x="682" y="28" on="0"/>
        <pt x="700" y="28" on="1"/>
        <pt x="717" y="28" on="0"/>
        <pt x="717" y="45" on="1"/>
        <pt x="717" y="60" on="0"/>
        <pt x="692" y="107" on="1"/>
        <pt x="724" y="147" on="0"/>
        <pt x="764" y="147" on="1"/>
        <pt x="786" y="147" on="0"/>
        <pt x="805" y="117" on="0"/>
        <pt x="805" y="99" on="1"/>
        <pt x="805" y="69" on="0"/>
        <pt x="717" y="-15" on="0"/>
        <pt x="656" y="-15" on="1"/>
        <pt x="614" y="-15" on="0"/>
        <pt x="530" y="29" on="0"/>
        <pt x="500" y="69" on="1"/>
        <pt x="496" y="74" on="1"/>
        <pt x="403" y="-14" on="0"/>
        <pt x="261" y="-14" on="1"/>
        <pt x="168" y="-14" on="0"/>
        <pt x="44" y="82" on="0"/>
        <pt x="44" y="168" on="1"/>
        <pt x="44" y="243" on="0"/>
        <pt x="131" y="349" on="0"/>
        <pt x="234" y="412" on="1"/>
        <pt x="190" y="470" on="1"/>
        <pt x="120" y="560" on="0"/>
        <pt x="120" y="631" on="1"/>
        <pt x="120" y="705" on="0"/>
        <pt x="225" y="806" on="0"/>
        <pt x="319" y="806" on="1"/>
        <pt x="417" y="806" on="0"/>
        <pt x="517" y="727" on="0"/>
        <pt x="517" y="655" on="1"/>
        <pt x="517" y="609" on="0"/>
        <pt x="453" y="515" on="0"/>
        <pt x="349" y="440" on="1"/>
        <pt x="535" y="200" on="1"/>
        <pt x="566" y="261" on="0"/>
        <pt x="580" y="332" on="1"/>
        <pt x="518" y="332" on="1"/>
        <pt x="514" y="347" on="0"/>
        <pt x="518" y="369" on="1"/>
        <pt x="573" y="365" on="0"/>
        <pt x="605" y="365" on="1"/>
        <pt x="628" y="365" on="0"/>
        <pt x="693" y="368" on="1"/>
        <pt x="699" y="350" on="0"/>
      </contour>
      <contour>
        <pt x="291" y="32" on="1"/>
        <pt x="397" y="32" on="0"/>
        <pt x="470" y="107" on="1"/>
        <pt x="261" y="377" on="1"/>
        <pt x="163" y="300" on="0"/>
        <pt x="163" y="184" on="1"/>
        <pt x="163" y="106" on="0"/>
        <pt x="233" y="32" on="0"/>
      </contour>
      <contour>
        <pt x="217" y="674" on="1"/>
        <pt x="217" y="608" on="0"/>
        <pt x="276" y="534" on="1"/>
        <pt x="324" y="471" on="1"/>
        <pt x="364" y="503" on="0"/>
        <pt x="418" y="597" on="0"/>
        <pt x="418" y="639" on="1"/>
        <pt x="418" y="773" on="0"/>
        <pt x="319" y="773" on="1"/>
        <pt x="274" y="773" on="0"/>
        <pt x="217" y="719" on="0"/>
      </contour>
    </TTGlyph>
    <TTGlyph name="aring" xMin="40" yMin="-20" xMax="529" yMax="812">
      <component glyphName="a" x="0" y="0" flags="0x204"/>
      <component glyphName="ring" x="136" y="33" flags="0x4"/>
    </TTGlyph>
    <TTGlyph name="asciicircum" xMin="55" yMin="428" xMax="547" yMax="735">
      <contour>
        <pt x="301" y="642" on="1"/>
        <pt x="82" y="428" on="1"/>
        <pt x="74" y="430" on="0"/>
        <pt x="57" y="448" on="0"/>
        <pt x="55" y="456" on="1"/>
        <pt x="261" y="732" on="1"/>
        <pt x="280" y="735" on="0"/>
        <pt x="301" y="735" on="1"/>
        <pt x="320" y="735" on="0"/>
        <pt x="341" y="732" on="1"/>
        <pt x="547" y="456" on="1"/>
        <pt x="545" y="448" on="0"/>
        <pt x="528" y="430" on="0"/>
        <pt x="520" y="428" on="1"/>
      </contour>
    </TTGlyph>
    <TTGlyph name="asciitilde" xMin="42" yMin="383" xMax="632" yMax="563">
      <contour>
        <pt x="475" y="461" on="1"/>
        <pt x="505" y="461" on="0"/>
        <pt x="551" y="483" on="0"/>
        <pt x="594" y="519" on="1"/>
        <pt x="622" y="513" on="0"/>
        <pt x="632" y="490" on="1"/>
        <pt x="553" y="383" on="0"/>
        <pt x="450" y="383" on="1"/>
        <pt x="405" y="383" on="0"/>
        <pt x="332" y="415" on="0"/>
        <pt x="293" y="453" on="0"/>
        <pt x="233" y="485" on="0"/>
        <pt x="200" y="485" on="1"/>
        <pt x="172" y="485" on="0"/>
        <pt x="125" y="453" on="0"/>
        <pt x="83" y="411" on="1"/>
        <pt x="55" y="422" on="0"/>
        <pt x="42" y="447" on="1"/>
        <pt x="130" y="563" on="0"/>
        <pt x="227" y="563" on="1"/>
        <pt x="271" y="563" on="0"/>
        <pt x="342" y="531" on="0"/>
        <pt x="383" y="493" on="0"/>
        <pt x="442" y="461" on="0"/>
      </contour>
    </TTGlyph>
    <TTGlyph name="asterisk" xMin="47" yMin="427" xMax="381" yMax="742">
      <contour>
        <pt x="242" y="735" on="1"/>
        <pt x="234" y="600" on="1"/>
        <pt x="359" y="651" on="1"/>
        <pt x="381" y="627" on="0"/>
        <pt x="375" y="596" on="1"/>
        <pt x="246" y="563" on="1"/>
        <pt x="332" y="460" on="1"/>
        <pt x="317" y="431" on="0"/>
        <pt x="285" y="428" on="1"/>
        <pt x="214" y="540" on="1"/>
        <pt x="142" y="427" on="1"/>
        <pt x="110" y="432" on="0"/>
        <pt x="97" y="461" on="1"/>
        <pt x="182" y="563" on="1"/>
        <pt x="52" y="597" on="1"/>
        <pt x="47" y="629" on="0"/>
        <pt x="70" y="650" on="1"/>
        <pt x="194" y="601" on="1"/>
        <pt x="186" y="735" on="1"/>
        <pt x="200" y="742" on="0"/>
        <pt x="214" y="742" on="1"/>
        <pt x="226" y="742" on="0"/>
      </contour>
    </TTGlyph>
    <TTGlyph name="at" xMin="55" yMin="-157" xMax="965" yMax="791">
      <contour>
        <pt x="562" y="196" on="1"/>
        <pt x="484" y="103" on="0"/>
        <pt x="389" y="103" on="1"/>
        <pt x="298" y="103" on="0"/>
        <pt x="298" y="240" on="1"/>
        <pt x="298" y="314" on="0"/>
        <pt x="341" y="442" on="0"/>
        <pt x="417" y="537" on="0"/>
        <pt x="521" y="591" on="0"/>
        <pt x="583" y="591" on="1"/>
        <pt x="659" y="591" on="0"/>
        <pt x="719" y="569" on="1"/>
        <pt x="656" y="155" on="1"/>
        <pt x="705" y="155" on="0"/>
        <pt x="798" y="194" on="0"/>
        <pt x="870" y="268" on="0"/>
        <pt x="913" y="376" on="0"/>
        <pt x="913" y="445" on="1"/>
        <pt x="913" y="517" on="0"/>
        <pt x="859" y="629" on="0"/>
        <pt x="763" y="706" on="0"/>
        <pt x="631" y="745" on="0"/>
        <pt x="553" y="745" on="1"/>
        <pt x="458" y="745" on="0"/>
        <pt x="295" y="679" on="0"/>
        <pt x="175" y="564" on="0"/>
        <pt x="106" y="405" on="0"/>
        <pt x="106" y="312" on="1"/>
        <pt x="106" y="219" on="0"/>
        <pt x="168" y="64" on="0"/>
        <pt x="283" y="-49" on="0"/>
        <pt x="448" y="-111" on="0"/>
        <pt x="552" y="-111" on="1"/>
        <pt x="667" y="-111" on="0"/>
        <pt x="765" y="-57" on="1"/>
        <pt x="782" y="-90" on="1"/>
        <pt x="750" y="-108" on="0"/>
        <pt x="696" y="-134" on="0"/>
        <pt x="640" y="-150" on="0"/>
        <pt x="579" y="-157" on="0"/>
        <pt x="540" y="-157" on="1"/>
        <pt x="444" y="-157" on="0"/>
        <pt x="268" y="-98" on="0"/>
        <pt x="135" y="20" on="0"/>
        <pt x="55" y="196" on="0"/>
        <pt x="55" y="313" on="1"/>
        <pt x="55" y="422" on="0"/>
        <pt x="129" y="598" on="0"/>
        <pt x="261" y="723" on="0"/>
        <pt x="443" y="791" on="0"/>
        <pt x="551" y="791" on="1"/>
        <pt x="643" y="791" on="0"/>
        <pt x="795" y="741" on="0"/>
        <pt x="905" y="650" on="0"/>
        <pt x="965" y="521" on="0"/>
        <pt x="965" y="442" on="1"/>
        <pt x="965" y="366" on="0"/>
        <pt x="911" y="241" on="0"/>
        <pt x="815" y="152" on="0"/>
        <pt x="686" y="103" on="0"/>
        <pt x="611" y="103" on="1"/>
        <pt x="585" y="103" on="0"/>
        <pt x="561" y="133" on="0"/>
        <pt x="561" y="171" on="1"/>
        <pt x="561" y="176" on="0"/>
        <pt x="561" y="189" on="0"/>
      </contour>
      <contour>
        <pt x="439" y="169" on="1"/>
        <pt x="473" y="169" on="0"/>
        <pt x="529" y="205" on="0"/>
        <pt x="575" y="252" on="1"/>
        <pt x="619" y="547" on="1"/>
        <pt x="591" y="551" on="0"/>
        <pt x="568" y="551" on="1"/>
        <pt x="510" y="551" on="0"/>
        <pt x="425" y="460" on="0"/>
        <pt x="387" y="331" on="0"/>
        <pt x="387" y="261" on="1"/>
        <pt x="387" y="214" on="0"/>
        <pt x="406" y="169" on="0"/>
      </contour>
    </TTGlyph>
    <TTGlyph name="atilde" xMin="40" yMin="-20" xMax="529" yMax="756">
      <component glyphName="a" x="0" y="0" flags="0x204"/>
      <component glyphName="tilde" x="66" y="33" flags="0x4"/>
    </TTGlyph>
    <TTGlyph name="b" xMin="-9" yMin="-21" xMax="559" yMax="816">
      <contour>
        <pt x="172" y="471" on="1"/>
        <pt x="255" y="554" on="0"/>
        <pt x="353" y="554" on="1"/>
        <pt x="450" y="554" on="0"/>
        <pt x="559" y="408" on="0"/>
        <pt x="559" y="284" on="1"/>
        <pt x="559" y="143" on="0"/>
        <pt x="407" y="-20" on="0"/>
        <pt x="294" y="-20" on="1"/>
        <pt x="196" y="-20" on="0"/>
        <pt x="140" y="50" on="1"/>
        <pt x="119" y="-18" on="1"/>
        <pt x="100" y="-21" on="0"/>
        <pt x="87" y="-18" on="1"/>
        <pt x="77" y="92" on="1"/>
        <pt x="77" y="747" on="1"/>
        <pt x="-5" y="757" on="1"/>
        <pt x="-9" y="772" on="0"/>
        <pt x="-5" y="795" on="1"/>
        <pt x="64" y="800" on="0"/>
        <pt x="167" y="816" on="1"/>
        <pt x="176" y="806" on="0"/>
        <pt x="177" y="796" on="1"/>
        <pt x="172" y="770" on="0"/>
        <pt x="172" y="634" on="1"/>
      </contour>
      <contour>
        <pt x="316" y="35" on="1"/>
        <pt x="378" y="35" on="0"/>
        <pt x="459" y="150" on="0"/>
        <pt x="459" y="255" on="1"/>
        <pt x="459" y="276" on="0"/>
        <pt x="458" y="287" on="1"/>
        <pt x="458" y="386" on="0"/>
        <pt x="379" y="494" on="0"/>
        <pt x="319" y="494" on="1"/>
        <pt x="284" y="494" on="0"/>
        <pt x="202" y="449" on="0"/>
        <pt x="172" y="410" on="1"/>
        <pt x="172" y="104" on="1"/>
        <pt x="206" y="65" on="0"/>
        <pt x="268" y="35" on="0"/>
      </contour>
    </TTGlyph>
    <TTGlyph name="backslash" xMin="8" yMin="-89" xMax="473" yMax="803">
      <contour>
        <pt x="403" y="-85" on="1"/>
        <pt x="8" y="799" on="1"/>
        <pt x="24" y="803" on="0"/>
        <pt x="62" y="803" on="0"/>
        <pt x="78" y="799" on="1"/>
        <pt x="473" y="-85" on="1"/>
        <pt x="462" y="-89" on="0"/>
        <pt x="437" y="-89" on="1"/>
        <pt x="415" y="-89" on="0"/>
      </contour>
    </TTGlyph>
    <TTGlyph name="bar" xMin="90" yMin="-147" xMax="147" yMax="920">
      <contour>
        <pt x="147" y="913" on="1"/>
        <pt x="147" y="-138" on="1"/>
        <pt x="121" y="-147" on="0"/>
        <pt x="90" y="-138" on="1"/>
        <pt x="90" y="913" on="1"/>
        <pt x="120" y="920" on="0"/>
      </contour>
    </TTGlyph>
    <TTGlyph name="braceleft" xMin="47" yMin="-171" xMax="376" yMax="870">
      <contour>
        <pt x="243" y="172" on="1"/>
        <pt x="243" y="25" on="1"/>
        <pt x="243" y="-71" on="0"/>
        <pt x="284" y="-120" on="0"/>
        <pt x="366" y="-120" on="1"/>
        <pt x="376" y="-146" on="0"/>
        <pt x="366" y="-171" on="1"/>
        <pt x="273" y="-171" on="0"/>
        <pt x="186" y="-139" on="0"/>
        <pt x="156" y="-62" on="0"/>
        <pt x="156" y="22" on="1"/>
        <pt x="156" y="169" on="1"/>
        <pt x="156" y="267" on="0"/>
        <pt x="122" y="333" on="0"/>
        <pt x="60" y="334" on="1"/>
        <pt x="53" y="334" on="1"/>
        <pt x="47" y="351" on="0"/>
        <pt x="53" y="365" on="1"/>
        <pt x="120" y="365" on="0"/>
        <pt x="156" y="430" on="0"/>
        <pt x="156" y="530" on="1"/>
        <pt x="156" y="677" on="1"/>
        <pt x="156" y="761" on="0"/>
        <pt x="186" y="838" on="0"/>
        <pt x="273" y="870" on="0"/>
        <pt x="366" y="870" on="1"/>
        <pt x="376" y="846" on="0"/>
        <pt x="366" y="819" on="1"/>
        <pt x="284" y="819" on="0"/>
        <pt x="243" y="770" on="0"/>
        <pt x="243" y="674" on="1"/>
        <pt x="243" y="527" on="1"/>
        <pt x="243" y="444" on="0"/>
        <pt x="216" y="365" on="0"/>
        <pt x="177" y="349" on="1"/>
        <pt x="217" y="333" on="0"/>
        <pt x="243" y="255" on="0"/>
      </contour>
    </TTGlyph>
    <TTGlyph name="braceright" xMin="83" yMin="-171" xMax="412" yMax="870">
      <contour>
        <pt x="216" y="172" on="1"/>
        <pt x="216" y="255" on="0"/>
        <pt x="242" y="333" on="0"/>
        <pt x="282" y="349" on="1"/>
        <pt x="243" y="365" on="0"/>
        <pt x="216" y="444" on="0"/>
        <pt x="216" y="527" on="1"/>
        <pt x="216" y="674" on="1"/>
        <pt x="216" y="770" on="0"/>
        <pt x="175" y="819" on="0"/>
        <pt x="93" y="819" on="1"/>
        <pt x="83" y="846" on="0"/>
        <pt x="93" y="870" on="1"/>
        <pt x="186" y="870" on="0"/>
        <pt x="273" y="838" on="0"/>
        <pt x="303" y="761" on="0"/>
        <pt x="303" y="677" on="1"/>
        <pt x="303" y="530" on="1"/>
        <pt x="303" y="430" on="0"/>
        <pt x="339" y="365" on="0"/>
        <pt x="406" y="365" on="1"/>
        <pt x="412" y="351" on="0"/>
        <pt x="406" y="334" on="1"/>
        <pt x="399" y="334" on="1"/>
        <pt x="337" y="333" on="0"/>
        <pt x="303" y="267" on="0"/>
        <pt x="303" y="169" on="1"/>
        <pt x="303" y="22" on="1"/>
        <pt x="303" y="-62" on="0"/>
        <pt x="273" y="-139" on="0"/>
        <pt x="186" y="-171" on="0"/>
        <pt x="93" y="-171" on="1"/>
        <pt x="83" y="-146" on="0"/>
        <pt x="93" y="-120" on="1"/>
        <pt x="175" y="-120" on="0"/>
        <pt x="216" y="-71" on="0"/>
        <pt x="216" y="25" on="1"/>
        <pt x="216" y="172" on="1"/>
      </contour>
    </TTGlyph>
    <TTGlyph name="bracketleft" xMin="89" yMin="-182" xMax="303" yMax="900">
      <contour>
        <pt x="89" y="900" on="1"/>
        <pt x="299" y="900" on="1"/>
        <pt x="301" y="894" on="0"/>
        <pt x="303" y="882" on="0"/>
        <pt x="303" y="876" on="1"/>
        <pt x="303" y="869" on="0"/>
        <pt x="301" y="856" on="0"/>
        <pt x="299" y="849" on="1"/>
        <pt x="176" y="849" on="1"/>
        <pt x="176" y="-131" on="1"/>
        <pt x="299" y="-131" on="1"/>
        <pt x="301" y="-137" on="0"/>
        <pt x="303" y="-149" on="0"/>
        <pt x="303" y="-155" on="1"/>
        <pt x="303" y="-162" on="0"/>
        <pt x="301" y="-175" on="0"/>
        <pt x="299" y="-182" on="1"/>
        <pt x="89" y="-182" on="1"/>
      </contour>
    </TTGlyph>
    <TTGlyph name="bracketright" xMin="11" yMin="-182" xMax="225" yMax="900">
      <contour>
        <pt x="225" y="-182" on="1"/>
        <pt x="15" y="-182" on="1"/>
        <pt x="13" y="-175" on="0"/>
        <pt x="11" y="-162" on="0"/>
        <pt x="11" y="-155" on="1"/>
        <pt x="11" y="-149" on="0"/>
        <pt x="13" y="-137" on="0"/>
        <pt x="15" y="-131" on="1"/>
        <pt x="138" y="-131" on="1"/>
        <pt x="138" y="849" on="1"/>
        <pt x="15" y="849" on="1"/>
        <pt x="13" y="856" on="0"/>
        <pt x="11" y="869" on="0"/>
        <pt x="11" y="876" on="1"/>
        <pt x="11" y="882" on="0"/>
        <pt x="13" y="894" on="0"/>
        <pt x="15" y="900" on="1"/>
        <pt x="225" y="900" on="1"/>
      </contour>
    </TTGlyph>
    <TTGlyph name="brokenbar" xMin="94" yMin="-21" xMax="151" yMax="790">
      <contour>
        <pt x="151" y="783" on="1"/>
        <pt x="151" y="447" on="1"/>
        <pt x="125" y="438" on="0"/>
        <pt x="94" y="447" on="1"/>
        <pt x="94" y="783" on="1"/>
        <pt x="124" y="790" on="0"/>
      </contour>
      <contour>
        <pt x="151" y="324" on="1"/>
        <pt x="151" y="-12" on="1"/>
        <pt x="125" y="-21" on="0"/>
        <pt x="94" y="-12" on="1"/>
        <pt x="94" y="324" on="1"/>
        <pt x="124" y="331" on="0"/>
      </contour>
    </TTGlyph>
    <TTGlyph name="bullet" xMin="108" yMin="234" xMax="370" yMax="492">
      <contour>
        <pt x="237" y="492" on="1"/>
        <pt x="293" y="492" on="0"/>
        <pt x="370" y="419" on="0"/>
        <pt x="370" y="365" on="1"/>
        <pt x="370" y="311" on="0"/>
        <pt x="293" y="234" on="0"/>
        <pt x="239" y="234" on="1"/>
        <pt x="185" y="234" on="0"/>
        <pt x="108" y="311" on="0"/>
        <pt x="108" y="365" on="1"/>
        <pt x="108" y="419" on="0"/>
        <pt x="183" y="492" on="0"/>
      </contour>
    </TTGlyph>
    <TTGlyph name="c" xMin="41" yMin="-20" xMax="478" yMax="554">
      <contour>
        <pt x="478" y="406" on="1"/>
        <pt x="457" y="384" on="0"/>
        <pt x="379" y="385" on="1"/>
        <pt x="363" y="511" on="0"/>
        <pt x="288" y="511" on="1"/>
        <pt x="229" y="511" on="0"/>
        <pt x="147" y="375" on="0"/>
        <pt x="147" y="264" on="1"/>
        <pt x="147" y="150" on="0"/>
        <pt x="219" y="27" on="0"/>
        <pt x="291" y="27" on="1"/>
        <pt x="367" y="27" on="0"/>
        <pt x="440" y="89" on="1"/>
        <pt x="455" y="80" on="0"/>
        <pt x="463" y="58" on="1"/>
        <pt x="390" y="-20" on="0"/>
        <pt x="280" y="-20" on="1"/>
        <pt x="175" y="-20" on="0"/>
        <pt x="41" y="125" on="0"/>
        <pt x="41" y="266" on="1"/>
        <pt x="41" y="401" on="0"/>
        <pt x="190" y="554" on="0"/>
        <pt x="286" y="554" on="1"/>
        <pt x="362" y="554" on="0"/>
        <pt x="478" y="478" on="0"/>
      </contour>
    </TTGlyph>
    <TTGlyph name="caron" xMin="43" yMin="572" xMax="297" yMax="770">
      <contour>
        <pt x="142" y="579" on="1"/>
        <pt x="43" y="753" on="1"/>
        <pt x="57" y="763" on="0"/>
        <pt x="89" y="770" on="1"/>
        <pt x="170" y="658" on="1"/>
        <pt x="252" y="770" on="1"/>
        <pt x="283" y="763" on="0"/>
        <pt x="297" y="753" on="1"/>
        <pt x="198" y="579" on="1"/>
        <pt x="180" y="572" on="0"/>
        <pt x="170" y="572" on="1"/>
        <pt x="159" y="572" on="0"/>
      </contour>
    </TTGlyph>
    <TTGlyph name="caron.case" xMin="17" yMin="768" xMax="332" yMax="941">
      <contour>
        <pt x="332" y="917" on="1"/>
        <pt x="213" y="773" on="1"/>
        <pt x="203" y="768" on="0"/>
        <pt x="176" y="768" on="1"/>
        <pt x="148" y="768" on="0"/>
        <pt x="136" y="773" on="1"/>
        <pt x="17" y="917" on="1"/>
        <pt x="27" y="929" on="0"/>
        <pt x="47" y="941" on="1"/>
        <pt x="174" y="847" on="1"/>
        <pt x="302" y="941" on="1"/>
        <pt x="322" y="929" on="0"/>
      </contour>
    </TTGlyph>
    <TTGlyph name="ccedilla" xMin="41" yMin="-240" xMax="478" yMax="554">
      <contour>
        <pt x="178" y="-183" on="1"/>
        <pt x="216" y="-191" on="0"/>
        <pt x="240" y="-191" on="1"/>
        <pt x="269" y="-191" on="0"/>
        <pt x="302" y="-162" on="0"/>
        <pt x="302" y="-137" on="1"/>
        <pt x="302" y="-84" on="0"/>
        <pt x="229" y="-79" on="1"/>
        <pt x="241" y="-17" on="1"/>
        <pt x="151" y="-4" on="0"/>
        <pt x="41" y="138" on="0"/>
        <pt x="41" y="266" on="1"/>
        <pt x="41" y="401" on="0"/>
        <pt x="190" y="554" on="0"/>
        <pt x="286" y="554" on="1"/>
        <pt x="362" y="554" on="0"/>
        <pt x="478" y="478" on="0"/>
        <pt x="478" y="406" on="1"/>
        <pt x="457" y="384" on="0"/>
        <pt x="379" y="385" on="1"/>
        <pt x="363" y="511" on="0"/>
        <pt x="288" y="511" on="1"/>
        <pt x="229" y="511" on="0"/>
        <pt x="147" y="375" on="0"/>
        <pt x="147" y="264" on="1"/>
        <pt x="147" y="150" on="0"/>
        <pt x="219" y="27" on="0"/>
        <pt x="291" y="27" on="1"/>
        <pt x="367" y="27" on="0"/>
        <pt x="440" y="89" on="1"/>
        <pt x="455" y="80" on="0"/>
        <pt x="463" y="58" on="1"/>
        <pt x="395" y="-15" on="0"/>
        <pt x="295" y="-19" on="1"/>
        <pt x="292" y="-44" on="1"/>
        <pt x="342" y="-46" on="0"/>
        <pt x="397" y="-96" on="0"/>
        <pt x="397" y="-136" on="1"/>
        <pt x="397" y="-240" on="0"/>
        <pt x="255" y="-240" on="1"/>
        <pt x="231" y="-240" on="0"/>
        <pt x="178" y="-229" on="1"/>
        <pt x="170" y="-208" on="0"/>
      </contour>
    </TTGlyph>
    <TTGlyph name="cedilla" xMin="53" yMin="-230" xMax="280" yMax="9">
      <contour>
        <pt x="61" y="-173" on="1"/>
        <pt x="99" y="-181" on="0"/>
        <pt x="123" y="-181" on="1"/>
        <pt x="152" y="-181" on="0"/>
        <pt x="185" y="-152" on="0"/>
        <pt x="185" y="-127" on="1"/>
        <pt x="185" y="-74" on="0"/>
        <pt x="112" y="-69" on="1"/>
        <pt x="128" y="9" on="1"/>
        <pt x="181" y="9" on="1"/>
        <pt x="175" y="-34" on="1"/>
        <pt x="225" y="-36" on="0"/>
        <pt x="280" y="-86" on="0"/>
        <pt x="280" y="-126" on="1"/>
        <pt x="280" y="-230" on="0"/>
        <pt x="138" y="-230" on="1"/>
        <pt x="114" y="-230" on="0"/>
        <pt x="61" y="-219" on="1"/>
        <pt x="53" y="-198" on="0"/>
      </contour>
    </TTGlyph>
    <TTGlyph name="cent" xMin="52" yMin="-136" xMax="510" yMax="678">
      <contour>
        <pt x="366" y="668" on="1"/>
        <pt x="355" y="550" on="1"/>
        <pt x="422" y="539" on="0"/>
        <pt x="510" y="466" on="0"/>
        <pt x="510" y="406" on="1"/>
        <pt x="489" y="383" on="0"/>
        <pt x="407" y="385" on="1"/>
        <pt x="395" y="466" on="0"/>
        <pt x="351" y="497" on="1"/>
        <pt x="309" y="25" on="1"/>
        <pt x="310" y="25" on="1"/>
        <pt x="384" y="25" on="0"/>
        <pt x="472" y="89" on="1"/>
        <pt x="487" y="80" on="0"/>
        <pt x="495" y="58" on="1"/>
        <pt x="420" y="-15" on="0"/>
        <pt x="305" y="-20" on="1"/>
        <pt x="296" y="-128" on="1"/>
        <pt x="272" y="-136" on="0"/>
        <pt x="246" y="-128" on="1"/>
        <pt x="255" y="-17" on="1"/>
        <pt x="158" y="-5" on="0"/>
        <pt x="52" y="141" on="0"/>
        <pt x="52" y="268" on="1"/>
        <pt x="52" y="359" on="0"/>
        <pt x="130" y="493" on="0"/>
        <pt x="243" y="554" on="0"/>
        <pt x="305" y="554" on="1"/>
        <pt x="306" y="554" on="1"/>
        <pt x="316" y="668" on="1"/>
        <pt x="341" y="678" on="0"/>
      </contour>
      <contour>
        <pt x="159" y="266" on="1"/>
        <pt x="159" y="178" on="0"/>
        <pt x="212" y="57" on="0"/>
        <pt x="260" y="35" on="1"/>
        <pt x="302" y="514" on="1"/>
        <pt x="300" y="514" on="1"/>
        <pt x="239" y="514" on="0"/>
        <pt x="159" y="379" on="0"/>
      </contour>
    </TTGlyph>
    <TTGlyph name="circumflex" xMin="43" yMin="570" xMax="297" yMax="768">
      <contour>
        <pt x="43" y="587" on="1"/>
        <pt x="142" y="761" on="1"/>
        <pt x="163" y="768" on="0"/>
        <pt x="170" y="768" on="1"/>
        <pt x="175" y="768" on="0"/>
        <pt x="198" y="761" on="1"/>
        <pt x="297" y="587" on="1"/>
        <pt x="283" y="577" on="0"/>
        <pt x="252" y="570" on="1"/>
        <pt x="170" y="682" on="1"/>
        <pt x="89" y="570" on="1"/>
        <pt x="57" y="577" on="0"/>
      </contour>
    </TTGlyph>
    <TTGlyph name="circumflex.case" xMin="19" yMin="763" xMax="344" yMax="930">
      <contour>
        <pt x="181" y="848" on="1"/>
        <pt x="43" y="763" on="1"/>
        <pt x="30" y="774" on="0"/>
        <pt x="19" y="796" on="1"/>
        <pt x="155" y="924" on="1"/>
        <pt x="176" y="930" on="0"/>
        <pt x="208" y="924" on="1"/>
        <pt x="344" y="796" on="1"/>
        <pt x="333" y="774" on="0"/>
        <pt x="320" y="763" on="1"/>
      </contour>
    </TTGlyph>
    <TTGlyph name="colon" xMin="65" yMin="-13" xMax="191" yMax="500">
      <contour>
        <pt x="127" y="111" on="1"/>
        <pt x="154" y="111" on="0"/>
        <pt x="191" y="76" on="0"/>
        <pt x="191" y="50" on="1"/>
        <pt x="191" y="24" on="0"/>
        <pt x="154" y="-13" on="0"/>
        <pt x="128" y="-13" on="1"/>
        <pt x="102" y="-13" on="0"/>
        <pt x="65" y="24" on="0"/>
        <pt x="65" y="50" on="1"/>
        <pt x="65" y="76" on="0"/>
        <pt x="101" y="111" on="0"/>
      </contour>
      <contour>
        <pt x="127" y="500" on="1"/>
        <pt x="154" y="500" on="0"/>
        <pt x="191" y="465" on="0"/>
        <pt x="191" y="439" on="1"/>
        <pt x="191" y="413" on="0"/>
        <pt x="154" y="376" on="0"/>
        <pt x="128" y="376" on="1"/>
        <pt x="102" y="376" on="0"/>
        <pt x="65" y="413" on="0"/>
        <pt x="65" y="439" on="1"/>
        <pt x="65" y="465" on="0"/>
        <pt x="101" y="500" on="0"/>
      </contour>
    </TTGlyph>
    <TTGlyph name="comma" xMin="28" yMin="-146" xMax="176" yMax="111">
      <contour>
        <pt x="58" y="-146" on="1"/>
        <pt x="36" y="-143" on="0"/>
        <pt x="28" y="-117" on="1"/>
        <pt x="95" y="-80" on="0"/>
        <pt x="116" y="-13" on="1"/>
        <pt x="113" y="-13" on="1"/>
        <pt x="87" y="-13" on="0"/>
        <pt x="50" y="24" on="0"/>
        <pt x="50" y="50" on="1"/>
        <pt x="50" y="76" on="0"/>
        <pt x="86" y="111" on="0"/>
        <pt x="112" y="111" on="1"/>
        <pt x="139" y="111" on="0"/>
        <pt x="176" y="74" on="0"/>
        <pt x="176" y="45" on="1"/>
        <pt x="176" y="-20" on="0"/>
        <pt x="114" y="-107" on="0"/>
      </contour>
    </TTGlyph>
    <TTGlyph name="copyright" xMin="53" yMin="-15" xMax="842" yMax="773">
      <contour>
        <pt x="586" y="245" on="1"/>
        <pt x="606" y="230" on="0"/>
        <pt x="612" y="213" on="1"/>
        <pt x="530" y="139" on="0"/>
        <pt x="450" y="139" on="1"/>
        <pt x="396" y="139" on="0"/>
        <pt x="313" y="178" on="0"/>
        <pt x="258" y="243" on="0"/>
        <pt x="229" y="329" on="0"/>
        <pt x="229" y="376" on="1"/>
        <pt x="229" y="423" on="0"/>
        <pt x="262" y="510" on="0"/>
        <pt x="323" y="577" on="0"/>
        <pt x="409" y="617" on="0"/>
        <pt x="463" y="617" on="1"/>
        <pt x="536" y="617" on="0"/>
        <pt x="600" y="583" on="1"/>
        <pt x="600" y="473" on="1"/>
        <pt x="589" y="470" on="0"/>
        <pt x="579" y="470" on="1"/>
        <pt x="568" y="470" on="0"/>
        <pt x="558" y="473" on="1"/>
        <pt x="539" y="555" on="1"/>
        <pt x="505" y="578" on="0"/>
        <pt x="456" y="578" on="1"/>
        <pt x="426" y="578" on="0"/>
        <pt x="376" y="549" on="0"/>
        <pt x="340" y="498" on="0"/>
        <pt x="320" y="428" on="0"/>
        <pt x="320" y="386" on="1"/>
        <pt x="320" y="290" on="0"/>
        <pt x="390" y="187" on="0"/>
        <pt x="450" y="187" on="1"/>
        <pt x="524" y="187" on="0"/>
      </contour>
      <contour>
        <pt x="842" y="379" on="1"/>
        <pt x="842" y="271" on="0"/>
        <pt x="732" y="89" on="0"/>
        <pt x="551" y="-15" on="0"/>
        <pt x="447" y="-15" on="1"/>
        <pt x="339" y="-15" on="0"/>
        <pt x="157" y="94" on="0"/>
        <pt x="53" y="276" on="0"/>
        <pt x="53" y="379" on="1"/>
        <pt x="53" y="543" on="0"/>
        <pt x="288" y="773" on="0"/>
        <pt x="447" y="773" on="1"/>
        <pt x="611" y="773" on="0"/>
        <pt x="842" y="538" on="0"/>
      </contour>
      <contour>
        <pt x="791" y="379" on="1"/>
        <pt x="791" y="518" on="0"/>
        <pt x="590" y="723" on="0"/>
        <pt x="447" y="723" on="1"/>
        <pt x="308" y="723" on="0"/>
        <pt x="104" y="522" on="0"/>
        <pt x="104" y="379" on="1"/>
        <pt x="104" y="240" on="0"/>
        <pt x="304" y="35" on="0"/>
        <pt x="447" y="35" on="1"/>
        <pt x="585" y="35" on="0"/>
        <pt x="791" y="236" on="0"/>
      </contour>
    </TTGlyph>
    <TTGlyph name="currency" xMin="65" yMin="131" xMax="521" yMax="587">
      <contour>
        <pt x="503" y="359" on="1"/>
        <pt x="503" y="286" on="0"/>
        <pt x="458" y="228" on="1"/>
        <pt x="518" y="168" on="1"/>
        <pt x="514" y="143" on="0"/>
        <pt x="483" y="132" on="1"/>
        <pt x="422" y="193" on="1"/>
        <pt x="363" y="148" on="0"/>
        <pt x="293" y="148" on="1"/>
        <pt x="219" y="148" on="0"/>
        <pt x="163" y="192" on="1"/>
        <pt x="102" y="131" on="1"/>
        <pt x="73" y="146" on="0"/>
        <pt x="66" y="167" on="1"/>
        <pt x="127" y="228" on="1"/>
        <pt x="82" y="286" on="0"/>
        <pt x="82" y="359" on="1"/>
        <pt x="82" y="432" on="0"/>
        <pt x="127" y="488" on="1"/>
        <pt x="65" y="551" on="1"/>
        <pt x="73" y="572" on="0"/>
        <pt x="101" y="586" on="1"/>
        <pt x="163" y="524" on="1"/>
        <pt x="221" y="568" on="0"/>
        <pt x="293" y="568" on="1"/>
        <pt x="363" y="568" on="0"/>
        <pt x="422" y="523" on="1"/>
        <pt x="486" y="587" on="1"/>
        <pt x="508" y="576" on="0"/>
        <pt x="521" y="551" on="1"/>
        <pt x="458" y="488" on="1"/>
        <pt x="503" y="429" on="0"/>
      </contour>
      <contour>
        <pt x="293" y="513" on="1"/>
        <pt x="261" y="513" on="0"/>
        <pt x="204" y="489" on="0"/>
        <pt x="162" y="447" on="0"/>
        <pt x="137" y="391" on="0"/>
        <pt x="137" y="359" on="1"/>
        <pt x="137" y="327" on="0"/>
        <pt x="162" y="270" on="0"/>
        <pt x="204" y="228" on="0"/>
        <pt x="261" y="204" on="0"/>
        <pt x="293" y="204" on="1"/>
        <pt x="325" y="204" on="0"/>
        <pt x="382" y="229" on="0"/>
        <pt x="424" y="272" on="0"/>
        <pt x="448" y="328" on="0"/>
        <pt x="448" y="359" on="1"/>
        <pt x="448" y="390" on="0"/>
        <pt x="423" y="446" on="0"/>
        <pt x="381" y="488" on="0"/>
        <pt x="325" y="513" on="0"/>
      </contour>
    </TTGlyph>
    <TTGlyph name="d" xMin="44" yMin="-21" xMax="611" yMax="816">
      <contour>
        <pt x="526" y="142" on="1"/>
        <pt x="526" y="75" on="0"/>
        <pt x="529" y="48" on="1"/>
        <pt x="608" y="38" on="1"/>
        <pt x="611" y="22" on="0"/>
        <pt x="608" y="0" on="1"/>
        <pt x="535" y="-3" on="0"/>
        <pt x="456" y="-14" on="1"/>
        <pt x="449" y="-7" on="0"/>
        <pt x="446" y="5" on="1"/>
        <pt x="441" y="69" on="1"/>
        <pt x="406" y="28" on="0"/>
        <pt x="302" y="-21" on="0"/>
        <pt x="245" y="-21" on="1"/>
        <pt x="158" y="-21" on="0"/>
        <pt x="44" y="124" on="0"/>
        <pt x="44" y="245" on="1"/>
        <pt x="44" y="385" on="0"/>
        <pt x="193" y="554" on="0"/>
        <pt x="297" y="554" on="1"/>
        <pt x="379" y="554" on="0"/>
        <pt x="431" y="515" on="1"/>
        <pt x="431" y="649" on="1"/>
        <pt x="431" y="715" on="0"/>
        <pt x="428" y="747" on="1"/>
        <pt x="349" y="757" on="1"/>
        <pt x="345" y="772" on="0"/>
        <pt x="349" y="795" on="1"/>
        <pt x="418" y="800" on="0"/>
        <pt x="521" y="816" on="1"/>
        <pt x="530" y="806" on="0"/>
        <pt x="531" y="796" on="1"/>
        <pt x="526" y="770" on="0"/>
        <pt x="526" y="634" on="1"/>
      </contour>
      <contour>
        <pt x="289" y="500" on="1"/>
        <pt x="224" y="500" on="0"/>
        <pt x="146" y="363" on="0"/>
        <pt x="146" y="242" on="1"/>
        <pt x="146" y="143" on="0"/>
        <pt x="219" y="39" on="0"/>
        <pt x="279" y="39" on="1"/>
        <pt x="315" y="39" on="0"/>
        <pt x="401" y="84" on="0"/>
        <pt x="431" y="124" on="1"/>
        <pt x="431" y="444" on="1"/>
        <pt x="382" y="500" on="0"/>
      </contour>
    </TTGlyph>
    <TTGlyph name="degree" xMin="15" yMin="439" xMax="367" yMax="791">
      <contour>
        <pt x="367" y="617" on="1"/>
        <pt x="367" y="581" on="0"/>
        <pt x="339" y="516" on="0"/>
        <pt x="292" y="468" on="0"/>
        <pt x="228" y="439" on="0"/>
        <pt x="192" y="439" on="1"/>
        <pt x="156" y="439" on="0"/>
        <pt x="91" y="467" on="0"/>
        <pt x="43" y="515" on="0"/>
        <pt x="15" y="580" on="0"/>
        <pt x="15" y="616" on="1"/>
        <pt x="15" y="653" on="0"/>
        <pt x="44" y="717" on="0"/>
        <pt x="92" y="764" on="0"/>
        <pt x="156" y="791" on="0"/>
        <pt x="191" y="791" on="1"/>
        <pt x="227" y="791" on="0"/>
        <pt x="291" y="763" on="0"/>
        <pt x="339" y="715" on="0"/>
        <pt x="367" y="652" on="0"/>
      </contour>
      <contour>
        <pt x="303" y="618" on="1"/>
        <pt x="303" y="640" on="0"/>
        <pt x="285" y="682" on="0"/>
        <pt x="255" y="714" on="0"/>
        <pt x="214" y="733" on="0"/>
        <pt x="191" y="733" on="1"/>
        <pt x="169" y="733" on="0"/>
        <pt x="129" y="714" on="0"/>
        <pt x="98" y="682" on="0"/>
        <pt x="79" y="639" on="0"/>
        <pt x="79" y="616" on="1"/>
        <pt x="79" y="593" on="0"/>
        <pt x="97" y="551" on="0"/>
        <pt x="127" y="517" on="0"/>
        <pt x="168" y="497" on="0"/>
        <pt x="192" y="497" on="1"/>
        <pt x="215" y="497" on="0"/>
        <pt x="256" y="517" on="0"/>
        <pt x="286" y="551" on="0"/>
        <pt x="303" y="594" on="0"/>
      </contour>
    </TTGlyph>
    <TTGlyph name="dieresis" xMin="43" yMin="606" xMax="362" yMax="731">
      <contour>
        <pt x="108" y="731" on="1"/>
        <pt x="134" y="731" on="0"/>
        <pt x="169" y="696" on="0"/>
        <pt x="169" y="669" on="1"/>
        <pt x="169" y="642" on="0"/>
        <pt x="134" y="606" on="0"/>
        <pt x="108" y="606" on="1"/>
        <pt x="81" y="606" on="0"/>
        <pt x="43" y="642" on="0"/>
        <pt x="43" y="669" on="1"/>
        <pt x="43" y="696" on="0"/>
        <pt x="81" y="731" on="0"/>
      </contour>
      <contour>
        <pt x="300" y="731" on="1"/>
        <pt x="326" y="731" on="0"/>
        <pt x="362" y="696" on="0"/>
        <pt x="362" y="669" on="1"/>
        <pt x="362" y="642" on="0"/>
        <pt x="326" y="606" on="0"/>
        <pt x="300" y="606" on="1"/>
        <pt x="273" y="606" on="0"/>
        <pt x="236" y="642" on="0"/>
        <pt x="236" y="669" on="1"/>
        <pt x="236" y="696" on="0"/>
        <pt x="273" y="731" on="0"/>
      </contour>
    </TTGlyph>
    <TTGlyph name="dieresis.case" xMin="17" yMin="784" xMax="356" yMax="909">
      <contour>
        <pt x="82" y="909" on="1"/>
        <pt x="108" y="909" on="0"/>
        <pt x="143" y="874" on="0"/>
        <pt x="143" y="847" on="1"/>
        <pt x="143" y="820" on="0"/>
        <pt x="108" y="784" on="0"/>
        <pt x="82" y="784" on="1"/>
        <pt x="55" y="784" on="0"/>
        <pt x="17" y="820" on="0"/>
        <pt x="17" y="847" on="1"/>
        <pt x="17" y="874" on="0"/>
        <pt x="55" y="909" on="0"/>
      </contour>
      <contour>
        <pt x="294" y="909" on="1"/>
        <pt x="320" y="909" on="0"/>
        <pt x="356" y="874" on="0"/>
        <pt x="356" y="847" on="1"/>
        <pt x="356" y="820" on="0"/>
        <pt x="320" y="784" on="0"/>
        <pt x="294" y="784" on="1"/>
        <pt x="267" y="784" on="0"/>
        <pt x="230" y="820" on="0"/>
        <pt x="230" y="847" on="1"/>
        <pt x="230" y="874" on="0"/>
        <pt x="267" y="909" on="0"/>
      </contour>
    </TTGlyph>
    <TTGlyph name="divide" xMin="59" yMin="141" xMax="559" yMax="639">
      <contour>
        <pt x="555" y="365" on="1"/>
        <pt x="64" y="365" on="1"/>
        <pt x="59" y="382" on="0"/>
        <pt x="59" y="392" on="1"/>
        <pt x="59" y="403" on="0"/>
        <pt x="64" y="415" on="1"/>
        <pt x="555" y="415" on="1"/>
        <pt x="557" y="409" on="0"/>
        <pt x="559" y="397" on="0"/>
        <pt x="559" y="391" on="1"/>
        <pt x="559" y="384" on="0"/>
        <pt x="557" y="372" on="0"/>
      </contour>
      <contour>
        <pt x="307" y="265" on="1"/>
        <pt x="334" y="265" on="0"/>
        <pt x="371" y="230" on="0"/>
        <pt x="371" y="204" on="1"/>
        <pt x="371" y="178" on="0"/>
        <pt x="334" y="141" on="0"/>
        <pt x="308" y="141" on="1"/>
        <pt x="282" y="141" on="0"/>
        <pt x="245" y="178" on="0"/>
        <pt x="245" y="204" on="1"/>
        <pt x="245" y="230" on="0"/>
        <pt x="281" y="265" on="0"/>
      </contour>
      <contour>
        <pt x="307" y="639" on="1"/>
        <pt x="334" y="639" on="0"/>
        <pt x="371" y="604" on="0"/>
        <pt x="371" y="578" on="1"/>
        <pt x="371" y="552" on="0"/>
        <pt x="334" y="515" on="0"/>
        <pt x="308" y="515" on="1"/>
        <pt x="282" y="515" on="0"/>
        <pt x="245" y="552" on="0"/>
        <pt x="245" y="578" on="1"/>
        <pt x="245" y="604" on="0"/>
        <pt x="281" y="639" on="0"/>
      </contour>
    </TTGlyph>
    <TTGlyph name="dollar" xMin="74" yMin="-89" xMax="616" yMax="906">
      <contour>
        <pt x="305" y="-85" on="1"/>
        <pt x="305" y="-20" on="1"/>
        <pt x="180" y="-18" on="0"/>
        <pt x="74" y="39" on="1"/>
        <pt x="74" y="231" on="1"/>
        <pt x="90" y="234" on="0"/>
        <pt x="105" y="234" on="1"/>
        <pt x="119" y="234" on="0"/>
        <pt x="131" y="231" on="1"/>
        <pt x="163" y="69" on="1"/>
        <pt x="216" y="32" on="0"/>
        <pt x="305" y="29" on="1"/>
        <pt x="305" y="368" on="1"/>
        <pt x="170" y="453" on="1"/>
        <pt x="77" y="508" on="0"/>
        <pt x="77" y="631" on="1"/>
        <pt x="77" y="671" on="0"/>
        <pt x="113" y="735" on="0"/>
        <pt x="175" y="782" on="0"/>
        <pt x="258" y="809" on="0"/>
        <pt x="305" y="814" on="1"/>
        <pt x="305" y="901" on="1"/>
        <pt x="318" y="906" on="0"/>
        <pt x="330" y="906" on="1"/>
        <pt x="340" y="906" on="0"/>
        <pt x="355" y="901" on="1"/>
        <pt x="355" y="816" on="1"/>
        <pt x="467" y="813" on="0"/>
        <pt x="574" y="756" on="1"/>
        <pt x="574" y="564" on="1"/>
        <pt x="556" y="561" on="0"/>
        <pt x="542" y="561" on="1"/>
        <pt x="527" y="561" on="0"/>
        <pt x="517" y="564" on="1"/>
        <pt x="485" y="731" on="1"/>
        <pt x="427" y="769" on="0"/>
        <pt x="355" y="772" on="1"/>
        <pt x="355" y="478" on="1"/>
        <pt x="494" y="393" on="1"/>
        <pt x="554" y="356" on="0"/>
        <pt x="616" y="265" on="0"/>
        <pt x="616" y="208" on="1"/>
        <pt x="616" y="161" on="0"/>
        <pt x="579" y="83" on="0"/>
        <pt x="510" y="24" on="0"/>
        <pt x="414" y="-13" on="0"/>
        <pt x="355" y="-18" on="1"/>
        <pt x="355" y="-85" on="1"/>
        <pt x="343" y="-89" on="0"/>
        <pt x="329" y="-89" on="1"/>
        <pt x="316" y="-89" on="0"/>
      </contour>
      <contour>
        <pt x="409" y="303" on="1"/>
        <pt x="355" y="337" on="1"/>
        <pt x="355" y="29" on="1"/>
        <pt x="391" y="32" on="0"/>
        <pt x="444" y="56" on="0"/>
        <pt x="480" y="94" on="0"/>
        <pt x="498" y="141" on="0"/>
        <pt x="498" y="168" on="1"/>
        <pt x="498" y="194" on="0"/>
        <pt x="488" y="232" on="0"/>
        <pt x="467" y="263" on="0"/>
        <pt x="433" y="289" on="0"/>
      </contour>
      <contour>
        <pt x="186" y="656" on="1"/>
        <pt x="186" y="582" on="0"/>
        <pt x="250" y="543" on="1"/>
        <pt x="305" y="509" on="1"/>
        <pt x="305" y="769" on="1"/>
        <pt x="251" y="762" on="0"/>
        <pt x="186" y="704" on="0"/>
      </contour>
    </TTGlyph>
    <TTGlyph name="dotlessi" xMin="27" yMin="-4" xMax="291" yMax="554">
      <contour>
        <pt x="208" y="372" on="1"/>
        <pt x="208" y="51" on="1"/>
        <pt x="289" y="36" on="1"/>
        <pt x="290" y="31" on="0"/>
        <pt x="291" y="23" on="0"/>
        <pt x="291" y="18" on="1"/>
        <pt x="291" y="13" on="0"/>
        <pt x="290" y="2" on="0"/>
        <pt x="289" y="-4" on="1"/>
        <pt x="226" y="-1" on="0"/>
        <pt x="160" y="-1" on="1"/>
        <pt x="137" y="-1" on="0"/>
        <pt x="72" y="-2" on="0"/>
        <pt x="30" y="-3" on="1"/>
        <pt x="27" y="6" on="0"/>
        <pt x="27" y="16" on="1"/>
        <pt x="27" y="25" on="0"/>
        <pt x="30" y="36" on="1"/>
        <pt x="109" y="47" on="1"/>
        <pt x="111" y="75" on="0"/>
        <pt x="113" y="138" on="0"/>
        <pt x="113" y="174" on="1"/>
        <pt x="113" y="387" on="1"/>
        <pt x="113" y="453" on="0"/>
        <pt x="110" y="485" on="1"/>
        <pt x="31" y="495" on="1"/>
        <pt x="29" y="500" on="0"/>
        <pt x="29" y="512" on="1"/>
        <pt x="29" y="517" on="0"/>
        <pt x="29" y="527" on="0"/>
        <pt x="31" y="533" on="1"/>
        <pt x="99" y="537" on="0"/>
        <pt x="203" y="554" on="1"/>
        <pt x="212" y="544" on="0"/>
        <pt x="213" y="534" on="1"/>
        <pt x="208" y="506" on="0"/>
      </contour>
    </TTGlyph>
    <TTGlyph name="e" xMin="45" yMin="-20" xMax="482" yMax="554">
      <contour>
        <pt x="461" y="282" on="1"/>
        <pt x="147" y="282" on="1"/>
        <pt x="138" y="27" on="0"/>
        <pt x="300" y="27" on="1"/>
        <pt x="369" y="27" on="0"/>
        <pt x="441" y="88" on="1"/>
        <pt x="456" y="79" on="0"/>
        <pt x="464" y="57" on="1"/>
        <pt x="395" y="-20" on="0"/>
        <pt x="289" y="-20" on="1"/>
        <pt x="45" y="-20" on="0"/>
        <pt x="45" y="267" on="1"/>
        <pt x="45" y="403" on="0"/>
        <pt x="189" y="554" on="0"/>
        <pt x="285" y="554" on="1"/>
        <pt x="390" y="554" on="0"/>
        <pt x="482" y="408" on="0"/>
        <pt x="482" y="291" on="1"/>
        <pt x="472" y="283" on="0"/>
      </contour>
      <contour>
        <pt x="283" y="514" on="1"/>
        <pt x="231" y="514" on="0"/>
        <pt x="158" y="406" on="0"/>
        <pt x="150" y="322" on="1"/>
        <pt x="274" y="322" on="1"/>
        <pt x="348" y="322" on="0"/>
        <pt x="380" y="331" on="1"/>
        <pt x="380" y="413" on="0"/>
        <pt x="330" y="514" on="0"/>
      </contour>
    </TTGlyph>
    <TTGlyph name="eacute" xMin="50" yMin="-20" xMax="487" yMax="814">
      <component glyphName="e" x="5" y="0" flags="0x4"/>
      <component glyphName="acute" x="193" y="33" flags="0x4"/>
    </TTGlyph>
    <TTGlyph name="ecircumflex" xMin="50" yMin="-20" xMax="487" yMax="801">
      <component glyphName="e" x="5" y="0" flags="0x4"/>
      <component glyphName="circumflex" x="115" y="33" flags="0x4"/>
    </TTGlyph>
    <TTGlyph name="edieresis" xMin="50" yMin="-20" xMax="487" yMax="764">
      <component glyphName="e" x="5" y="0" flags="0x4"/>
      <component glyphName="dieresis" x="92" y="33" flags="0x4"/>
    </TTGlyph>
    <TTGlyph name="egrave" xMin="50" yMin="-20" xMax="487" yMax="814">
      <component glyphName="e" x="5" y="0" flags="0x4"/>
      <component glyphName="grave" x="209" y="33" flags="0x4"/>
    </TTGlyph>
    <TTGlyph name="eight" xMin="55" yMin="-20" xMax="570" yMax="819">
      <contour>
        <pt x="55" y="197" on="1"/>
        <pt x="55" y="266" on="0"/>
        <pt x="134" y="370" on="0"/>
        <pt x="201" y="401" on="1"/>
        <pt x="143" y="439" on="0"/>
        <pt x="78" y="535" on="0"/>
        <pt x="78" y="606" on="1"/>
        <pt x="78" y="693" on="0"/>
        <pt x="209" y="819" on="0"/>
        <pt x="309" y="819" on="1"/>
        <pt x="420" y="819" on="0"/>
        <pt x="536" y="709" on="0"/>
        <pt x="536" y="620" on="1"/>
        <pt x="536" y="494" on="0"/>
        <pt x="406" y="414" on="1"/>
        <pt x="490" y="368" on="0"/>
        <pt x="570" y="273" on="0"/>
        <pt x="570" y="207" on="1"/>
        <pt x="570" y="117" on="0"/>
        <pt x="431" y="-20" on="0"/>
        <pt x="306" y="-20" on="1"/>
        <pt x="186" y="-20" on="0"/>
        <pt x="55" y="100" on="0"/>
      </contour>
      <contour>
        <pt x="294" y="349" on="1"/>
        <pt x="263" y="364" on="0"/>
        <pt x="238" y="379" on="1"/>
        <pt x="204" y="349" on="0"/>
        <pt x="164" y="248" on="0"/>
        <pt x="164" y="194" on="1"/>
        <pt x="164" y="121" on="0"/>
        <pt x="238" y="22" on="0"/>
        <pt x="309" y="22" on="1"/>
        <pt x="388" y="22" on="0"/>
        <pt x="466" y="101" on="0"/>
        <pt x="466" y="171" on="1"/>
        <pt x="466" y="228" on="0"/>
        <pt x="389" y="299" on="0"/>
      </contour>
      <contour>
        <pt x="184" y="632" on="1"/>
        <pt x="184" y="571" on="0"/>
        <pt x="269" y="486" on="0"/>
        <pt x="370" y="433" on="1"/>
        <pt x="432" y="493" on="0"/>
        <pt x="432" y="598" on="1"/>
        <pt x="432" y="680" on="0"/>
        <pt x="370" y="776" on="0"/>
        <pt x="309" y="776" on="1"/>
        <pt x="252" y="776" on="0"/>
        <pt x="184" y="707" on="0"/>
      </contour>
    </TTGlyph>
    <TTGlyph name="emdash" xMin="61" yMin="357" xMax="709" yMax="407">
      <contour>
        <pt x="701" y="357" on="1"/>
        <pt x="70" y="357" on="1"/>
        <pt x="61" y="387" on="0"/>
        <pt x="70" y="407" on="1"/>
        <pt x="701" y="407" on="1"/>
        <pt x="709" y="384" on="0"/>
      </contour>
    </TTGlyph>
    <TTGlyph name="endash" xMin="61" yMin="357" xMax="509" yMax="407">
      <contour>
        <pt x="501" y="357" on="1"/>
        <pt x="70" y="357" on="1"/>
        <pt x="61" y="387" on="0"/>
        <pt x="70" y="407" on="1"/>
        <pt x="501" y="407" on="1"/>
        <pt x="509" y="384" on="0"/>
      </contour>
    </TTGlyph>
    <TTGlyph name="equal" xMin="72" yMin="287" xMax="480" yMax="475">
      <contour>
        <pt x="472" y="425" on="1"/>
        <pt x="81" y="425" on="1"/>
        <pt x="72" y="455" on="0"/>
        <pt x="81" y="475" on="1"/>
        <pt x="472" y="475" on="1"/>
        <pt x="480" y="452" on="0"/>
      </contour>
      <contour>
        <pt x="472" y="287" on="1"/>
        <pt x="81" y="287" on="1"/>
        <pt x="72" y="317" on="0"/>
        <pt x="81" y="337" on="1"/>
        <pt x="472" y="337" on="1"/>
        <pt x="480" y="314" on="0"/>
      </contour>
    </TTGlyph>
    <TTGlyph name="eth" xMin="45" yMin="-20" xMax="557" yMax="845">
      <contour>
        <pt x="190" y="646" on="1"/>
        <pt x="265" y="726" on="1"/>
        <pt x="233" y="746" on="0"/>
        <pt x="162" y="773" on="0"/>
        <pt x="124" y="778" on="1"/>
        <pt x="120" y="786" on="0"/>
        <pt x="120" y="797" on="1"/>
        <pt x="120" y="808" on="0"/>
        <pt x="124" y="817" on="1"/>
        <pt x="218" y="814" on="0"/>
        <pt x="300" y="763" on="1"/>
        <pt x="378" y="845" on="1"/>
        <pt x="404" y="842" on="0"/>
        <pt x="412" y="813" on="1"/>
        <pt x="338" y="737" on="1"/>
        <pt x="389" y="696" on="0"/>
        <pt x="470" y="591" on="0"/>
        <pt x="527" y="469" on="0"/>
        <pt x="557" y="335" on="0"/>
        <pt x="557" y="266" on="1"/>
        <pt x="557" y="205" on="0"/>
        <pt x="519" y="100" on="0"/>
        <pt x="451" y="24" on="0"/>
        <pt x="356" y="-20" on="0"/>
        <pt x="300" y="-20" on="1"/>
        <pt x="241" y="-20" on="0"/>
        <pt x="146" y="22" on="0"/>
        <pt x="80" y="98" on="0"/>
        <pt x="45" y="203" on="0"/>
        <pt x="45" y="266" on="1"/>
        <pt x="45" y="320" on="0"/>
        <pt x="78" y="414" on="0"/>
        <pt x="141" y="484" on="0"/>
        <pt x="232" y="524" on="0"/>
        <pt x="290" y="524" on="1"/>
        <pt x="364" y="524" on="0"/>
        <pt x="437" y="475" on="1"/>
        <pt x="396" y="619" on="0"/>
        <pt x="301" y="699" on="1"/>
        <pt x="224" y="619" on="1"/>
        <pt x="213" y="619" on="0"/>
        <pt x="192" y="637" on="0"/>
      </contour>
      <contour>
        <pt x="151" y="266" on="1"/>
        <pt x="151" y="204" on="0"/>
        <pt x="174" y="113" on="0"/>
        <pt x="214" y="52" on="0"/>
        <pt x="268" y="22" on="0"/>
        <pt x="300" y="22" on="1"/>
        <pt x="331" y="22" on="0"/>
        <pt x="387" y="52" on="0"/>
        <pt x="427" y="113" on="0"/>
        <pt x="451" y="204" on="0"/>
        <pt x="451" y="266" on="1"/>
        <pt x="451" y="320" on="0"/>
        <pt x="427" y="401" on="0"/>
        <pt x="387" y="455" on="0"/>
        <pt x="331" y="482" on="0"/>
        <pt x="300" y="482" on="1"/>
        <pt x="268" y="482" on="0"/>
        <pt x="214" y="455" on="0"/>
        <pt x="174" y="401" on="0"/>
        <pt x="151" y="320" on="0"/>
      </contour>
    </TTGlyph>
    <TTGlyph name="exclam" xMin="73" yMin="-13" xMax="199" yMax="811">
      <contour>
        <pt x="114" y="189" on="1"/>
        <pt x="77" y="799" on="1"/>
        <pt x="105" y="811" on="0"/>
        <pt x="135" y="811" on="1"/>
        <pt x="163" y="811" on="0"/>
        <pt x="184" y="799" on="1"/>
        <pt x="158" y="189" on="1"/>
        <pt x="147" y="186" on="0"/>
        <pt x="137" y="186" on="1"/>
        <pt x="126" y="186" on="0"/>
      </contour>
      <contour>
        <pt x="135" y="111" on="1"/>
        <pt x="162" y="111" on="0"/>
        <pt x="199" y="76" on="0"/>
        <pt x="199" y="50" on="1"/>
        <pt x="199" y="24" on="0"/>
        <pt x="162" y="-13" on="0"/>
        <pt x="136" y="-13" on="1"/>
        <pt x="110" y="-13" on="0"/>
        <pt x="73" y="24" on="0"/>
        <pt x="73" y="50" on="1"/>
        <pt x="73" y="76" on="0"/>
        <pt x="109" y="111" on="0"/>
      </contour>
    </TTGlyph>
    <TTGlyph name="exclamdown" xMin="55" yMin="-278" xMax="181" yMax="545">
      <component glyphName="exclam" x="254" y="533" scale="-0.999938964844" flags="0x4"/>
    </TTGlyph>
    <TTGlyph name="f" xMin="26" yMin="-4" xMax="426" yMax="816">
      <contour>
        <pt x="277" y="816" on="1"/>
        <pt x="426" y="816" on="0"/>
        <pt x="426" y="698" on="1"/>
        <pt x="405" y="676" on="0"/>
        <pt x="326" y="677" on="1"/>
        <pt x="316" y="782" on="0"/>
        <pt x="275" y="782" on="1"/>
        <pt x="237" y="782" on="0"/>
        <pt x="206" y="661" on="0"/>
        <pt x="206" y="501" on="1"/>
        <pt x="347" y="501" on="1"/>
        <pt x="353" y="482" on="0"/>
        <pt x="347" y="462" on="1"/>
        <pt x="206" y="441" on="1"/>
        <pt x="206" y="56" on="1"/>
        <pt x="327" y="36" on="1"/>
        <pt x="333" y="16" on="0"/>
        <pt x="327" y="-4" on="1"/>
        <pt x="264" y="-1" on="0"/>
        <pt x="172" y="-1" on="1"/>
        <pt x="118" y="-1" on="0"/>
        <pt x="34" y="-3" on="1"/>
        <pt x="26" y="15" on="0"/>
        <pt x="34" y="36" on="1"/>
        <pt x="107" y="52" on="1"/>
        <pt x="111" y="105" on="0"/>
        <pt x="111" y="174" on="1"/>
        <pt x="111" y="451" on="1"/>
        <pt x="40" y="462" on="1"/>
        <pt x="34" y="482" on="0"/>
        <pt x="40" y="501" on="1"/>
        <pt x="111" y="501" on="1"/>
        <pt x="111" y="569" on="1"/>
        <pt x="111" y="629" on="0"/>
        <pt x="145" y="738" on="0"/>
        <pt x="224" y="816" on="0"/>
      </contour>
    </TTGlyph>
    <TTGlyph name="five" xMin="22" yMin="-20" xMax="498" yMax="796">
      <contour>
        <pt x="221" y="697" on="1"/>
        <pt x="149" y="697" on="1"/>
        <pt x="148" y="514" on="1"/>
        <pt x="196" y="518" on="0"/>
        <pt x="215" y="518" on="1"/>
        <pt x="361" y="518" on="0"/>
        <pt x="498" y="377" on="0"/>
        <pt x="498" y="257" on="1"/>
        <pt x="498" y="130" on="0"/>
        <pt x="366" y="-20" on="0"/>
        <pt x="238" y="-20" on="1"/>
        <pt x="144" y="-20" on="0"/>
        <pt x="22" y="57" on="0"/>
        <pt x="22" y="131" on="1"/>
        <pt x="43" y="154" on="0"/>
        <pt x="125" y="152" on="1"/>
        <pt x="140" y="74" on="0"/>
        <pt x="198" y="22" on="0"/>
        <pt x="250" y="22" on="1"/>
        <pt x="391" y="22" on="0"/>
        <pt x="391" y="248" on="1"/>
        <pt x="391" y="465" on="0"/>
        <pt x="180" y="465" on="1"/>
        <pt x="138" y="465" on="0"/>
        <pt x="86" y="456" on="1"/>
        <pt x="86" y="796" on="1"/>
        <pt x="470" y="796" on="1"/>
        <pt x="470" y="747" on="0"/>
        <pt x="472" y="683" on="1"/>
        <pt x="425" y="692" on="0"/>
        <pt x="363" y="696" on="1"/>
      </contour>
    </TTGlyph>
    <TTGlyph name="foundryicon" xMin="51" yMin="138" xMax="1007" yMax="316">
      <contour>
        <pt x="1007" y="251" on="1"/>
        <pt x="991" y="251" on="1"/>
        <pt x="992" y="249" on="0"/>
        <pt x="992" y="246" on="1"/>
        <pt x="992" y="232" on="0"/>
        <pt x="970" y="211" on="0"/>
        <pt x="947" y="211" on="1"/>
        <pt x="938" y="211" on="0"/>
        <pt x="935" y="212" on="1"/>
        <pt x="935" y="197" on="1"/>
        <pt x="953" y="197" on="1"/>
        <pt x="992" y="197" on="0"/>
        <pt x="992" y="161" on="1"/>
        <pt x="992" y="153" on="0"/>
        <pt x="988" y="142" on="0"/>
        <pt x="986" y="138" on="1"/>
        <pt x="959" y="138" on="1"/>
        <pt x="959" y="167" on="1"/>
        <pt x="913" y="167" on="1"/>
        <pt x="908" y="171" on="0"/>
        <pt x="903" y="183" on="0"/>
        <pt x="903" y="189" on="1"/>
        <pt x="903" y="207" on="0"/>
        <pt x="917" y="219" on="1"/>
        <pt x="903" y="227" on="0"/>
        <pt x="903" y="247" on="1"/>
        <pt x="903" y="263" on="0"/>
        <pt x="926" y="284" on="0"/>
        <pt x="946" y="284" on="1"/>
        <pt x="964" y="284" on="0"/>
        <pt x="977" y="274" on="1"/>
        <pt x="985" y="284" on="0"/>
        <pt x="996" y="284" on="1"/>
        <pt x="1000" y="284" on="0"/>
        <pt x="1004" y="283" on="0"/>
        <pt x="1007" y="282" on="1"/>
      </contour>
      <contour>
        <pt x="245" y="175" on="1"/>
        <pt x="239" y="153" on="0"/>
        <pt x="216" y="138" on="0"/>
        <pt x="202" y="138" on="1"/>
        <pt x="183" y="138" on="0"/>
        <pt x="176" y="145" on="1"/>
        <pt x="176" y="171" on="1"/>
        <pt x="193" y="171" on="1"/>
        <pt x="209" y="171" on="0"/>
        <pt x="214" y="182" on="1"/>
        <pt x="200" y="182" on="1"/>
        <pt x="176" y="251" on="1"/>
        <pt x="166" y="251" on="1"/>
        <pt x="166" y="282" on="1"/>
        <pt x="204" y="282" on="1"/>
        <pt x="218" y="233" on="1"/>
        <pt x="223" y="209" on="1"/>
        <pt x="234" y="251" on="1"/>
        <pt x="225" y="251" on="1"/>
        <pt x="225" y="282" on="1"/>
        <pt x="268" y="282" on="1"/>
        <pt x="268" y="251" on="1"/>
      </contour>
      <contour>
        <pt x="158" y="187" on="1"/>
        <pt x="140" y="179" on="0"/>
        <pt x="117" y="179" on="1"/>
        <pt x="86" y="179" on="0"/>
        <pt x="51" y="214" on="0"/>
        <pt x="51" y="245" on="1"/>
        <pt x="51" y="277" on="0"/>
        <pt x="85" y="316" on="0"/>
        <pt x="119" y="316" on="1"/>
        <pt x="128" y="316" on="0"/>
        <pt x="148" y="312" on="0"/>
        <pt x="158" y="309" on="1"/>
        <pt x="158" y="269" on="1"/>
        <pt x="127" y="269" on="1"/>
        <pt x="127" y="284" on="1"/>
        <pt x="124" y="285" on="0"/>
        <pt x="118" y="285" on="1"/>
        <pt x="104" y="285" on="0"/>
        <pt x="89" y="265" on="0"/>
        <pt x="89" y="249" on="1"/>
        <pt x="89" y="212" on="0"/>
        <pt x="126" y="212" on="1"/>
        <pt x="158" y="212" on="1"/>
      </contour>
      <contour>
        <pt x="748" y="179" on="1"/>
        <pt x="699" y="179" on="0"/>
        <pt x="699" y="231" on="1"/>
        <pt x="699" y="256" on="0"/>
        <pt x="726" y="284" on="0"/>
        <pt x="749" y="284" on="1"/>
        <pt x="772" y="284" on="0"/>
        <pt x="799" y="257" on="0"/>
        <pt x="799" y="232" on="1"/>
        <pt x="799" y="207" on="0"/>
        <pt x="772" y="179" on="0"/>
      </contour>
      <contour>
        <pt x="484" y="277" on="1"/>
        <pt x="493" y="280" on="0"/>
        <pt x="510" y="284" on="0"/>
        <pt x="520" y="284" on="1"/>
        <pt x="566" y="284" on="0"/>
        <pt x="566" y="246" on="1"/>
        <pt x="566" y="212" on="1"/>
        <pt x="577" y="212" on="1"/>
        <pt x="577" y="185" on="1"/>
        <pt x="569" y="180" on="0"/>
        <pt x="557" y="180" on="1"/>
        <pt x="541" y="180" on="0"/>
        <pt x="535" y="187" on="1"/>
        <pt x="526" y="179" on="0"/>
        <pt x="510" y="179" on="1"/>
        <pt x="496" y="179" on="0"/>
        <pt x="476" y="195" on="0"/>
        <pt x="476" y="210" on="1"/>
        <pt x="476" y="224" on="0"/>
        <pt x="494" y="240" on="0"/>
        <pt x="515" y="240" on="1"/>
        <pt x="531" y="240" on="1"/>
        <pt x="531" y="241" on="1"/>
        <pt x="531" y="245" on="0"/>
        <pt x="522" y="251" on="0"/>
        <pt x="509" y="251" on="1"/>
        <pt x="484" y="251" on="1"/>
      </contour>
      <contour>
        <pt x="461" y="212" on="1"/>
        <pt x="461" y="186" on="1"/>
        <pt x="453" y="182" on="0"/>
        <pt x="433" y="179" on="0"/>
        <pt x="424" y="179" on="1"/>
        <pt x="398" y="179" on="0"/>
        <pt x="371" y="206" on="0"/>
        <pt x="371" y="230" on="1"/>
        <pt x="371" y="254" on="0"/>
        <pt x="395" y="284" on="0"/>
        <pt x="420" y="284" on="1"/>
        <pt x="440" y="284" on="0"/>
        <pt x="464" y="260" on="0"/>
        <pt x="464" y="242" on="1"/>
        <pt x="464" y="238" on="0"/>
        <pt x="463" y="229" on="0"/>
        <pt x="462" y="224" on="1"/>
        <pt x="407" y="224" on="1"/>
        <pt x="411" y="212" on="0"/>
        <pt x="432" y="212" on="1"/>
      </contour>
      <contour>
        <pt x="811" y="251" on="1"/>
        <pt x="811" y="282" on="1"/>
        <pt x="845" y="282" on="1"/>
        <pt x="855" y="266" on="1"/>
        <pt x="857" y="271" on="0"/>
        <pt x="862" y="276" on="0"/>
        <pt x="865" y="279" on="1"/>
        <pt x="872" y="284" on="0"/>
        <pt x="880" y="284" on="1"/>
        <pt x="886" y="284" on="0"/>
        <pt x="892" y="282" on="1"/>
        <pt x="892" y="251" on="1"/>
        <pt x="858" y="251" on="1"/>
        <pt x="858" y="212" on="1"/>
        <pt x="875" y="212" on="1"/>
        <pt x="875" y="182" on="1"/>
        <pt x="813" y="182" on="1"/>
        <pt x="813" y="212" on="1"/>
        <pt x="822" y="212" on="1"/>
        <pt x="822" y="251" on="1"/>
      </contour>
      <contour>
        <pt x="282" y="251" on="1"/>
        <pt x="282" y="282" on="1"/>
        <pt x="316" y="282" on="1"/>
        <pt x="326" y="266" on="1"/>
        <pt x="328" y="271" on="0"/>
        <pt x="333" y="276" on="0"/>
        <pt x="336" y="279" on="1"/>
        <pt x="343" y="284" on="0"/>
        <pt x="351" y="284" on="1"/>
        <pt x="357" y="284" on="0"/>
        <pt x="363" y="282" on="1"/>
        <pt x="363" y="251" on="1"/>
        <pt x="329" y="251" on="1"/>
        <pt x="329" y="212" on="1"/>
        <pt x="346" y="212" on="1"/>
        <pt x="346" y="182" on="1"/>
        <pt x="284" y="182" on="1"/>
        <pt x="284" y="212" on="1"/>
        <pt x="294" y="212" on="1"/>
        <pt x="294" y="251" on="1"/>
      </contour>
      <contour>
        <pt x="589" y="285" on="1"/>
        <pt x="577" y="285" on="1"/>
        <pt x="577" y="316" on="1"/>
        <pt x="624" y="316" on="1"/>
        <pt x="624" y="212" on="1"/>
        <pt x="638" y="212" on="1"/>
        <pt x="638" y="184" on="1"/>
        <pt x="629" y="180" on="0"/>
        <pt x="616" y="180" on="1"/>
        <pt x="589" y="180" on="0"/>
        <pt x="589" y="208" on="1"/>
      </contour>
      <contour>
        <pt x="651" y="199" on="1"/>
        <pt x="651" y="207" on="0"/>
        <pt x="661" y="219" on="0"/>
        <pt x="671" y="219" on="1"/>
        <pt x="682" y="219" on="0"/>
        <pt x="693" y="207" on="0"/>
        <pt x="693" y="199" on="1"/>
        <pt x="693" y="191" on="0"/>
        <pt x="682" y="180" on="0"/>
        <pt x="671" y="180" on="1"/>
        <pt x="661" y="180" on="0"/>
        <pt x="651" y="191" on="0"/>
      </contour>
      <contour>
        <pt x="749" y="206" on="1"/>
        <pt x="763" y="206" on="0"/>
        <pt x="763" y="232" on="1"/>
        <pt x="763" y="256" on="0"/>
        <pt x="749" y="256" on="1"/>
        <pt x="735" y="256" on="0"/>
        <pt x="735" y="232" on="1"/>
        <pt x="735" y="206" on="0"/>
      </contour>
      <contour>
        <pt x="936" y="247" on="1"/>
        <pt x="936" y="232" on="0"/>
        <pt x="948" y="232" on="1"/>
        <pt x="958" y="232" on="0"/>
        <pt x="958" y="247" on="1"/>
        <pt x="958" y="262" on="0"/>
        <pt x="948" y="262" on="1"/>
        <pt x="936" y="262" on="0"/>
      </contour>
      <contour>
        <pt x="520" y="204" on="1"/>
        <pt x="527" y="204" on="0"/>
        <pt x="531" y="207" on="1"/>
        <pt x="531" y="222" on="1"/>
        <pt x="523" y="222" on="1"/>
        <pt x="510" y="222" on="0"/>
        <pt x="510" y="213" on="1"/>
        <pt x="510" y="204" on="0"/>
      </contour>
      <contour>
        <pt x="419" y="258" on="1"/>
        <pt x="409" y="258" on="0"/>
        <pt x="406" y="242" on="1"/>
        <pt x="431" y="242" on="1"/>
        <pt x="431" y="258" on="0"/>
      </contour>
    </TTGlyph>
    <TTGlyph name="four" xMin="16" yMin="-4" xMax="559" yMax="812">
      <contour>
        <pt x="348" y="560" on="1"/>
        <pt x="356" y="660" on="1"/>
        <pt x="354" y="662" on="1"/>
        <pt x="308" y="583" on="1"/>
        <pt x="83" y="269" on="1"/>
        <pt x="348" y="269" on="1"/>
      </contour>
      <contour>
        <pt x="450" y="806" on="1"/>
        <pt x="450" y="269" on="1"/>
        <pt x="512" y="273" on="0"/>
        <pt x="559" y="282" on="1"/>
        <pt x="557" y="218" on="0"/>
        <pt x="557" y="198" on="1"/>
        <pt x="450" y="198" on="1"/>
        <pt x="450" y="51" on="1"/>
        <pt x="551" y="36" on="1"/>
        <pt x="553" y="24" on="0"/>
        <pt x="553" y="18" on="1"/>
        <pt x="553" y="10" on="0"/>
        <pt x="551" y="-4" on="1"/>
        <pt x="488" y="-1" on="0"/>
        <pt x="395" y="-1" on="1"/>
        <pt x="329" y="-1" on="0"/>
        <pt x="245" y="-3" on="1"/>
        <pt x="242" y="6" on="0"/>
        <pt x="242" y="26" on="0"/>
        <pt x="245" y="36" on="1"/>
        <pt x="344" y="47" on="1"/>
        <pt x="348" y="102" on="0"/>
        <pt x="348" y="198" on="1"/>
        <pt x="26" y="198" on="1"/>
        <pt x="16" y="233" on="0"/>
        <pt x="16" y="269" on="1"/>
        <pt x="389" y="807" on="1"/>
        <pt x="438" y="812" on="1"/>
        <pt x="444" y="810" on="0"/>
      </contour>
    </TTGlyph>
    <TTGlyph name="foursuperior" xMin="34" yMin="317" xMax="380" yMax="821">
      <contour>
        <pt x="220" y="364" on="1"/>
        <pt x="223" y="403" on="0"/>
        <pt x="223" y="441" on="1"/>
        <pt x="223" y="454" on="1"/>
        <pt x="43" y="454" on="1"/>
        <pt x="34" y="469" on="0"/>
        <pt x="36" y="501" on="1"/>
        <pt x="246" y="819" on="1"/>
        <pt x="298" y="821" on="1"/>
        <pt x="302" y="821" on="0"/>
        <pt x="310" y="818" on="1"/>
        <pt x="305" y="788" on="0"/>
        <pt x="305" y="717" on="1"/>
        <pt x="305" y="501" on="1"/>
        <pt x="314" y="501" on="1"/>
        <pt x="343" y="502" on="0"/>
        <pt x="377" y="510" on="1"/>
        <pt x="376" y="490" on="0"/>
        <pt x="376" y="454" on="1"/>
        <pt x="305" y="454" on="1"/>
        <pt x="305" y="369" on="1"/>
        <pt x="376" y="357" on="1"/>
        <pt x="380" y="341" on="0"/>
        <pt x="376" y="317" on="1"/>
        <pt x="322" y="321" on="0"/>
        <pt x="253" y="321" on="1"/>
        <pt x="231" y="321" on="0"/>
        <pt x="150" y="318" on="1"/>
        <pt x="144" y="338" on="0"/>
        <pt x="150" y="357" on="1"/>
      </contour>
      <contour>
        <pt x="202" y="672" on="1"/>
        <pt x="87" y="499" on="1"/>
        <pt x="223" y="500" on="1"/>
        <pt x="223" y="657" on="1"/>
        <pt x="225" y="702" on="1"/>
        <pt x="223" y="702" on="1"/>
      </contour>
    </TTGlyph>
    <TTGlyph name="fraction" xMin="6" yMin="-29" xMax="422" yMax="803">
      <contour>
        <pt x="422" y="796" on="1"/>
        <pt x="66" y="-25" on="1"/>
        <pt x="55" y="-29" on="0"/>
        <pt x="37" y="-29" on="1"/>
        <pt x="18" y="-29" on="0"/>
        <pt x="6" y="-25" on="1"/>
        <pt x="362" y="796" on="1"/>
        <pt x="387" y="803" on="0"/>
      </contour>
    </TTGlyph>
    <TTGlyph name="g" xMin="26" yMin="-263" xMax="523" yMax="654">
      <contour>
        <pt x="120" y="-11" on="1"/>
        <pt x="129" y="-15" on="0"/>
        <pt x="135" y="-28" on="1"/>
        <pt x="102" y="-55" on="0"/>
        <pt x="102" y="-109" on="1"/>
        <pt x="102" y="-157" on="0"/>
        <pt x="190" y="-215" on="0"/>
        <pt x="260" y="-215" on="1"/>
        <pt x="332" y="-215" on="0"/>
        <pt x="428" y="-162" on="0"/>
        <pt x="428" y="-114" on="1"/>
        <pt x="428" y="-62" on="0"/>
        <pt x="390" y="-13" on="0"/>
        <pt x="333" y="-8" on="1"/>
        <pt x="146" y="9" on="1"/>
        <pt x="115" y="13" on="0"/>
        <pt x="74" y="70" on="0"/>
        <pt x="74" y="97" on="1"/>
        <pt x="141" y="208" on="1"/>
        <pt x="95" y="234" on="0"/>
        <pt x="48" y="320" on="0"/>
        <pt x="48" y="365" on="1"/>
        <pt x="48" y="450" on="0"/>
        <pt x="174" y="554" on="0"/>
        <pt x="256" y="554" on="1"/>
        <pt x="335" y="554" on="0"/>
        <pt x="395" y="512" on="1"/>
        <pt x="400" y="649" on="0"/>
        <pt x="497" y="654" on="1"/>
        <pt x="523" y="648" on="0"/>
        <pt x="523" y="611" on="1"/>
        <pt x="523" y="591" on="0"/>
        <pt x="519" y="567" on="1"/>
        <pt x="480" y="564" on="0"/>
        <pt x="430" y="519" on="0"/>
        <pt x="419" y="490" on="1"/>
        <pt x="469" y="440" on="0"/>
        <pt x="469" y="365" on="1"/>
        <pt x="469" y="286" on="0"/>
        <pt x="341" y="181" on="0"/>
        <pt x="256" y="181" on="1"/>
        <pt x="211" y="181" on="0"/>
        <pt x="175" y="193" on="1"/>
        <pt x="141" y="104" on="1"/>
        <pt x="390" y="79" on="1"/>
        <pt x="448" y="72" on="0"/>
        <pt x="509" y="1" on="0"/>
        <pt x="509" y="-56" on="1"/>
        <pt x="509" y="-156" on="0"/>
        <pt x="365" y="-263" on="0"/>
        <pt x="242" y="-263" on="1"/>
        <pt x="140" y="-263" on="0"/>
        <pt x="26" y="-189" on="0"/>
        <pt x="26" y="-127" on="1"/>
        <pt x="26" y="-85" on="0"/>
        <pt x="80" y="-20" on="0"/>
      </contour>
      <contour>
        <pt x="138" y="365" on="1"/>
        <pt x="138" y="307" on="0"/>
        <pt x="203" y="225" on="0"/>
        <pt x="257" y="225" on="1"/>
        <pt x="310" y="225" on="0"/>
        <pt x="378" y="306" on="0"/>
        <pt x="378" y="365" on="1"/>
        <pt x="378" y="429" on="0"/>
        <pt x="311" y="514" on="0"/>
        <pt x="257" y="514" on="1"/>
        <pt x="206" y="514" on="0"/>
        <pt x="138" y="428" on="0"/>
      </contour>
    </TTGlyph>
    <TTGlyph name="germandbls" xMin="23" yMin="-17" xMax="566" yMax="816">
      <contour>
        <pt x="27" y="-3" on="1"/>
        <pt x="23" y="5" on="0"/>
        <pt x="23" y="16" on="1"/>
        <pt x="23" y="27" on="0"/>
        <pt x="27" y="36" on="1"/>
        <pt x="100" y="52" on="1"/>
        <pt x="102" y="78" on="0"/>
        <pt x="104" y="139" on="0"/>
        <pt x="104" y="174" on="1"/>
        <pt x="104" y="569" on="1"/>
        <pt x="104" y="694" on="0"/>
        <pt x="218" y="816" on="0"/>
        <pt x="313" y="816" on="1"/>
        <pt x="354" y="816" on="0"/>
        <pt x="427" y="792" on="0"/>
        <pt x="483" y="747" on="0"/>
        <pt x="515" y="684" on="0"/>
        <pt x="515" y="644" on="1"/>
        <pt x="515" y="608" on="0"/>
        <pt x="496" y="540" on="0"/>
        <pt x="459" y="486" on="0"/>
        <pt x="404" y="451" on="0"/>
        <pt x="368" y="447" on="1"/>
        <pt x="368" y="443" on="1"/>
        <pt x="414" y="439" on="0"/>
        <pt x="488" y="404" on="0"/>
        <pt x="539" y="347" on="0"/>
        <pt x="566" y="270" on="0"/>
        <pt x="566" y="225" on="1"/>
        <pt x="566" y="162" on="0"/>
        <pt x="537" y="70" on="0"/>
        <pt x="486" y="11" on="0"/>
        <pt x="418" y="-17" on="0"/>
        <pt x="379" y="-17" on="1"/>
        <pt x="325" y="-17" on="0"/>
        <pt x="259" y="27" on="0"/>
        <pt x="259" y="72" on="1"/>
        <pt x="287" y="93" on="0"/>
        <pt x="326" y="93" on="1"/>
        <pt x="336" y="93" on="1"/>
        <pt x="340" y="53" on="0"/>
        <pt x="376" y="17" on="0"/>
        <pt x="393" y="17" on="1"/>
        <pt x="435" y="17" on="0"/>
        <pt x="462" y="117" on="0"/>
        <pt x="462" y="220" on="1"/>
        <pt x="462" y="314" on="0"/>
        <pt x="383" y="406" on="0"/>
        <pt x="302" y="420" on="1"/>
        <pt x="296" y="429" on="0"/>
        <pt x="296" y="442" on="1"/>
        <pt x="296" y="454" on="0"/>
        <pt x="302" y="469" on="1"/>
        <pt x="359" y="471" on="0"/>
        <pt x="418" y="557" on="0"/>
        <pt x="418" y="633" on="1"/>
        <pt x="418" y="711" on="0"/>
        <pt x="359" y="776" on="0"/>
        <pt x="302" y="776" on="1"/>
        <pt x="275" y="776" on="0"/>
        <pt x="236" y="750" on="0"/>
        <pt x="211" y="687" on="0"/>
        <pt x="199" y="581" on="0"/>
        <pt x="199" y="501" on="1"/>
        <pt x="199" y="141" on="1"/>
        <pt x="199" y="103" on="0"/>
        <pt x="205" y="33" on="0"/>
        <pt x="212" y="1" on="1"/>
        <pt x="181" y="1" on="0"/>
        <pt x="90" y="-1" on="0"/>
      </contour>
    </TTGlyph>
    <TTGlyph name="grave" xMin="-55" yMin="570" xMax="116" yMax="781">
      <contour>
        <pt x="73" y="570" on="1"/>
        <pt x="-55" y="724" on="1"/>
        <pt x="1" y="781" on="0"/>
        <pt x="32" y="761" on="1"/>
        <pt x="116" y="587" on="1"/>
        <pt x="102" y="578" on="0"/>
      </contour>
    </TTGlyph>
    <TTGlyph name="grave.case" xMin="-16" yMin="758" xMax="195" yMax="928">
      <contour>
        <pt x="167" y="758" on="1"/>
        <pt x="-16" y="856" on="1"/>
        <pt x="-2" y="895" on="0"/>
        <pt x="30" y="928" on="0"/>
        <pt x="49" y="924" on="1"/>
        <pt x="195" y="792" on="1"/>
        <pt x="186" y="774" on="0"/>
      </contour>
    </TTGlyph>
    <TTGlyph name="greater" xMin="77" yMin="119" xMax="677" yMax="693">
      <contour>
        <pt x="82" y="628" on="1"/>
        <pt x="77" y="646" on="0"/>
        <pt x="77" y="662" on="1"/>
        <pt x="77" y="675" on="0"/>
        <pt x="82" y="693" on="1"/>
        <pt x="671" y="436" on="1"/>
        <pt x="677" y="411" on="0"/>
        <pt x="671" y="376" on="1"/>
        <pt x="82" y="119" on="1"/>
        <pt x="77" y="137" on="0"/>
        <pt x="77" y="153" on="1"/>
        <pt x="77" y="166" on="0"/>
        <pt x="82" y="184" on="1"/>
        <pt x="588" y="406" on="1"/>
      </contour>
    </TTGlyph>
    <TTGlyph name="guillemotleft" xMin="40" yMin="40" xMax="464" yMax="454">
      <contour>
        <pt x="137" y="247" on="1"/>
        <pt x="270" y="61" on="1"/>
        <pt x="266" y="45" on="0"/>
        <pt x="248" y="40" on="1"/>
        <pt x="40" y="237" on="1"/>
        <pt x="40" y="257" on="1"/>
        <pt x="248" y="454" on="1"/>
        <pt x="266" y="449" on="0"/>
        <pt x="270" y="433" on="1"/>
      </contour>
      <contour>
        <pt x="338" y="247" on="1"/>
        <pt x="464" y="70" on="1"/>
        <pt x="459" y="54" on="0"/>
        <pt x="443" y="50" on="1"/>
        <pt x="246" y="237" on="1"/>
        <pt x="246" y="256" on="1"/>
        <pt x="443" y="444" on="1"/>
        <pt x="459" y="440" on="0"/>
        <pt x="464" y="424" on="1"/>
      </contour>
    </TTGlyph>
    <TTGlyph name="guillemotright" xMin="51" yMin="40" xMax="475" yMax="454">
      <contour>
        <pt x="245" y="433" on="1"/>
        <pt x="249" y="449" on="0"/>
        <pt x="267" y="454" on="1"/>
        <pt x="475" y="257" on="1"/>
        <pt x="475" y="237" on="1"/>
        <pt x="267" y="40" on="1"/>
        <pt x="249" y="45" on="0"/>
        <pt x="245" y="61" on="1"/>
        <pt x="378" y="247" on="1"/>
      </contour>
      <contour>
        <pt x="51" y="424" on="1"/>
        <pt x="56" y="440" on="0"/>
        <pt x="72" y="444" on="1"/>
        <pt x="269" y="256" on="1"/>
        <pt x="269" y="237" on="1"/>
        <pt x="72" y="50" on="1"/>
        <pt x="56" y="54" on="0"/>
        <pt x="51" y="70" on="1"/>
        <pt x="177" y="247" on="1"/>
      </contour>
    </TTGlyph>
    <TTGlyph name="guilsinglleft" xMin="40" yMin="40" xMax="270" yMax="454">
      <contour>
        <pt x="137" y="247" on="1"/>
        <pt x="270" y="61" on="1"/>
        <pt x="266" y="45" on="0"/>
        <pt x="248" y="40" on="1"/>
        <pt x="40" y="237" on="1"/>
        <pt x="40" y="257" on="1"/>
        <pt x="248" y="454" on="1"/>
        <pt x="266" y="449" on="0"/>
        <pt x="270" y="433" on="1"/>
      </contour>
    </TTGlyph>
    <TTGlyph name="guilsinglright" xMin="48" yMin="40" xMax="278" yMax="454">
      <contour>
        <pt x="181" y="247" on="1"/>
        <pt x="48" y="433" on="1"/>
        <pt x="52" y="449" on="0"/>
        <pt x="70" y="454" on="1"/>
        <pt x="278" y="257" on="1"/>
        <pt x="278" y="237" on="1"/>
        <pt x="70" y="40" on="1"/>
        <pt x="52" y="45" on="0"/>
        <pt x="48" y="61" on="1"/>
      </contour>
    </TTGlyph>
    <TTGlyph name="h" xMin="13" yMin="-4" xMax="609" yMax="816">
      <contour>
        <pt x="102" y="649" on="1"/>
        <pt x="102" y="715" on="0"/>
        <pt x="99" y="747" on="1"/>
        <pt x="20" y="757" on="1"/>
        <pt x="16" y="772" on="0"/>
        <pt x="20" y="795" on="1"/>
        <pt x="87" y="800" on="0"/>
        <pt x="191" y="816" on="1"/>
        <pt x="200" y="806" on="0"/>
        <pt x="201" y="796" on="1"/>
        <pt x="196" y="770" on="0"/>
        <pt x="196" y="634" on="1"/>
        <pt x="196" y="445" on="1"/>
        <pt x="270" y="547" on="0"/>
        <pt x="374" y="547" on="1"/>
        <pt x="436" y="547" on="0"/>
        <pt x="524" y="485" on="0"/>
        <pt x="524" y="410" on="1"/>
        <pt x="524" y="51" on="1"/>
        <pt x="605" y="36" on="1"/>
        <pt x="609" y="20" on="0"/>
        <pt x="605" y="-4" on="1"/>
        <pt x="542" y="-1" on="0"/>
        <pt x="477" y="-1" on="1"/>
        <pt x="431" y="-1" on="0"/>
        <pt x="347" y="-3" on="1"/>
        <pt x="341" y="16" on="0"/>
        <pt x="347" y="36" on="1"/>
        <pt x="426" y="47" on="1"/>
        <pt x="430" y="102" on="0"/>
        <pt x="430" y="174" on="1"/>
        <pt x="430" y="360" on="1"/>
        <pt x="430" y="430" on="0"/>
        <pt x="395" y="492" on="0"/>
        <pt x="349" y="492" on="1"/>
        <pt x="311" y="492" on="0"/>
        <pt x="228" y="436" on="0"/>
        <pt x="196" y="383" on="1"/>
        <pt x="196" y="51" on="1"/>
        <pt x="277" y="36" on="1"/>
        <pt x="281" y="20" on="0"/>
        <pt x="277" y="-4" on="1"/>
        <pt x="214" y="-1" on="0"/>
        <pt x="149" y="-1" on="1"/>
        <pt x="103" y="-1" on="0"/>
        <pt x="19" y="-3" on="1"/>
        <pt x="13" y="16" on="0"/>
        <pt x="19" y="36" on="1"/>
        <pt x="98" y="47" on="1"/>
        <pt x="102" y="102" on="0"/>
        <pt x="102" y="174" on="1"/>
      </contour>
    </TTGlyph>
    <TTGlyph name="hyphen" xMin="61" yMin="345" xMax="375" yMax="395">
      <contour>
        <pt x="367" y="345" on="1"/>
        <pt x="70" y="345" on="1"/>
        <pt x="61" y="375" on="0"/>
        <pt x="70" y="395" on="1"/>
        <pt x="367" y="395" on="1"/>
        <pt x="375" y="372" on="0"/>
      </contour>
    </TTGlyph>
    <TTGlyph name="i" xMin="27" yMin="-4" xMax="291" yMax="810">
      <contour>
        <pt x="208" y="372" on="1"/>
        <pt x="208" y="51" on="1"/>
        <pt x="289" y="36" on="1"/>
        <pt x="290" y="31" on="0"/>
        <pt x="291" y="23" on="0"/>
        <pt x="291" y="18" on="1"/>
        <pt x="291" y="13" on="0"/>
        <pt x="290" y="2" on="0"/>
        <pt x="289" y="-4" on="1"/>
        <pt x="226" y="-1" on="0"/>
        <pt x="160" y="-1" on="1"/>
        <pt x="137" y="-1" on="0"/>
        <pt x="72" y="-2" on="0"/>
        <pt x="30" y="-3" on="1"/>
        <pt x="27" y="6" on="0"/>
        <pt x="27" y="16" on="1"/>
        <pt x="27" y="25" on="0"/>
        <pt x="30" y="36" on="1"/>
        <pt x="109" y="47" on="1"/>
        <pt x="111" y="75" on="0"/>
        <pt x="113" y="138" on="0"/>
        <pt x="113" y="174" on="1"/>
        <pt x="113" y="387" on="1"/>
        <pt x="113" y="453" on="0"/>
        <pt x="110" y="485" on="1"/>
        <pt x="31" y="495" on="1"/>
        <pt x="29" y="500" on="0"/>
        <pt x="29" y="512" on="1"/>
        <pt x="29" y="517" on="0"/>
        <pt x="29" y="527" on="0"/>
        <pt x="31" y="533" on="1"/>
        <pt x="99" y="537" on="0"/>
        <pt x="203" y="554" on="1"/>
        <pt x="212" y="544" on="0"/>
        <pt x="213" y="534" on="1"/>
        <pt x="208" y="506" on="0"/>
      </contour>
      <contour>
        <pt x="62" y="729" on="1"/>
        <pt x="60" y="734" on="0"/>
        <pt x="60" y="745" on="0"/>
        <pt x="60" y="750" on="1"/>
        <pt x="60" y="777" on="0"/>
        <pt x="105" y="810" on="0"/>
        <pt x="138" y="810" on="1"/>
        <pt x="169" y="810" on="0"/>
        <pt x="208" y="773" on="0"/>
        <pt x="208" y="741" on="1"/>
        <pt x="208" y="715" on="0"/>
        <pt x="163" y="683" on="0"/>
        <pt x="128" y="683" on="1"/>
        <pt x="104" y="683" on="0"/>
        <pt x="67" y="707" on="0"/>
      </contour>
    </TTGlyph>
    <TTGlyph name="iacute" xMin="29" yMin="-4" xMax="293" yMax="814">
      <component glyphName="dotlessi" x="2" y="0" flags="0x204"/>
      <component glyphName="acute" x="52" y="33" flags="0x4"/>
    </TTGlyph>
    <TTGlyph name="icircumflex" xMin="8" yMin="-4" xMax="293" yMax="801">
      <component glyphName="dotlessi" x="2" y="0" flags="0x204"/>
      <component glyphName="circumflex" x="-35" y="33" flags="0x4"/>
    </TTGlyph>
    <TTGlyph name="idieresis" xMin="-25" yMin="-4" xMax="294" yMax="764">
      <component glyphName="dotlessi" x="2" y="0" flags="0x204"/>
      <component glyphName="dieresis" x="-68" y="33" flags="0x4"/>
    </TTGlyph>
    <TTGlyph name="igrave" xMin="13" yMin="-4" xMax="293" yMax="814">
      <component glyphName="dotlessi" x="2" y="0" flags="0x204"/>
      <component glyphName="grave" x="68" y="33" flags="0x4"/>
    </TTGlyph>
    <TTGlyph name="j" xMin="-68" yMin="-290" xMax="204" yMax="810">
      <contour>
        <pt x="104" y="-43" on="1"/>
        <pt x="104" y="387" on="1"/>
        <pt x="104" y="453" on="0"/>
        <pt x="101" y="485" on="1"/>
        <pt x="12" y="495" on="1"/>
        <pt x="8" y="510" on="0"/>
        <pt x="12" y="533" on="1"/>
        <pt x="100" y="539" on="0"/>
        <pt x="194" y="554" on="1"/>
        <pt x="203" y="544" on="0"/>
        <pt x="204" y="534" on="1"/>
        <pt x="199" y="508" on="0"/>
        <pt x="199" y="372" on="1"/>
        <pt x="199" y="10" on="1"/>
        <pt x="199" y="-71" on="0"/>
        <pt x="170" y="-201" on="0"/>
        <pt x="97" y="-290" on="0"/>
        <pt x="43" y="-290" on="1"/>
        <pt x="-17" y="-290" on="0"/>
        <pt x="-68" y="-254" on="0"/>
        <pt x="-68" y="-215" on="1"/>
        <pt x="-44" y="-181" on="0"/>
        <pt x="0" y="-181" on="1"/>
        <pt x="14" y="-181" on="0"/>
        <pt x="29" y="-184" on="1"/>
        <pt x="40" y="-255" on="0"/>
        <pt x="60" y="-255" on="1"/>
        <pt x="84" y="-255" on="0"/>
        <pt x="104" y="-159" on="0"/>
      </contour>
      <contour>
        <pt x="53" y="729" on="1"/>
        <pt x="51" y="734" on="0"/>
        <pt x="51" y="745" on="0"/>
        <pt x="51" y="750" on="1"/>
        <pt x="51" y="777" on="0"/>
        <pt x="96" y="810" on="0"/>
        <pt x="129" y="810" on="1"/>
        <pt x="160" y="810" on="0"/>
        <pt x="199" y="773" on="0"/>
        <pt x="199" y="741" on="1"/>
        <pt x="199" y="715" on="0"/>
        <pt x="154" y="683" on="0"/>
        <pt x="119" y="683" on="1"/>
        <pt x="95" y="683" on="0"/>
        <pt x="58" y="707" on="0"/>
      </contour>
    </TTGlyph>
    <TTGlyph name="k" xMin="13" yMin="-4" xMax="601" yMax="816">
      <contour>
        <pt x="207" y="288" on="1"/>
        <pt x="416" y="490" on="1"/>
        <pt x="350" y="498" on="1"/>
        <pt x="346" y="514" on="0"/>
        <pt x="350" y="537" on="1"/>
        <pt x="405" y="533" on="0"/>
        <pt x="453" y="533" on="1"/>
        <pt x="492" y="533" on="0"/>
        <pt x="557" y="536" on="1"/>
        <pt x="563" y="518" on="0"/>
        <pt x="557" y="498" on="1"/>
        <pt x="478" y="484" on="1"/>
        <pt x="301" y="318" on="1"/>
        <pt x="519" y="57" on="1"/>
        <pt x="597" y="37" on="1"/>
        <pt x="601" y="21" on="0"/>
        <pt x="597" y="-3" on="1"/>
        <pt x="534" y="0" on="0"/>
        <pt x="471" y="0" on="1"/>
        <pt x="428" y="0" on="0"/>
        <pt x="344" y="-2" on="1"/>
        <pt x="338" y="18" on="0"/>
        <pt x="344" y="37" on="1"/>
        <pt x="410" y="46" on="1"/>
      </contour>
      <contour>
        <pt x="196" y="634" on="1"/>
        <pt x="196" y="51" on="1"/>
        <pt x="277" y="36" on="1"/>
        <pt x="281" y="20" on="0"/>
        <pt x="277" y="-4" on="1"/>
        <pt x="214" y="-1" on="0"/>
        <pt x="149" y="-1" on="1"/>
        <pt x="103" y="-1" on="0"/>
        <pt x="19" y="-3" on="1"/>
        <pt x="13" y="16" on="0"/>
        <pt x="19" y="36" on="1"/>
        <pt x="98" y="47" on="1"/>
        <pt x="102" y="102" on="0"/>
        <pt x="102" y="174" on="1"/>
        <pt x="102" y="747" on="1"/>
        <pt x="20" y="757" on="1"/>
        <pt x="16" y="772" on="0"/>
        <pt x="20" y="795" on="1"/>
        <pt x="87" y="800" on="0"/>
        <pt x="191" y="816" on="1"/>
        <pt x="200" y="806" on="0"/>
        <pt x="201" y="796" on="1"/>
        <pt x="196" y="770" on="0"/>
      </contour>
    </TTGlyph>
    <TTGlyph name="l" xMin="13" yMin="-4" xMax="282" yMax="816">
      <contour>
        <pt x="197" y="634" on="1"/>
        <pt x="197" y="51" on="1"/>
        <pt x="278" y="36" on="1"/>
        <pt x="282" y="20" on="0"/>
        <pt x="278" y="-4" on="1"/>
        <pt x="215" y="-1" on="0"/>
        <pt x="149" y="-1" on="1"/>
        <pt x="103" y="-1" on="0"/>
        <pt x="19" y="-3" on="1"/>
        <pt x="13" y="16" on="0"/>
        <pt x="19" y="36" on="1"/>
        <pt x="98" y="47" on="1"/>
        <pt x="102" y="102" on="0"/>
        <pt x="102" y="174" on="1"/>
        <pt x="102" y="747" on="1"/>
        <pt x="20" y="757" on="1"/>
        <pt x="16" y="772" on="0"/>
        <pt x="20" y="795" on="1"/>
        <pt x="89" y="800" on="0"/>
        <pt x="192" y="816" on="1"/>
        <pt x="201" y="806" on="0"/>
        <pt x="202" y="796" on="1"/>
        <pt x="197" y="770" on="0"/>
      </contour>
    </TTGlyph>
    <TTGlyph name="less" xMin="32" yMin="119" xMax="632" yMax="693">
      <contour>
        <pt x="121" y="406" on="1"/>
        <pt x="627" y="184" on="1"/>
        <pt x="632" y="166" on="0"/>
        <pt x="632" y="153" on="1"/>
        <pt x="632" y="137" on="0"/>
        <pt x="627" y="119" on="1"/>
        <pt x="38" y="376" on="1"/>
        <pt x="32" y="411" on="0"/>
        <pt x="38" y="436" on="1"/>
        <pt x="627" y="693" on="1"/>
        <pt x="632" y="675" on="0"/>
        <pt x="632" y="662" on="1"/>
        <pt x="632" y="646" on="0"/>
        <pt x="627" y="628" on="1"/>
      </contour>
    </TTGlyph>
    <TTGlyph name="logicalnot" xMin="71" yMin="140" xMax="571" yMax="415">
      <contour>
        <pt x="571" y="415" on="1"/>
        <pt x="571" y="154" on="1"/>
        <pt x="549" y="140" on="0"/>
        <pt x="521" y="154" on="1"/>
        <pt x="521" y="365" on="1"/>
        <pt x="80" y="365" on="1"/>
        <pt x="71" y="395" on="0"/>
        <pt x="80" y="415" on="1"/>
      </contour>
    </TTGlyph>
    <TTGlyph name="m" xMin="24" yMin="-4" xMax="951" yMax="554">
      <contour>
        <pt x="772" y="357" on="1"/>
        <pt x="772" y="496" on="0"/>
        <pt x="683" y="496" on="1"/>
        <pt x="607" y="496" on="0"/>
        <pt x="539" y="391" on="1"/>
        <pt x="539" y="51" on="1"/>
        <pt x="620" y="36" on="1"/>
        <pt x="624" y="20" on="0"/>
        <pt x="620" y="-4" on="1"/>
        <pt x="557" y="-1" on="0"/>
        <pt x="492" y="-1" on="1"/>
        <pt x="446" y="-1" on="0"/>
        <pt x="362" y="-3" on="1"/>
        <pt x="356" y="16" on="0"/>
        <pt x="362" y="36" on="1"/>
        <pt x="441" y="47" on="1"/>
        <pt x="445" y="102" on="0"/>
        <pt x="445" y="174" on="1"/>
        <pt x="445" y="357" on="1"/>
        <pt x="445" y="496" on="0"/>
        <pt x="356" y="496" on="1"/>
        <pt x="311" y="496" on="0"/>
        <pt x="243" y="441" on="0"/>
        <pt x="207" y="383" on="1"/>
        <pt x="207" y="51" on="1"/>
        <pt x="288" y="36" on="1"/>
        <pt x="292" y="20" on="0"/>
        <pt x="288" y="-4" on="1"/>
        <pt x="225" y="-1" on="0"/>
        <pt x="160" y="-1" on="1"/>
        <pt x="114" y="-1" on="0"/>
        <pt x="30" y="-3" on="1"/>
        <pt x="24" y="16" on="0"/>
        <pt x="30" y="36" on="1"/>
        <pt x="109" y="47" on="1"/>
        <pt x="113" y="102" on="0"/>
        <pt x="113" y="174" on="1"/>
        <pt x="113" y="448" on="1"/>
        <pt x="113" y="468" on="0"/>
        <pt x="110" y="485" on="1"/>
        <pt x="31" y="495" on="1"/>
        <pt x="27" y="510" on="0"/>
        <pt x="31" y="533" on="1"/>
        <pt x="98" y="538" on="0"/>
        <pt x="202" y="554" on="1"/>
        <pt x="211" y="544" on="0"/>
        <pt x="212" y="534" on="1"/>
        <pt x="207" y="508" on="0"/>
        <pt x="207" y="445" on="1"/>
        <pt x="286" y="554" on="0"/>
        <pt x="385" y="554" on="1"/>
        <pt x="437" y="554" on="0"/>
        <pt x="523" y="501" on="0"/>
        <pt x="535" y="446" on="1"/>
        <pt x="615" y="554" on="0"/>
        <pt x="712" y="554" on="1"/>
        <pt x="773" y="554" on="0"/>
        <pt x="866" y="482" on="0"/>
        <pt x="866" y="407" on="1"/>
        <pt x="866" y="51" on="1"/>
        <pt x="947" y="36" on="1"/>
        <pt x="951" y="20" on="0"/>
        <pt x="947" y="-4" on="1"/>
        <pt x="884" y="-1" on="0"/>
        <pt x="819" y="-1" on="1"/>
        <pt x="773" y="-1" on="0"/>
        <pt x="689" y="-3" on="1"/>
        <pt x="683" y="16" on="0"/>
        <pt x="689" y="36" on="1"/>
        <pt x="768" y="47" on="1"/>
        <pt x="772" y="102" on="0"/>
        <pt x="772" y="174" on="1"/>
      </contour>
    </TTGlyph>
    <TTGlyph name="macron" xMin="-3" yMin="728" xMax="645" yMax="778">
      <contour>
        <pt x="637" y="728" on="1"/>
        <pt x="6" y="728" on="1"/>
        <pt x="-3" y="758" on="0"/>
        <pt x="6" y="778" on="1"/>
        <pt x="637" y="778" on="1"/>
        <pt x="645" y="755" on="0"/>
      </contour>
    </TTGlyph>
    <TTGlyph name="minus" xMin="72" yMin="365" xMax="580" yMax="415">
      <contour>
        <pt x="572" y="365" on="1"/>
        <pt x="81" y="365" on="1"/>
        <pt x="72" y="395" on="0"/>
        <pt x="81" y="415" on="1"/>
        <pt x="572" y="415" on="1"/>
        <pt x="580" y="392" on="0"/>
      </contour>
    </TTGlyph>
    <TTGlyph name="mu" xMin="78" yMin="-290" xMax="514" yMax="554">
      <contour>
        <pt x="416" y="94" on="1"/>
        <pt x="372" y="37" on="0"/>
        <pt x="294" y="-20" on="0"/>
        <pt x="235" y="-20" on="1"/>
        <pt x="184" y="-20" on="0"/>
        <pt x="146" y="10" on="1"/>
        <pt x="146" y="-43" on="1"/>
        <pt x="146" y="-255" on="0"/>
        <pt x="210" y="-255" on="1"/>
        <pt x="230" y="-255" on="0"/>
        <pt x="241" y="-184" on="1"/>
        <pt x="258" y="-180" on="0"/>
        <pt x="278" y="-180" on="1"/>
        <pt x="315" y="-180" on="0"/>
        <pt x="338" y="-199" on="1"/>
        <pt x="338" y="-240" on="0"/>
        <pt x="285" y="-290" on="0"/>
        <pt x="227" y="-290" on="1"/>
        <pt x="186" y="-290" on="0"/>
        <pt x="127" y="-240" on="0"/>
        <pt x="95" y="-152" on="0"/>
        <pt x="81" y="-51" on="0"/>
        <pt x="81" y="10" on="1"/>
        <pt x="81" y="339" on="1"/>
        <pt x="81" y="453" on="0"/>
        <pt x="78" y="541" on="1"/>
        <pt x="140" y="549" on="0"/>
        <pt x="171" y="554" on="1"/>
        <pt x="180" y="544" on="0"/>
        <pt x="181" y="534" on="1"/>
        <pt x="176" y="508" on="0"/>
        <pt x="176" y="167" on="1"/>
        <pt x="176" y="107" on="0"/>
        <pt x="218" y="38" on="0"/>
        <pt x="254" y="38" on="1"/>
        <pt x="338" y="38" on="0"/>
        <pt x="406" y="138" on="1"/>
        <pt x="406" y="339" on="1"/>
        <pt x="406" y="453" on="0"/>
        <pt x="403" y="541" on="1"/>
        <pt x="465" y="549" on="0"/>
        <pt x="496" y="554" on="1"/>
        <pt x="505" y="544" on="0"/>
        <pt x="506" y="534" on="1"/>
        <pt x="501" y="510" on="0"/>
        <pt x="501" y="348" on="1"/>
        <pt x="501" y="142" on="1"/>
        <pt x="501" y="66" on="0"/>
        <pt x="514" y="1" on="1"/>
        <pt x="452" y="-7" on="0"/>
        <pt x="421" y="-12" on="1"/>
        <pt x="412" y="-2" on="0"/>
        <pt x="411" y="8" on="1"/>
        <pt x="416" y="32" on="0"/>
      </contour>
    </TTGlyph>
    <TTGlyph name="multiply" xMin="61" yMin="198" xMax="444" yMax="582">
      <contour>
        <pt x="97" y="581" on="1"/>
        <pt x="252" y="426" on="1"/>
        <pt x="409" y="582" on="1"/>
        <pt x="430" y="572" on="0"/>
        <pt x="444" y="546" on="1"/>
        <pt x="288" y="390" on="1"/>
        <pt x="444" y="234" on="1"/>
        <pt x="439" y="209" on="0"/>
        <pt x="409" y="198" on="1"/>
        <pt x="252" y="354" on="1"/>
        <pt x="97" y="199" on="1"/>
        <pt x="68" y="214" on="0"/>
        <pt x="61" y="235" on="1"/>
        <pt x="216" y="390" on="1"/>
        <pt x="61" y="546" on="1"/>
        <pt x="70" y="568" on="0"/>
      </contour>
    </TTGlyph>
    <TTGlyph name="n" xMin="24" yMin="-4" xMax="626" yMax="554">
      <contour>
        <pt x="446" y="357" on="1"/>
        <pt x="446" y="434" on="0"/>
        <pt x="405" y="496" on="0"/>
        <pt x="357" y="496" on="1"/>
        <pt x="283" y="496" on="0"/>
        <pt x="208" y="385" on="1"/>
        <pt x="208" y="51" on="1"/>
        <pt x="289" y="36" on="1"/>
        <pt x="293" y="20" on="0"/>
        <pt x="289" y="-4" on="1"/>
        <pt x="226" y="-1" on="0"/>
        <pt x="160" y="-1" on="1"/>
        <pt x="114" y="-1" on="0"/>
        <pt x="30" y="-3" on="1"/>
        <pt x="24" y="16" on="0"/>
        <pt x="30" y="36" on="1"/>
        <pt x="109" y="47" on="1"/>
        <pt x="113" y="102" on="0"/>
        <pt x="113" y="174" on="1"/>
        <pt x="113" y="448" on="1"/>
        <pt x="113" y="468" on="0"/>
        <pt x="110" y="485" on="1"/>
        <pt x="31" y="495" on="1"/>
        <pt x="27" y="510" on="0"/>
        <pt x="31" y="533" on="1"/>
        <pt x="100" y="538" on="0"/>
        <pt x="203" y="554" on="1"/>
        <pt x="212" y="544" on="0"/>
        <pt x="213" y="534" on="1"/>
        <pt x="208" y="508" on="0"/>
        <pt x="208" y="445" on="1"/>
        <pt x="287" y="554" on="0"/>
        <pt x="386" y="554" on="1"/>
        <pt x="541" y="554" on="0"/>
        <pt x="541" y="407" on="1"/>
        <pt x="541" y="51" on="1"/>
        <pt x="622" y="36" on="1"/>
        <pt x="626" y="20" on="0"/>
        <pt x="622" y="-4" on="1"/>
        <pt x="559" y="-1" on="0"/>
        <pt x="493" y="-1" on="1"/>
        <pt x="447" y="-1" on="0"/>
        <pt x="363" y="-3" on="1"/>
        <pt x="357" y="16" on="0"/>
        <pt x="363" y="36" on="1"/>
        <pt x="442" y="47" on="1"/>
        <pt x="446" y="102" on="0"/>
        <pt x="446" y="174" on="1"/>
      </contour>
    </TTGlyph>
    <TTGlyph name="nine" xMin="52" yMin="-20" xMax="563" yMax="819">
      <contour>
        <pt x="563" y="452" on="1"/>
        <pt x="563" y="222" on="0"/>
        <pt x="414" y="-20" on="0"/>
        <pt x="282" y="-20" on="1"/>
        <pt x="195" y="-20" on="0"/>
        <pt x="78" y="60" on="0"/>
        <pt x="68" y="133" on="1"/>
        <pt x="111" y="161" on="0"/>
        <pt x="176" y="164" on="1"/>
        <pt x="189" y="91" on="0"/>
        <pt x="239" y="26" on="0"/>
        <pt x="292" y="26" on="1"/>
        <pt x="371" y="26" on="0"/>
        <pt x="461" y="218" on="0"/>
        <pt x="461" y="394" on="1"/>
        <pt x="459" y="394" on="1"/>
        <pt x="397" y="291" on="0"/>
        <pt x="274" y="291" on="1"/>
        <pt x="166" y="291" on="0"/>
        <pt x="52" y="440" on="0"/>
        <pt x="52" y="541" on="1"/>
        <pt x="52" y="657" on="0"/>
        <pt x="191" y="819" on="0"/>
        <pt x="294" y="819" on="1"/>
        <pt x="355" y="819" on="0"/>
        <pt x="451" y="777" on="0"/>
        <pt x="510" y="708" on="0"/>
        <pt x="548" y="610" on="0"/>
        <pt x="563" y="510" on="0"/>
      </contour>
      <contour>
        <pt x="167" y="537" on="1"/>
        <pt x="167" y="455" on="0"/>
        <pt x="231" y="338" on="0"/>
        <pt x="289" y="338" on="1"/>
        <pt x="365" y="338" on="0"/>
        <pt x="445" y="439" on="0"/>
        <pt x="445" y="526" on="1"/>
        <pt x="445" y="655" on="0"/>
        <pt x="367" y="774" on="0"/>
        <pt x="289" y="774" on="1"/>
        <pt x="229" y="774" on="0"/>
        <pt x="167" y="646" on="0"/>
      </contour>
    </TTGlyph>
    <TTGlyph name="ntilde" xMin="24" yMin="-4" xMax="626" yMax="756">
      <component glyphName="n" x="0" y="0" flags="0x204"/>
      <component glyphName="tilde" x="122" y="33" flags="0x4"/>
    </TTGlyph>
    <TTGlyph name="numbersign" xMin="35" yMin="-15" xMax="603" yMax="802">
      <contour>
        <pt x="119" y="530" on="1"/>
        <pt x="238" y="530" on="1"/>
        <pt x="315" y="799" on="1"/>
        <pt x="327" y="802" on="0"/>
        <pt x="340" y="802" on="1"/>
        <pt x="351" y="802" on="0"/>
        <pt x="365" y="799" on="1"/>
        <pt x="289" y="530" on="1"/>
        <pt x="428" y="530" on="1"/>
        <pt x="505" y="799" on="1"/>
        <pt x="517" y="802" on="0"/>
        <pt x="530" y="802" on="1"/>
        <pt x="541" y="802" on="0"/>
        <pt x="555" y="799" on="1"/>
        <pt x="479" y="530" on="1"/>
        <pt x="601" y="530" on="1"/>
        <pt x="603" y="520" on="0"/>
        <pt x="603" y="517" on="1"/>
        <pt x="603" y="499" on="0"/>
        <pt x="587" y="480" on="1"/>
        <pt x="465" y="480" on="1"/>
        <pt x="409" y="285" on="1"/>
        <pt x="531" y="285" on="1"/>
        <pt x="533" y="275" on="0"/>
        <pt x="533" y="272" on="1"/>
        <pt x="533" y="254" on="0"/>
        <pt x="517" y="235" on="1"/>
        <pt x="395" y="235" on="1"/>
        <pt x="326" y="-11" on="1"/>
        <pt x="311" y="-15" on="0"/>
        <pt x="298" y="-15" on="1"/>
        <pt x="283" y="-15" on="0"/>
        <pt x="276" y="-11" on="1"/>
        <pt x="345" y="235" on="1"/>
        <pt x="205" y="235" on="1"/>
        <pt x="136" y="-11" on="1"/>
        <pt x="121" y="-15" on="0"/>
        <pt x="108" y="-15" on="1"/>
        <pt x="93" y="-15" on="0"/>
        <pt x="86" y="-11" on="1"/>
        <pt x="155" y="235" on="1"/>
        <pt x="35" y="235" on="1"/>
        <pt x="35" y="240" on="1"/>
        <pt x="35" y="266" on="0"/>
        <pt x="49" y="285" on="1"/>
        <pt x="169" y="285" on="1"/>
        <pt x="224" y="480" on="1"/>
        <pt x="105" y="480" on="1"/>
        <pt x="105" y="485" on="1"/>
        <pt x="105" y="511" on="0"/>
      </contour>
      <contour>
        <pt x="275" y="480" on="1"/>
        <pt x="219" y="285" on="1"/>
        <pt x="359" y="285" on="1"/>
        <pt x="414" y="480" on="1"/>
      </contour>
    </TTGlyph>
    <TTGlyph name="o" xMin="43" yMin="-20" xMax="549" yMax="554">
      <contour>
        <pt x="43" y="266" on="1"/>
        <pt x="43" y="326" on="0"/>
        <pt x="78" y="431" on="0"/>
        <pt x="144" y="509" on="0"/>
        <pt x="237" y="554" on="0"/>
        <pt x="295" y="554" on="1"/>
        <pt x="352" y="554" on="0"/>
        <pt x="446" y="509" on="0"/>
        <pt x="513" y="431" on="0"/>
        <pt x="549" y="326" on="0"/>
        <pt x="549" y="266" on="1"/>
        <pt x="549" y="204" on="0"/>
        <pt x="512" y="100" on="0"/>
        <pt x="445" y="23" on="0"/>
        <pt x="351" y="-20" on="0"/>
        <pt x="295" y="-20" on="1"/>
        <pt x="236" y="-20" on="0"/>
        <pt x="143" y="22" on="0"/>
        <pt x="78" y="98" on="0"/>
        <pt x="43" y="203" on="0"/>
      </contour>
      <contour>
        <pt x="189" y="450" on="1"/>
        <pt x="146" y="389" on="0"/>
        <pt x="146" y="266" on="1"/>
        <pt x="146" y="205" on="0"/>
        <pt x="169" y="113" on="0"/>
        <pt x="209" y="52" on="0"/>
        <pt x="263" y="22" on="0"/>
        <pt x="295" y="22" on="1"/>
        <pt x="326" y="22" on="0"/>
        <pt x="382" y="52" on="0"/>
        <pt x="422" y="113" on="0"/>
        <pt x="446" y="205" on="0"/>
        <pt x="446" y="266" on="1"/>
        <pt x="446" y="327" on="0"/>
        <pt x="422" y="420" on="0"/>
        <pt x="381" y="481" on="0"/>
        <pt x="326" y="512" on="0"/>
        <pt x="295" y="512" on="1"/>
        <pt x="233" y="512" on="0"/>
      </contour>
    </TTGlyph>
    <TTGlyph name="oacute" xMin="46" yMin="-20" xMax="552" yMax="814">
      <component glyphName="o" x="3" y="0" flags="0x4"/>
      <component glyphName="acute" x="201" y="33" flags="0x4"/>
    </TTGlyph>
    <TTGlyph name="ocircumflex" xMin="46" yMin="-20" xMax="552" yMax="801">
      <component glyphName="o" x="3" y="0" flags="0x4"/>
      <component glyphName="circumflex" x="123" y="33" flags="0x4"/>
    </TTGlyph>
    <TTGlyph name="odieresis" xMin="46" yMin="-20" xMax="552" yMax="764">
      <component glyphName="o" x="3" y="0" flags="0x4"/>
      <component glyphName="dieresis" x="100" y="33" flags="0x4"/>
    </TTGlyph>
    <TTGlyph name="oe" xMin="43" yMin="-20" xMax="892" yMax="554">
      <contour>
        <pt x="192" y="450" on="1"/>
        <pt x="149" y="389" on="0"/>
        <pt x="149" y="266" on="1"/>
        <pt x="149" y="205" on="0"/>
        <pt x="172" y="113" on="0"/>
        <pt x="212" y="52" on="0"/>
        <pt x="266" y="22" on="0"/>
        <pt x="298" y="22" on="1"/>
        <pt x="329" y="22" on="0"/>
        <pt x="385" y="52" on="0"/>
        <pt x="425" y="113" on="0"/>
        <pt x="449" y="205" on="0"/>
        <pt x="449" y="266" on="1"/>
        <pt x="449" y="327" on="0"/>
        <pt x="425" y="420" on="0"/>
        <pt x="384" y="481" on="0"/>
        <pt x="329" y="512" on="0"/>
        <pt x="298" y="512" on="1"/>
        <pt x="236" y="512" on="0"/>
      </contour>
      <contour>
        <pt x="43" y="266" on="1"/>
        <pt x="43" y="386" on="0"/>
        <pt x="182" y="554" on="0"/>
        <pt x="298" y="554" on="1"/>
        <pt x="419" y="554" on="0"/>
        <pt x="493" y="460" on="1"/>
        <pt x="560" y="554" on="0"/>
        <pt x="683" y="554" on="1"/>
        <pt x="794" y="554" on="0"/>
        <pt x="892" y="408" on="0"/>
        <pt x="892" y="291" on="1"/>
        <pt x="884" y="284" on="0"/>
        <pt x="871" y="282" on="1"/>
        <pt x="545" y="282" on="1"/>
        <pt x="537" y="28" on="0"/>
        <pt x="703" y="28" on="1"/>
        <pt x="771" y="28" on="0"/>
        <pt x="855" y="89" on="1"/>
        <pt x="870" y="80" on="0"/>
        <pt x="878" y="58" on="1"/>
        <pt x="798" y="-20" on="0"/>
        <pt x="687" y="-20" on="1"/>
        <pt x="556" y="-20" on="0"/>
        <pt x="491" y="70" on="1"/>
        <pt x="417" y="-20" on="0"/>
        <pt x="298" y="-20" on="1"/>
        <pt x="180" y="-20" on="0"/>
        <pt x="43" y="140" on="0"/>
      </contour>
      <contour>
        <pt x="674" y="508" on="1"/>
        <pt x="625" y="508" on="0"/>
        <pt x="556" y="405" on="0"/>
        <pt x="548" y="322" on="1"/>
        <pt x="672" y="322" on="1"/>
        <pt x="752" y="322" on="0"/>
        <pt x="788" y="331" on="1"/>
        <pt x="788" y="508" on="0"/>
      </contour>
    </TTGlyph>
    <TTGlyph name="ograve" xMin="46" yMin="-20" xMax="552" yMax="814">
      <component glyphName="o" x="3" y="0" flags="0x4"/>
      <component glyphName="grave" x="217" y="33" flags="0x4"/>
    </TTGlyph>
    <TTGlyph name="one" xMin="33" yMin="-4" xMax="394" yMax="816">
      <contour>
        <pt x="271" y="654" on="1"/>
        <pt x="271" y="51" on="1"/>
        <pt x="390" y="36" on="1"/>
        <pt x="394" y="20" on="0"/>
        <pt x="390" y="-4" on="1"/>
        <pt x="327" y="-1" on="0"/>
        <pt x="219" y="-1" on="1"/>
        <pt x="130" y="-1" on="0"/>
        <pt x="46" y="-3" on="1"/>
        <pt x="40" y="16" on="0"/>
        <pt x="46" y="36" on="1"/>
        <pt x="165" y="47" on="1"/>
        <pt x="169" y="102" on="0"/>
        <pt x="169" y="174" on="1"/>
        <pt x="169" y="723" on="1"/>
        <pt x="37" y="700" on="1"/>
        <pt x="33" y="719" on="0"/>
        <pt x="37" y="748" on="1"/>
        <pt x="266" y="816" on="1"/>
        <pt x="275" y="806" on="0"/>
        <pt x="276" y="796" on="1"/>
        <pt x="271" y="770" on="0"/>
        <pt x="271" y="704" on="1"/>
      </contour>
    </TTGlyph>
    <TTGlyph name="onehalf" xMin="29" yMin="-29" xMax="842" yMax="817">
      <component glyphName="onesuperior" x="-9" y="0" flags="0x4"/>
      <component glyphName="twosuperior" x="485" y="-319" flags="0x4"/>
      <component glyphName="fraction" x="211" y="0" flags="0x4"/>
    </TTGlyph>
    <TTGlyph name="onequarter" xMin="29" yMin="-29" xMax="807" yMax="817">
      <component glyphName="onesuperior" x="-9" y="0" flags="0x4"/>
      <component glyphName="foursuperior" x="427" y="-319" flags="0x4"/>
      <component glyphName="fraction" x="211" y="0" flags="0x4"/>
    </TTGlyph>
    <TTGlyph name="onesuperior" xMin="38" yMin="327" xMax="302" yMax="817">
      <contour>
        <pt x="217" y="650" on="1"/>
        <pt x="217" y="382" on="1"/>
        <pt x="298" y="367" on="1"/>
        <pt x="302" y="351" on="0"/>
        <pt x="298" y="327" on="1"/>
        <pt x="235" y="330" on="0"/>
        <pt x="176" y="330" on="1"/>
        <pt x="136" y="330" on="0"/>
        <pt x="52" y="328" on="1"/>
        <pt x="46" y="348" on="0"/>
        <pt x="52" y="367" on="1"/>
        <pt x="131" y="378" on="1"/>
        <pt x="135" y="433" on="0"/>
        <pt x="135" y="505" on="1"/>
        <pt x="135" y="650" on="1"/>
        <pt x="135" y="711" on="0"/>
        <pt x="132" y="743" on="1"/>
        <pt x="47" y="730" on="1"/>
        <pt x="38" y="750" on="0"/>
        <pt x="45" y="773" on="1"/>
        <pt x="212" y="817" on="1"/>
        <pt x="221" y="807" on="0"/>
        <pt x="222" y="797" on="1"/>
        <pt x="217" y="771" on="0"/>
      </contour>
    </TTGlyph>
    <TTGlyph name="ordfeminine" xMin="47" yMin="351" xMax="435" yMax="807">
      <contour>
        <pt x="133" y="466" on="1"/>
        <pt x="133" y="427" on="0"/>
        <pt x="154" y="397" on="0"/>
        <pt x="182" y="397" on="1"/>
        <pt x="205" y="397" on="0"/>
        <pt x="266" y="434" on="0"/>
        <pt x="292" y="463" on="1"/>
        <pt x="292" y="573" on="1"/>
        <pt x="217" y="569" on="0"/>
        <pt x="133" y="509" on="0"/>
      </contour>
      <contour>
        <pt x="292" y="607" on="1"/>
        <pt x="292" y="647" on="1"/>
        <pt x="292" y="714" on="0"/>
        <pt x="261" y="776" on="0"/>
        <pt x="225" y="776" on="1"/>
        <pt x="150" y="776" on="0"/>
        <pt x="136" y="673" on="1"/>
        <pt x="114" y="667" on="0"/>
        <pt x="98" y="667" on="1"/>
        <pt x="68" y="667" on="0"/>
        <pt x="62" y="689" on="1"/>
        <pt x="62" y="743" on="0"/>
        <pt x="156" y="807" on="0"/>
        <pt x="226" y="807" on="1"/>
        <pt x="303" y="807" on="0"/>
        <pt x="367" y="745" on="0"/>
        <pt x="367" y="663" on="1"/>
        <pt x="367" y="439" on="1"/>
        <pt x="367" y="418" on="0"/>
        <pt x="370" y="405" on="1"/>
        <pt x="433" y="397" on="1"/>
        <pt x="435" y="386" on="0"/>
        <pt x="433" y="367" on="1"/>
        <pt x="371" y="364" on="0"/>
        <pt x="313" y="355" on="1"/>
        <pt x="306" y="362" on="0"/>
        <pt x="305" y="371" on="1"/>
        <pt x="301" y="426" on="1"/>
        <pt x="235" y="351" on="0"/>
        <pt x="154" y="351" on="1"/>
        <pt x="104" y="351" on="0"/>
        <pt x="47" y="410" on="0"/>
        <pt x="47" y="458" on="1"/>
        <pt x="47" y="531" on="0"/>
        <pt x="179" y="604" on="0"/>
      </contour>
    </TTGlyph>
    <TTGlyph name="ordmasculine" xMin="25" yMin="351" xMax="427" yMax="807">
      <contour>
        <pt x="25" y="579" on="1"/>
        <pt x="25" y="626" on="0"/>
        <pt x="53" y="709" on="0"/>
        <pt x="106" y="771" on="0"/>
        <pt x="180" y="807" on="0"/>
        <pt x="225" y="807" on="1"/>
        <pt x="270" y="807" on="0"/>
        <pt x="345" y="771" on="0"/>
        <pt x="398" y="708" on="0"/>
        <pt x="427" y="625" on="0"/>
        <pt x="427" y="579" on="1"/>
        <pt x="427" y="530" on="0"/>
        <pt x="397" y="446" on="0"/>
        <pt x="343" y="385" on="0"/>
        <pt x="269" y="351" on="0"/>
        <pt x="225" y="351" on="1"/>
        <pt x="178" y="351" on="0"/>
        <pt x="103" y="385" on="0"/>
        <pt x="52" y="445" on="0"/>
        <pt x="25" y="529" on="0"/>
      </contour>
      <contour>
        <pt x="344" y="579" on="1"/>
        <pt x="344" y="676" on="0"/>
        <pt x="276" y="774" on="0"/>
        <pt x="225" y="774" on="1"/>
        <pt x="174" y="774" on="0"/>
        <pt x="108" y="678" on="0"/>
        <pt x="108" y="579" on="1"/>
        <pt x="108" y="480" on="0"/>
        <pt x="174" y="384" on="0"/>
        <pt x="225" y="384" on="1"/>
        <pt x="275" y="384" on="0"/>
        <pt x="344" y="481" on="0"/>
      </contour>
    </TTGlyph>
    <TTGlyph name="oslash" xMin="43" yMin="-56" xMax="555" yMax="599">
      <contour>
        <pt x="403" y="594" on="1"/>
        <pt x="416" y="599" on="0"/>
        <pt x="427" y="599" on="1"/>
        <pt x="436" y="599" on="0"/>
        <pt x="453" y="594" on="1"/>
        <pt x="425" y="520" on="1"/>
        <pt x="486" y="483" on="0"/>
        <pt x="555" y="347" on="0"/>
        <pt x="555" y="266" on="1"/>
        <pt x="555" y="205" on="0"/>
        <pt x="517" y="100" on="0"/>
        <pt x="449" y="24" on="0"/>
        <pt x="354" y="-20" on="0"/>
        <pt x="298" y="-20" on="1"/>
        <pt x="253" y="-20" on="0"/>
        <pt x="216" y="-8" on="1"/>
        <pt x="199" y="-53" on="1"/>
        <pt x="187" y="-56" on="0"/>
        <pt x="176" y="-56" on="1"/>
        <pt x="162" y="-56" on="0"/>
        <pt x="149" y="-53" on="1"/>
        <pt x="172" y="11" on="1"/>
        <pt x="109" y="45" on="0"/>
        <pt x="43" y="178" on="0"/>
        <pt x="43" y="266" on="1"/>
        <pt x="43" y="326" on="0"/>
        <pt x="79" y="431" on="0"/>
        <pt x="146" y="509" on="0"/>
        <pt x="240" y="554" on="0"/>
        <pt x="298" y="554" on="1"/>
        <pt x="340" y="554" on="0"/>
        <pt x="382" y="540" on="1"/>
      </contour>
      <contour>
        <pt x="149" y="266" on="1"/>
        <pt x="149" y="134" on="0"/>
        <pt x="200" y="71" on="1"/>
        <pt x="360" y="494" on="1"/>
        <pt x="332" y="512" on="0"/>
        <pt x="298" y="512" on="1"/>
        <pt x="235" y="512" on="0"/>
        <pt x="149" y="389" on="0"/>
      </contour>
      <contour>
        <pt x="449" y="266" on="1"/>
        <pt x="449" y="392" on="0"/>
        <pt x="398" y="460" on="1"/>
        <pt x="238" y="38" on="1"/>
        <pt x="266" y="22" on="0"/>
        <pt x="298" y="22" on="1"/>
        <pt x="361" y="22" on="0"/>
        <pt x="449" y="143" on="0"/>
      </contour>
    </TTGlyph>
    <TTGlyph name="otilde" xMin="46" yMin="-20" xMax="552" yMax="756">
      <component glyphName="o" x="3" y="0" flags="0x4"/>
      <component glyphName="tilde" x="111" y="33" flags="0x4"/>
    </TTGlyph>
    <TTGlyph name="p" xMin="12" yMin="-273" xMax="587" yMax="554">
      <contour>
        <pt x="338" y="34" on="1"/>
        <pt x="404" y="34" on="0"/>
        <pt x="481" y="162" on="0"/>
        <pt x="481" y="291" on="1"/>
        <pt x="481" y="390" on="0"/>
        <pt x="408" y="494" on="0"/>
        <pt x="348" y="494" on="1"/>
        <pt x="260" y="494" on="0"/>
        <pt x="196" y="409" on="1"/>
        <pt x="196" y="98" on="1"/>
        <pt x="252" y="34" on="0"/>
      </contour>
      <contour>
        <pt x="101" y="391" on="1"/>
        <pt x="101" y="458" on="0"/>
        <pt x="98" y="485" on="1"/>
        <pt x="19" y="495" on="1"/>
        <pt x="16" y="511" on="0"/>
        <pt x="19" y="533" on="1"/>
        <pt x="89" y="538" on="0"/>
        <pt x="191" y="554" on="1"/>
        <pt x="200" y="545" on="0"/>
        <pt x="201" y="534" on="1"/>
        <pt x="196" y="499" on="0"/>
        <pt x="196" y="460" on="1"/>
        <pt x="277" y="554" on="0"/>
        <pt x="382" y="554" on="1"/>
        <pt x="470" y="554" on="0"/>
        <pt x="587" y="408" on="0"/>
        <pt x="587" y="288" on="1"/>
        <pt x="587" y="149" on="0"/>
        <pt x="434" y="-20" on="0"/>
        <pt x="330" y="-20" on="1"/>
        <pt x="257" y="-20" on="0"/>
        <pt x="196" y="27" on="1"/>
        <pt x="196" y="-218" on="1"/>
        <pt x="297" y="-233" on="1"/>
        <pt x="301" y="-249" on="0"/>
        <pt x="297" y="-273" on="1"/>
        <pt x="234" y="-270" on="0"/>
        <pt x="158" y="-270" on="1"/>
        <pt x="102" y="-270" on="0"/>
        <pt x="18" y="-272" on="1"/>
        <pt x="12" y="-252" on="0"/>
        <pt x="18" y="-233" on="1"/>
        <pt x="97" y="-222" on="1"/>
        <pt x="101" y="-167" on="0"/>
        <pt x="101" y="-95" on="1"/>
      </contour>
    </TTGlyph>
    <TTGlyph name="paragraph" xMin="36" yMin="-3" xMax="619" yMax="807">
      <contour>
        <pt x="544" y="756" on="1"/>
        <pt x="544" y="163" on="1"/>
        <pt x="544" y="84" on="0"/>
        <pt x="548" y="46" on="1"/>
        <pt x="611" y="34" on="1"/>
        <pt x="615" y="20" on="0"/>
        <pt x="611" y="-2" on="1"/>
        <pt x="507" y="0" on="0"/>
        <pt x="462" y="0" on="1"/>
        <pt x="366" y="0" on="0"/>
        <pt x="257" y="-3" on="1"/>
        <pt x="253" y="19" on="0"/>
        <pt x="257" y="34" on="1"/>
        <pt x="348" y="44" on="1"/>
        <pt x="348" y="357" on="1"/>
        <pt x="320" y="352" on="0"/>
        <pt x="285" y="352" on="1"/>
        <pt x="183" y="352" on="0"/>
        <pt x="36" y="482" on="0"/>
        <pt x="36" y="578" on="1"/>
        <pt x="36" y="807" on="0"/>
        <pt x="283" y="807" on="1"/>
        <pt x="288" y="807" on="0"/>
        <pt x="446" y="800" on="1"/>
        <pt x="467" y="799" on="0"/>
        <pt x="506" y="799" on="1"/>
        <pt x="568" y="799" on="0"/>
        <pt x="615" y="803" on="1"/>
        <pt x="619" y="781" on="0"/>
        <pt x="615" y="766" on="1"/>
      </contour>
      <contour>
        <pt x="298" y="395" on="1"/>
        <pt x="329" y="395" on="0"/>
        <pt x="348" y="398" on="1"/>
        <pt x="348" y="633" on="1"/>
        <pt x="348" y="714" on="0"/>
        <pt x="343" y="761" on="1"/>
        <pt x="332" y="765" on="0"/>
        <pt x="308" y="765" on="1"/>
        <pt x="157" y="765" on="0"/>
        <pt x="157" y="583" on="1"/>
        <pt x="157" y="486" on="0"/>
        <pt x="226" y="395" on="0"/>
      </contour>
      <contour>
        <pt x="416" y="163" on="1"/>
        <pt x="416" y="82" on="0"/>
        <pt x="420" y="44" on="1"/>
        <pt x="476" y="44" on="1"/>
        <pt x="476" y="637" on="1"/>
        <pt x="476" y="718" on="0"/>
        <pt x="472" y="756" on="1"/>
        <pt x="416" y="756" on="1"/>
      </contour>
    </TTGlyph>
    <TTGlyph name="parenleft" xMin="55" yMin="-182" xMax="251" yMax="900">
      <contour>
        <pt x="221" y="900" on="1"/>
        <pt x="245" y="889" on="0"/>
        <pt x="251" y="869" on="1"/>
        <pt x="222" y="815" on="0"/>
        <pt x="182" y="716" on="0"/>
        <pt x="157" y="602" on="0"/>
        <pt x="146" y="458" on="0"/>
        <pt x="146" y="359" on="1"/>
        <pt x="146" y="260" on="0"/>
        <pt x="157" y="116" on="0"/>
        <pt x="182" y="2" on="0"/>
        <pt x="222" y="-97" on="0"/>
        <pt x="251" y="-151" on="1"/>
        <pt x="245" y="-172" on="0"/>
        <pt x="221" y="-182" on="1"/>
        <pt x="186" y="-142" on="0"/>
        <pt x="126" y="-45" on="0"/>
        <pt x="81" y="82" on="0"/>
        <pt x="55" y="249" on="0"/>
        <pt x="55" y="359" on="1"/>
        <pt x="55" y="470" on="0"/>
        <pt x="81" y="637" on="0"/>
        <pt x="126" y="764" on="0"/>
        <pt x="187" y="860" on="0"/>
      </contour>
    </TTGlyph>
    <TTGlyph name="parenright" xMin="7" yMin="-182" xMax="203" yMax="900">
      <contour>
        <pt x="37" y="900" on="1"/>
        <pt x="71" y="860" on="0"/>
        <pt x="132" y="764" on="0"/>
        <pt x="177" y="637" on="0"/>
        <pt x="203" y="470" on="0"/>
        <pt x="203" y="359" on="1"/>
        <pt x="203" y="249" on="0"/>
        <pt x="177" y="82" on="0"/>
        <pt x="132" y="-45" on="0"/>
        <pt x="72" y="-142" on="0"/>
        <pt x="37" y="-182" on="1"/>
        <pt x="13" y="-172" on="0"/>
        <pt x="7" y="-151" on="1"/>
        <pt x="36" y="-97" on="0"/>
        <pt x="76" y="2" on="0"/>
        <pt x="101" y="116" on="0"/>
        <pt x="112" y="260" on="0"/>
        <pt x="112" y="359" on="1"/>
        <pt x="112" y="458" on="0"/>
        <pt x="101" y="602" on="0"/>
        <pt x="76" y="716" on="0"/>
        <pt x="36" y="815" on="0"/>
        <pt x="7" y="869" on="1"/>
        <pt x="13" y="889" on="0"/>
      </contour>
    </TTGlyph>
    <TTGlyph name="percent" xMin="66" yMin="-30" xMax="911" yMax="804">
      <contour>
        <pt x="729" y="-30" on="1"/>
        <pt x="646" y="-30" on="0"/>
        <pt x="549" y="96" on="0"/>
        <pt x="549" y="190" on="1"/>
        <pt x="549" y="294" on="0"/>
        <pt x="645" y="426" on="0"/>
        <pt x="729" y="426" on="1"/>
        <pt x="814" y="426" on="0"/>
        <pt x="911" y="295" on="0"/>
        <pt x="911" y="190" on="1"/>
        <pt x="911" y="96" on="0"/>
        <pt x="813" y="-30" on="0"/>
      </contour>
      <contour>
        <pt x="729" y="8" on="1"/>
        <pt x="777" y="8" on="0"/>
        <pt x="836" y="110" on="0"/>
        <pt x="836" y="204" on="1"/>
        <pt x="836" y="388" on="0"/>
        <pt x="729" y="388" on="1"/>
        <pt x="624" y="388" on="0"/>
        <pt x="624" y="204" on="1"/>
        <pt x="624" y="110" on="0"/>
        <pt x="683" y="8" on="0"/>
      </contour>
      <contour>
        <pt x="246" y="348" on="1"/>
        <pt x="163" y="348" on="0"/>
        <pt x="66" y="474" on="0"/>
        <pt x="66" y="568" on="1"/>
        <pt x="66" y="672" on="0"/>
        <pt x="162" y="804" on="0"/>
        <pt x="246" y="804" on="1"/>
        <pt x="331" y="804" on="0"/>
        <pt x="428" y="673" on="0"/>
        <pt x="428" y="568" on="1"/>
        <pt x="428" y="474" on="0"/>
        <pt x="330" y="348" on="0"/>
      </contour>
      <contour>
        <pt x="246" y="386" on="1"/>
        <pt x="294" y="386" on="0"/>
        <pt x="353" y="488" on="0"/>
        <pt x="353" y="582" on="1"/>
        <pt x="353" y="766" on="0"/>
        <pt x="246" y="766" on="1"/>
        <pt x="141" y="766" on="0"/>
        <pt x="141" y="582" on="1"/>
        <pt x="141" y="488" on="0"/>
        <pt x="200" y="386" on="0"/>
      </contour>
      <contour>
        <pt x="696" y="796" on="1"/>
        <pt x="340" y="-25" on="1"/>
        <pt x="329" y="-29" on="0"/>
        <pt x="311" y="-29" on="1"/>
        <pt x="292" y="-29" on="0"/>
        <pt x="280" y="-25" on="1"/>
        <pt x="636" y="796" on="1"/>
        <pt x="661" y="803" on="0"/>
      </contour>
    </TTGlyph>
    <TTGlyph name="period" xMin="50" yMin="-13" xMax="176" yMax="111">
      <contour>
        <pt x="112" y="111" on="1"/>
        <pt x="139" y="111" on="0"/>
        <pt x="176" y="76" on="0"/>
        <pt x="176" y="50" on="1"/>
        <pt x="176" y="24" on="0"/>
        <pt x="139" y="-13" on="0"/>
        <pt x="113" y="-13" on="1"/>
        <pt x="87" y="-13" on="0"/>
        <pt x="50" y="24" on="0"/>
        <pt x="50" y="50" on="1"/>
        <pt x="50" y="76" on="0"/>
        <pt x="86" y="111" on="0"/>
      </contour>
    </TTGlyph>
    <TTGlyph name="periodcentered" xMin="61" yMin="237" xMax="187" yMax="361">
      <contour>
        <pt x="123" y="361" on="1"/>
        <pt x="150" y="361" on="0"/>
        <pt x="187" y="326" on="0"/>
        <pt x="187" y="300" on="1"/>
        <pt x="187" y="274" on="0"/>
        <pt x="150" y="237" on="0"/>
        <pt x="124" y="237" on="1"/>
        <pt x="98" y="237" on="0"/>
        <pt x="61" y="274" on="0"/>
        <pt x="61" y="300" on="1"/>
        <pt x="61" y="326" on="0"/>
        <pt x="97" y="361" on="0"/>
      </contour>
    </TTGlyph>
    <TTGlyph name="plus" xMin="33" yMin="130" xMax="541" yMax="645">
      <contour>
        <pt x="312" y="635" on="1"/>
        <pt x="312" y="415" on="1"/>
        <pt x="533" y="415" on="1"/>
        <pt x="541" y="392" on="0"/>
        <pt x="533" y="365" on="1"/>
        <pt x="312" y="365" on="1"/>
        <pt x="312" y="144" on="1"/>
        <pt x="290" y="130" on="0"/>
        <pt x="262" y="144" on="1"/>
        <pt x="262" y="365" on="1"/>
        <pt x="42" y="365" on="1"/>
        <pt x="33" y="395" on="0"/>
        <pt x="42" y="415" on="1"/>
        <pt x="262" y="415" on="1"/>
        <pt x="262" y="635" on="1"/>
        <pt x="285" y="645" on="0"/>
      </contour>
    </TTGlyph>
    <TTGlyph name="plusminus" xMin="67" yMin="95" xMax="575" yMax="595">
      <contour>
        <pt x="346" y="585" on="1"/>
        <pt x="346" y="415" on="1"/>
        <pt x="567" y="415" on="1"/>
        <pt x="575" y="392" on="0"/>
        <pt x="567" y="365" on="1"/>
        <pt x="346" y="365" on="1"/>
        <pt x="346" y="194" on="1"/>
        <pt x="324" y="180" on="0"/>
        <pt x="296" y="194" on="1"/>
        <pt x="296" y="365" on="1"/>
        <pt x="76" y="365" on="1"/>
        <pt x="67" y="395" on="0"/>
        <pt x="76" y="415" on="1"/>
        <pt x="296" y="415" on="1"/>
        <pt x="296" y="585" on="1"/>
        <pt x="319" y="595" on="0"/>
      </contour>
      <contour>
        <pt x="567" y="95" on="1"/>
        <pt x="76" y="95" on="1"/>
        <pt x="67" y="125" on="0"/>
        <pt x="76" y="145" on="1"/>
        <pt x="567" y="145" on="1"/>
        <pt x="575" y="122" on="0"/>
      </contour>
    </TTGlyph>
    <TTGlyph name="q" xMin="44" yMin="-273" xMax="616" yMax="554">
      <contour>
        <pt x="531" y="-218" on="1"/>
        <pt x="612" y="-233" on="1"/>
        <pt x="616" y="-249" on="0"/>
        <pt x="612" y="-273" on="1"/>
        <pt x="549" y="-270" on="0"/>
        <pt x="478" y="-270" on="1"/>
        <pt x="427" y="-270" on="0"/>
        <pt x="343" y="-272" on="1"/>
        <pt x="337" y="-252" on="0"/>
        <pt x="343" y="-233" on="1"/>
        <pt x="432" y="-222" on="1"/>
        <pt x="436" y="-167" on="0"/>
        <pt x="436" y="-82" on="1"/>
        <pt x="436" y="63" on="1"/>
        <pt x="353" y="-20" on="0"/>
        <pt x="255" y="-20" on="1"/>
        <pt x="167" y="-20" on="0"/>
        <pt x="44" y="137" on="0"/>
        <pt x="44" y="258" on="1"/>
        <pt x="44" y="397" on="0"/>
        <pt x="200" y="554" on="0"/>
        <pt x="313" y="554" on="1"/>
        <pt x="358" y="554" on="0"/>
        <pt x="443" y="511" on="0"/>
        <pt x="468" y="471" on="1"/>
        <pt x="502" y="554" on="1"/>
        <pt x="536" y="554" on="0"/>
        <pt x="556" y="545" on="1"/>
        <pt x="538" y="483" on="0"/>
        <pt x="531" y="363" on="1"/>
      </contour>
      <contour>
        <pt x="299" y="500" on="1"/>
        <pt x="233" y="500" on="0"/>
        <pt x="150" y="370" on="0"/>
        <pt x="150" y="255" on="1"/>
        <pt x="150" y="156" on="0"/>
        <pt x="230" y="40" on="0"/>
        <pt x="289" y="40" on="1"/>
        <pt x="324" y="40" on="0"/>
        <pt x="406" y="85" on="0"/>
        <pt x="436" y="124" on="1"/>
        <pt x="436" y="430" on="1"/>
        <pt x="382" y="500" on="0"/>
      </contour>
    </TTGlyph>
    <TTGlyph name="question" xMin="35" yMin="-13" xMax="466" yMax="819">
      <contour>
        <pt x="205" y="111" on="1"/>
        <pt x="232" y="111" on="0"/>
        <pt x="269" y="76" on="0"/>
        <pt x="269" y="50" on="1"/>
        <pt x="269" y="24" on="0"/>
        <pt x="232" y="-13" on="0"/>
        <pt x="206" y="-13" on="1"/>
        <pt x="180" y="-13" on="0"/>
        <pt x="143" y="24" on="0"/>
        <pt x="143" y="50" on="1"/>
        <pt x="143" y="76" on="0"/>
        <pt x="179" y="111" on="0"/>
      </contour>
      <contour>
        <pt x="167" y="163" on="1"/>
        <pt x="147" y="408" on="1"/>
        <pt x="158" y="408" on="1"/>
        <pt x="212" y="408" on="0"/>
        <pt x="284" y="429" on="0"/>
        <pt x="329" y="474" on="0"/>
        <pt x="348" y="544" on="0"/>
        <pt x="348" y="593" on="1"/>
        <pt x="348" y="675" on="0"/>
        <pt x="292" y="777" on="0"/>
        <pt x="238" y="777" on="1"/>
        <pt x="163" y="777" on="0"/>
        <pt x="138" y="638" on="1"/>
        <pt x="96" y="638" on="0"/>
        <pt x="46" y="647" on="0"/>
        <pt x="35" y="659" on="1"/>
        <pt x="35" y="699" on="0"/>
        <pt x="65" y="759" on="0"/>
        <pt x="118" y="799" on="0"/>
        <pt x="188" y="819" on="0"/>
        <pt x="227" y="819" on="1"/>
        <pt x="345" y="819" on="0"/>
        <pt x="466" y="695" on="0"/>
        <pt x="466" y="587" on="1"/>
        <pt x="466" y="379" on="0"/>
        <pt x="211" y="360" on="1"/>
        <pt x="220" y="163" on="1"/>
        <pt x="213" y="160" on="0"/>
        <pt x="200" y="158" on="0"/>
        <pt x="194" y="158" on="1"/>
        <pt x="178" y="158" on="0"/>
      </contour>
    </TTGlyph>
    <TTGlyph name="questiondown" xMin="40" yMin="-286" xMax="471" yMax="545">
      <component glyphName="question" x="506" y="533" scale="-0.999938964844" flags="0x4"/>
    </TTGlyph>
    <TTGlyph name="quotedbl" xMin="71" yMin="547" xMax="323" yMax="841">
      <contour>
        <pt x="153" y="800" on="1"/>
        <pt x="134" y="554" on="1"/>
        <pt x="111" y="547" on="0"/>
        <pt x="88" y="554" on="1"/>
        <pt x="71" y="800" on="1"/>
        <pt x="71" y="823" on="0"/>
        <pt x="87" y="841" on="0"/>
        <pt x="112" y="841" on="1"/>
        <pt x="138" y="841" on="0"/>
        <pt x="153" y="825" on="0"/>
      </contour>
      <contour>
        <pt x="323" y="800" on="1"/>
        <pt x="304" y="554" on="1"/>
        <pt x="281" y="547" on="0"/>
        <pt x="258" y="554" on="1"/>
        <pt x="241" y="800" on="1"/>
        <pt x="241" y="823" on="0"/>
        <pt x="257" y="841" on="0"/>
        <pt x="282" y="841" on="1"/>
        <pt x="308" y="841" on="0"/>
        <pt x="323" y="825" on="0"/>
      </contour>
    </TTGlyph>
    <TTGlyph name="quotedblbase" xMin="31" yMin="-148" xMax="399" yMax="141">
      <contour>
        <pt x="57" y="-148" on="1"/>
        <pt x="37" y="-143" on="0"/>
        <pt x="31" y="-116" on="1"/>
        <pt x="60" y="-100" on="0"/>
        <pt x="120" y="-36" on="0"/>
        <pt x="132" y="2" on="1"/>
        <pt x="129" y="2" on="1"/>
        <pt x="91" y="2" on="0"/>
        <pt x="48" y="41" on="0"/>
        <pt x="48" y="72" on="1"/>
        <pt x="48" y="101" on="0"/>
        <pt x="91" y="141" on="0"/>
        <pt x="121" y="141" on="1"/>
        <pt x="157" y="141" on="0"/>
        <pt x="199" y="90" on="0"/>
        <pt x="199" y="54" on="1"/>
        <pt x="199" y="-7" on="0"/>
        <pt x="121" y="-103" on="0"/>
      </contour>
      <contour>
        <pt x="257" y="-148" on="1"/>
        <pt x="237" y="-143" on="0"/>
        <pt x="231" y="-116" on="1"/>
        <pt x="260" y="-100" on="0"/>
        <pt x="320" y="-36" on="0"/>
        <pt x="332" y="2" on="1"/>
        <pt x="329" y="2" on="1"/>
        <pt x="291" y="2" on="0"/>
        <pt x="248" y="41" on="0"/>
        <pt x="248" y="72" on="1"/>
        <pt x="248" y="101" on="0"/>
        <pt x="291" y="141" on="0"/>
        <pt x="321" y="141" on="1"/>
        <pt x="357" y="141" on="0"/>
        <pt x="399" y="90" on="0"/>
        <pt x="399" y="54" on="1"/>
        <pt x="399" y="-7" on="0"/>
        <pt x="321" y="-103" on="0"/>
      </contour>
    </TTGlyph>
    <TTGlyph name="quotedblleft" xMin="41" yMin="562" xMax="409" yMax="851">
      <contour>
        <pt x="183" y="851" on="1"/>
        <pt x="203" y="846" on="0"/>
        <pt x="209" y="819" on="1"/>
        <pt x="180" y="803" on="0"/>
        <pt x="120" y="739" on="0"/>
        <pt x="108" y="701" on="1"/>
        <pt x="111" y="701" on="1"/>
        <pt x="149" y="701" on="0"/>
        <pt x="192" y="662" on="0"/>
        <pt x="192" y="631" on="1"/>
        <pt x="192" y="602" on="0"/>
        <pt x="149" y="562" on="0"/>
        <pt x="119" y="562" on="1"/>
        <pt x="83" y="562" on="0"/>
        <pt x="41" y="613" on="0"/>
        <pt x="41" y="649" on="1"/>
        <pt x="41" y="710" on="0"/>
        <pt x="119" y="806" on="0"/>
      </contour>
      <contour>
        <pt x="383" y="851" on="1"/>
        <pt x="403" y="846" on="0"/>
        <pt x="409" y="819" on="1"/>
        <pt x="380" y="803" on="0"/>
        <pt x="320" y="739" on="0"/>
        <pt x="308" y="701" on="1"/>
        <pt x="311" y="701" on="1"/>
        <pt x="349" y="701" on="0"/>
        <pt x="392" y="662" on="0"/>
        <pt x="392" y="631" on="1"/>
        <pt x="392" y="602" on="0"/>
        <pt x="349" y="562" on="0"/>
        <pt x="319" y="562" on="1"/>
        <pt x="283" y="562" on="0"/>
        <pt x="241" y="613" on="0"/>
        <pt x="241" y="649" on="1"/>
        <pt x="241" y="710" on="0"/>
        <pt x="319" y="806" on="0"/>
      </contour>
    </TTGlyph>
    <TTGlyph name="quotedblright" xMin="48" yMin="562" xMax="416" yMax="851">
      <contour>
        <pt x="74" y="562" on="1"/>
        <pt x="54" y="567" on="0"/>
        <pt x="48" y="594" on="1"/>
        <pt x="77" y="610" on="0"/>
        <pt x="137" y="674" on="0"/>
        <pt x="149" y="712" on="1"/>
        <pt x="146" y="712" on="1"/>
        <pt x="108" y="712" on="0"/>
        <pt x="65" y="751" on="0"/>
        <pt x="65" y="782" on="1"/>
        <pt x="65" y="811" on="0"/>
        <pt x="108" y="851" on="0"/>
        <pt x="138" y="851" on="1"/>
        <pt x="174" y="851" on="0"/>
        <pt x="216" y="800" on="0"/>
        <pt x="216" y="764" on="1"/>
        <pt x="216" y="703" on="0"/>
        <pt x="138" y="607" on="0"/>
      </contour>
      <contour>
        <pt x="274" y="562" on="1"/>
        <pt x="254" y="567" on="0"/>
        <pt x="248" y="594" on="1"/>
        <pt x="277" y="610" on="0"/>
        <pt x="337" y="674" on="0"/>
        <pt x="349" y="712" on="1"/>
        <pt x="346" y="712" on="1"/>
        <pt x="308" y="712" on="0"/>
        <pt x="265" y="751" on="0"/>
        <pt x="265" y="782" on="1"/>
        <pt x="265" y="811" on="0"/>
        <pt x="308" y="851" on="0"/>
        <pt x="338" y="851" on="1"/>
        <pt x="374" y="851" on="0"/>
        <pt x="416" y="800" on="0"/>
        <pt x="416" y="764" on="1"/>
        <pt x="416" y="703" on="0"/>
        <pt x="338" y="607" on="0"/>
      </contour>
    </TTGlyph>
</ttFont>
